M48
; DRILL file {KiCad 9.0.3-1.fc42} date 2025-08-21T15:20:00+0200
; FORMAT={-:-/ absolute / metric / decimal}
; #@! TF.CreationDate,2025-08-21T15:20:00+02:00
; #@! TF.GenerationSoftware,Kicad,Pcbnew,9.0.3-1.fc42
; #@! TF.FileFunction,Plated,1,2,PTH
FMAT,2
METRIC
; #@! TA.AperFunction,Plated,PTH,ComponentDrill
T1C0.900
; #@! TA.AperFunction,Plated,PTH,ComponentDrill
T2C0.991
; #@! TA.AperFunction,Plated,PTH,ComponentDrill
T3C1.020
%
G90
G05
T2
X248.545Y-221.948
X255.705Y-219.342
X258.19Y-134.968
X258.19Y-154.017
X258.19Y-173.067
X258.19Y-192.117
X265.81Y-134.968
X265.81Y-154.017
X265.81Y-173.067
X265.81Y-192.117
X267.806Y-215.527
X275.167Y-213.555
X277.19Y-132.11
X277.19Y-151.16
X277.19Y-170.21
X277.19Y-189.26
X284.81Y-132.11
X284.81Y-151.16
X284.81Y-170.21
X284.81Y-189.26
X287.554Y-210.808
X295.059Y-209.485
X295.5Y-119.037
X295.5Y-126.657
X295.5Y-138.088
X295.5Y-145.707
X295.5Y-157.137
X295.5Y-164.757
X295.5Y-176.188
X295.5Y-183.808
X315.19Y-132.11
X315.19Y-151.16
X315.19Y-170.21
X315.19Y-189.26
X322.81Y-132.11
X322.81Y-151.16
X322.81Y-170.21
X322.81Y-189.26
X334.19Y-141.635
X334.19Y-160.685
X334.19Y-179.735
X334.19Y-198.785
X341.81Y-141.635
X341.81Y-160.685
X341.81Y-179.735
X341.81Y-198.785
X353.19Y-145.445
X353.19Y-164.495
X353.19Y-183.545
X353.19Y-202.595
X360.81Y-145.445
X360.81Y-164.495
X360.81Y-183.545
X360.81Y-202.595
X372.19Y-147.35
X372.19Y-166.4
X372.19Y-185.45
X372.19Y-204.5
X379.81Y-147.35
X379.81Y-166.4
X379.81Y-185.45
X379.81Y-204.5
T3
X291.11Y-113.718
X291.11Y-116.257
X291.11Y-118.797
X291.11Y-121.337
X291.11Y-123.877
X291.11Y-126.417
X291.11Y-128.957
X291.11Y-131.498
X291.11Y-134.037
X291.11Y-136.577
X291.11Y-139.118
X291.11Y-141.657
X291.11Y-144.197
X291.11Y-146.737
X291.11Y-149.278
X291.11Y-151.817
X291.11Y-154.357
X291.11Y-156.897
X291.11Y-159.438
X291.11Y-161.977
X308.89Y-113.718
X308.89Y-116.257
X308.89Y-118.797
X308.89Y-121.337
X308.89Y-123.877
X308.89Y-126.417
X308.89Y-128.957
X308.89Y-131.498
X308.89Y-134.037
X308.89Y-136.577
X308.89Y-139.118
X308.89Y-141.657
X308.89Y-144.197
X308.89Y-146.737
X308.89Y-149.278
X308.89Y-151.817
X308.89Y-154.357
X308.89Y-156.897
X308.89Y-159.438
X308.89Y-161.977
T1
G00X254.9Y-202.917
M15
G01X255.5Y-202.917
M16
G05
G00X257.9Y-202.917
M15
G01X258.5Y-202.917
M16
G05
G00X261.9Y-202.917
M15
G01X262.5Y-202.917
M16
G05
G00X263.0Y-198.317
M15
G01X263.6Y-198.317
M16
G05
M30
