%TF.GenerationSoftware,KiCad,Pcbnew,9.0.3-1.fc42*%
%TF.CreationDate,2025-08-21T15:19:56+02:00*%
%TF.ProjectId,right,72696768-742e-46b6-9963-61645f706362,v1.0.0*%
%TF.SameCoordinates,Original*%
%TF.FileFunction,Copper,L1,Top*%
%TF.FilePolarity,Positive*%
%FSLAX46Y46*%
G04 Gerber Fmt 4.6, Leading zero omitted, Abs format (unit mm)*
G04 Created by KiCad (PCBNEW 9.0.3-1.fc42) date 2025-08-21 15:19:56*
%MOMM*%
%LPD*%
G01*
G04 APERTURE LIST*
G04 Aperture macros list*
%AMRotRect*
0 Rectangle, with rotation*
0 The origin of the aperture is its center*
0 $1 length*
0 $2 width*
0 $3 Rotation angle, in degrees counterclockwise*
0 Add horizontal line*
21,1,$1,$2,0,0,$3*%
G04 Aperture macros list end*
%TA.AperFunction,ComponentPad*%
%ADD10R,1.778000X1.778000*%
%TD*%
%TA.AperFunction,SMDPad,CuDef*%
%ADD11R,0.900000X1.200000*%
%TD*%
%TA.AperFunction,ComponentPad*%
%ADD12C,1.905000*%
%TD*%
%TA.AperFunction,ComponentPad*%
%ADD13RotRect,1.778000X1.778000X10.000000*%
%TD*%
%TA.AperFunction,SMDPad,CuDef*%
%ADD14RotRect,0.900000X1.200000X10.000000*%
%TD*%
%TA.AperFunction,ComponentPad*%
%ADD15RotRect,1.778000X1.778000X15.000000*%
%TD*%
%TA.AperFunction,SMDPad,CuDef*%
%ADD16RotRect,0.900000X1.200000X15.000000*%
%TD*%
%TA.AperFunction,SMDPad,CuDef*%
%ADD17R,1.200000X0.900000*%
%TD*%
%TA.AperFunction,ComponentPad*%
%ADD18RotRect,1.778000X1.778000X20.000000*%
%TD*%
%TA.AperFunction,SMDPad,CuDef*%
%ADD19RotRect,0.900000X1.200000X20.000000*%
%TD*%
%TA.AperFunction,ComponentPad*%
%ADD20O,1.700000X1.700000*%
%TD*%
%TA.AperFunction,ComponentPad*%
%ADD21R,1.700000X1.700000*%
%TD*%
%TA.AperFunction,ComponentPad*%
%ADD22O,2.200000X1.600000*%
%TD*%
%TA.AperFunction,Conductor*%
%ADD23C,0.200000*%
%TD*%
G04 APERTURE END LIST*
D10*
%TO.P,D17,1*%
%TO.N,GP17*%
X277190000Y-189260000D03*
D11*
X279350000Y-189260000D03*
%TO.P,D17,2*%
%TO.N,mirror_index_bottom*%
X282650000Y-189260000D03*
D12*
X284810000Y-189260000D03*
%TD*%
D13*
%TO.P,D25,1*%
%TO.N,GP16*%
X287554297Y-210808235D03*
D14*
X289681484Y-210433154D03*
%TO.P,D25,2*%
%TO.N,mirror_tuck_only*%
X292931350Y-209860116D03*
D12*
X295058537Y-209485035D03*
%TD*%
D15*
%TO.P,D26,1*%
%TO.N,GP16*%
X267806266Y-215526719D03*
D16*
X269892665Y-214967667D03*
%TO.P,D26,2*%
%TO.N,mirror_center_only*%
X273080221Y-214113567D03*
D12*
X275166620Y-213554515D03*
%TD*%
D10*
%TO.P,D24,1*%
%TO.N,GP20*%
X258190000Y-134967500D03*
D11*
X260350000Y-134967500D03*
%TO.P,D24,2*%
%TO.N,mirror_inner_num*%
X263650000Y-134967500D03*
D12*
X265810000Y-134967500D03*
%TD*%
D10*
%TO.P,D9,1*%
%TO.N,GP17*%
X334190000Y-198785000D03*
D11*
X336350000Y-198785000D03*
%TO.P,D9,2*%
%TO.N,mirror_pinky_bottom*%
X339650000Y-198785000D03*
D12*
X341810000Y-198785000D03*
%TD*%
D10*
%TO.P,D11,1*%
%TO.N,GP19*%
X334190000Y-160685000D03*
D11*
X336350000Y-160685000D03*
%TO.P,D11,2*%
%TO.N,mirror_pinky_top*%
X339650000Y-160685000D03*
D12*
X341810000Y-160685000D03*
%TD*%
D10*
%TO.P,D2,1*%
%TO.N,GP18*%
X372190000Y-185450000D03*
D11*
X374350000Y-185450000D03*
%TO.P,D2,2*%
%TO.N,mirror_reachy_home*%
X377650000Y-185450000D03*
D12*
X379810000Y-185450000D03*
%TD*%
D10*
%TO.P,D23,1*%
%TO.N,GP19*%
X258190000Y-154017500D03*
D11*
X260350000Y-154017500D03*
%TO.P,D23,2*%
%TO.N,mirror_inner_top*%
X263650000Y-154017500D03*
D12*
X265810000Y-154017500D03*
%TD*%
D10*
%TO.P,D28,1*%
%TO.N,GP17*%
X295500000Y-176187500D03*
D17*
X295500000Y-178347500D03*
%TO.P,D28,2*%
%TO.N,mirror_middle_bottom*%
X295500000Y-181647500D03*
D12*
X295500000Y-183807500D03*
%TD*%
D10*
%TO.P,D6,1*%
%TO.N,GP18*%
X353190000Y-183545000D03*
D11*
X355350000Y-183545000D03*
%TO.P,D6,2*%
%TO.N,mirror_outer_home*%
X358650000Y-183545000D03*
D12*
X360810000Y-183545000D03*
%TD*%
D10*
%TO.P,D30,1*%
%TO.N,GP19*%
X295500000Y-138087500D03*
D17*
X295500000Y-140247500D03*
%TO.P,D30,2*%
%TO.N,mirror_middle_top*%
X295500000Y-143547500D03*
D12*
X295500000Y-145707500D03*
%TD*%
D10*
%TO.P,D8,1*%
%TO.N,GP20*%
X353190000Y-145445000D03*
D11*
X355350000Y-145445000D03*
%TO.P,D8,2*%
%TO.N,mirror_outer_num*%
X358650000Y-145445000D03*
D12*
X360810000Y-145445000D03*
%TD*%
D10*
%TO.P,D3,1*%
%TO.N,GP19*%
X372190000Y-166400000D03*
D11*
X374350000Y-166400000D03*
%TO.P,D3,2*%
%TO.N,mirror_reachy_top*%
X377650000Y-166400000D03*
D12*
X379810000Y-166400000D03*
%TD*%
D10*
%TO.P,D22,1*%
%TO.N,GP18*%
X258190000Y-173067500D03*
D11*
X260350000Y-173067500D03*
%TO.P,D22,2*%
%TO.N,mirror_inner_home*%
X263650000Y-173067500D03*
D12*
X265810000Y-173067500D03*
%TD*%
D10*
%TO.P,D31,1*%
%TO.N,GP20*%
X295500000Y-119037500D03*
D17*
X295500000Y-121197500D03*
%TO.P,D31,2*%
%TO.N,mirror_middle_num*%
X295500000Y-124497500D03*
D12*
X295500000Y-126657500D03*
%TD*%
D10*
%TO.P,D20,1*%
%TO.N,GP20*%
X277190000Y-132110000D03*
D11*
X279350000Y-132110000D03*
%TO.P,D20,2*%
%TO.N,mirror_index_num*%
X282650000Y-132110000D03*
D12*
X284810000Y-132110000D03*
%TD*%
D10*
%TO.P,D10,1*%
%TO.N,GP18*%
X334190000Y-179735000D03*
D11*
X336350000Y-179735000D03*
%TO.P,D10,2*%
%TO.N,mirror_pinky_home*%
X339650000Y-179735000D03*
D12*
X341810000Y-179735000D03*
%TD*%
D10*
%TO.P,D29,1*%
%TO.N,GP18*%
X295500000Y-157137500D03*
D17*
X295500000Y-159297500D03*
%TO.P,D29,2*%
%TO.N,mirror_middle_home*%
X295500000Y-162597500D03*
D12*
X295500000Y-164757500D03*
%TD*%
D10*
%TO.P,D13,1*%
%TO.N,GP17*%
X315190000Y-189260000D03*
D11*
X317350000Y-189260000D03*
%TO.P,D13,2*%
%TO.N,mirror_ring_bottom*%
X320650000Y-189260000D03*
D12*
X322810000Y-189260000D03*
%TD*%
D10*
%TO.P,D18,1*%
%TO.N,GP18*%
X277190000Y-170210000D03*
D11*
X279350000Y-170210000D03*
%TO.P,D18,2*%
%TO.N,mirror_index_home*%
X282650000Y-170210000D03*
D12*
X284810000Y-170210000D03*
%TD*%
D10*
%TO.P,D12,1*%
%TO.N,GP20*%
X334190000Y-141635000D03*
D11*
X336350000Y-141635000D03*
%TO.P,D12,2*%
%TO.N,mirror_pinky_num*%
X339650000Y-141635000D03*
D12*
X341810000Y-141635000D03*
%TD*%
D10*
%TO.P,D21,1*%
%TO.N,GP17*%
X258190000Y-192117500D03*
D11*
X260350000Y-192117500D03*
%TO.P,D21,2*%
%TO.N,mirror_inner_bottom*%
X263650000Y-192117500D03*
D12*
X265810000Y-192117500D03*
%TD*%
D10*
%TO.P,D14,1*%
%TO.N,GP18*%
X315190000Y-170210000D03*
D11*
X317350000Y-170210000D03*
%TO.P,D14,2*%
%TO.N,mirror_ring_home*%
X320650000Y-170210000D03*
D12*
X322810000Y-170210000D03*
%TD*%
D10*
%TO.P,D19,1*%
%TO.N,GP19*%
X277190000Y-151160000D03*
D11*
X279350000Y-151160000D03*
%TO.P,D19,2*%
%TO.N,mirror_index_top*%
X282650000Y-151160000D03*
D12*
X284810000Y-151160000D03*
%TD*%
D10*
%TO.P,D7,1*%
%TO.N,GP19*%
X353190000Y-164495000D03*
D11*
X355350000Y-164495000D03*
%TO.P,D7,2*%
%TO.N,mirror_outer_top*%
X358650000Y-164495000D03*
D12*
X360810000Y-164495000D03*
%TD*%
D10*
%TO.P,D5,1*%
%TO.N,GP17*%
X353190000Y-202595000D03*
D11*
X355350000Y-202595000D03*
%TO.P,D5,2*%
%TO.N,mirror_outer_bottom*%
X358650000Y-202595000D03*
D12*
X360810000Y-202595000D03*
%TD*%
D10*
%TO.P,D15,1*%
%TO.N,GP19*%
X315190000Y-151160000D03*
D11*
X317350000Y-151160000D03*
%TO.P,D15,2*%
%TO.N,mirror_ring_top*%
X320650000Y-151160000D03*
D12*
X322810000Y-151160000D03*
%TD*%
D10*
%TO.P,D1,1*%
%TO.N,GP17*%
X372190000Y-204500000D03*
D11*
X374350000Y-204500000D03*
%TO.P,D1,2*%
%TO.N,mirror_reachy_bottom*%
X377650000Y-204500000D03*
D12*
X379810000Y-204500000D03*
%TD*%
D10*
%TO.P,D4,1*%
%TO.N,GP20*%
X372190000Y-147350000D03*
D11*
X374350000Y-147350000D03*
%TO.P,D4,2*%
%TO.N,mirror_reachy_num*%
X377650000Y-147350000D03*
D12*
X379810000Y-147350000D03*
%TD*%
D18*
%TO.P,D27,1*%
%TO.N,GP16*%
X248544623Y-221948401D03*
D19*
X250574359Y-221209637D03*
%TO.P,D27,2*%
%TO.N,mirror_reach_only*%
X253675345Y-220080971D03*
D12*
X255705081Y-219342207D03*
%TD*%
D20*
%TO.P,_1,1*%
%TO.N,GP0*%
X291110000Y-113717500D03*
%TO.P,_1,2*%
%TO.N,GP1*%
X291110000Y-116257500D03*
D21*
%TO.P,_1,3*%
%TO.N,GND*%
X291110000Y-118797500D03*
D20*
%TO.P,_1,4*%
%TO.N,GP2*%
X291110000Y-121337500D03*
%TO.P,_1,5*%
%TO.N,GP3*%
X291110000Y-123877500D03*
%TO.P,_1,6*%
%TO.N,GP4*%
X291110000Y-126417500D03*
%TO.P,_1,7*%
%TO.N,GP5*%
X291110000Y-128957500D03*
D21*
%TO.P,_1,8*%
%TO.N,GND*%
X291110000Y-131497500D03*
D20*
%TO.P,_1,9*%
%TO.N,GP6*%
X291110000Y-134037500D03*
%TO.P,_1,10*%
%TO.N,GP7*%
X291110000Y-136577500D03*
%TO.P,_1,11*%
%TO.N,GP8*%
X291110000Y-139117500D03*
%TO.P,_1,12*%
%TO.N,GP9*%
X291110000Y-141657500D03*
D21*
%TO.P,_1,13*%
%TO.N,GND*%
X291110000Y-144197500D03*
D20*
%TO.P,_1,14*%
%TO.N,GP10*%
X291110000Y-146737500D03*
%TO.P,_1,15*%
%TO.N,GP11*%
X291110000Y-149277500D03*
%TO.P,_1,16*%
%TO.N,GP12*%
X291110000Y-151817500D03*
%TO.P,_1,17*%
%TO.N,GP13*%
X291110000Y-154357500D03*
D21*
%TO.P,_1,18*%
%TO.N,GND*%
X291110000Y-156897500D03*
D20*
%TO.P,_1,19*%
%TO.N,GP14*%
X291110000Y-159437500D03*
%TO.P,_1,20*%
%TO.N,GP15*%
X291110000Y-161977500D03*
%TO.P,_1,21*%
%TO.N,GP16*%
X308890000Y-161977500D03*
%TO.P,_1,22*%
%TO.N,GP17*%
X308890000Y-159437500D03*
D21*
%TO.P,_1,23*%
%TO.N,GND*%
X308890000Y-156897500D03*
D20*
%TO.P,_1,24*%
%TO.N,GP18*%
X308890000Y-154357500D03*
%TO.P,_1,25*%
%TO.N,GP19*%
X308890000Y-151817500D03*
%TO.P,_1,26*%
%TO.N,GP20*%
X308890000Y-149277500D03*
%TO.P,_1,27*%
%TO.N,GP21*%
X308890000Y-146737500D03*
D21*
%TO.P,_1,28*%
%TO.N,GND*%
X308890000Y-144197500D03*
D20*
%TO.P,_1,29*%
%TO.N,GP22*%
X308890000Y-141657500D03*
%TO.P,_1,30*%
%TO.N,RUN*%
X308890000Y-139117500D03*
%TO.P,_1,31*%
%TO.N,GP26*%
X308890000Y-136577500D03*
%TO.P,_1,32*%
%TO.N,GP27*%
X308890000Y-134037500D03*
D21*
%TO.P,_1,33*%
%TO.N,AGND*%
X308890000Y-131497500D03*
D20*
%TO.P,_1,34*%
%TO.N,GP28*%
X308890000Y-128957500D03*
%TO.P,_1,35*%
%TO.N,ADC_VREF*%
X308890000Y-126417500D03*
%TO.P,_1,36*%
%TO.N,3V3*%
X308890000Y-123877500D03*
%TO.P,_1,37*%
%TO.N,3V3_EN*%
X308890000Y-121337500D03*
D21*
%TO.P,_1,38*%
%TO.N,GND*%
X308890000Y-118797500D03*
D20*
%TO.P,_1,39*%
%TO.N,VSYS*%
X308890000Y-116257500D03*
%TO.P,_1,40*%
%TO.N,VBUS*%
X308890000Y-113717500D03*
%TD*%
D10*
%TO.P,D16,1*%
%TO.N,GP20*%
X315190000Y-132110000D03*
D11*
X317350000Y-132110000D03*
%TO.P,D16,2*%
%TO.N,mirror_ring_num*%
X320650000Y-132110000D03*
D12*
X322810000Y-132110000D03*
%TD*%
D22*
%TO.P,TRRS1,2*%
%TO.N,GND*%
X255200000Y-202917500D03*
%TO.P,TRRS1,3*%
%TO.N,GP1*%
X258200000Y-202917500D03*
%TO.P,TRRS1,4*%
%TO.N,3V3*%
X262200000Y-202917500D03*
%TO.P,TRRS1,5*%
%TO.N,GP0*%
X263300000Y-198317500D03*
%TD*%
D23*
%TO.N,mirror_reachy_bottom*%
X379810000Y-204500000D02*
X377650000Y-204500000D01*
%TO.N,mirror_reachy_home*%
X379810000Y-185450000D02*
X377650000Y-185450000D01*
%TO.N,mirror_reachy_top*%
X379810000Y-166400000D02*
X377650000Y-166400000D01*
%TO.N,mirror_reachy_num*%
X379810000Y-147350000D02*
X377650000Y-147350000D01*
%TO.N,mirror_outer_bottom*%
X360810000Y-202595000D02*
X358650000Y-202595000D01*
%TO.N,mirror_outer_home*%
X360810000Y-183545000D02*
X358650000Y-183545000D01*
%TO.N,mirror_outer_top*%
X360810000Y-164495000D02*
X358650000Y-164495000D01*
%TO.N,mirror_outer_num*%
X360810000Y-145445000D02*
X358650000Y-145445000D01*
%TO.N,mirror_pinky_bottom*%
X341810000Y-198785000D02*
X339650000Y-198785000D01*
%TO.N,mirror_pinky_home*%
X341810000Y-179735000D02*
X339650000Y-179735000D01*
%TO.N,mirror_pinky_top*%
X341810000Y-160685000D02*
X339650000Y-160685000D01*
%TO.N,mirror_pinky_num*%
X341810000Y-141635000D02*
X339650000Y-141635000D01*
%TO.N,mirror_ring_bottom*%
X322810000Y-189260000D02*
X320650000Y-189260000D01*
%TO.N,mirror_ring_home*%
X322810000Y-170210000D02*
X320650000Y-170210000D01*
%TO.N,mirror_ring_top*%
X322810000Y-151160000D02*
X320650000Y-151160000D01*
%TO.N,mirror_ring_num*%
X322810000Y-132110000D02*
X320650000Y-132110000D01*
%TO.N,mirror_index_bottom*%
X284810000Y-189260000D02*
X282650000Y-189260000D01*
%TO.N,mirror_index_home*%
X282650000Y-170210000D02*
X284810000Y-170210000D01*
%TO.N,mirror_index_top*%
X284810000Y-151160000D02*
X282650000Y-151160000D01*
%TO.N,mirror_index_num*%
X284810000Y-132110000D02*
X282650000Y-132110000D01*
%TO.N,mirror_inner_bottom*%
X265810000Y-192117500D02*
X263650000Y-192117500D01*
%TO.N,mirror_inner_home*%
X265810000Y-173067500D02*
X263650000Y-173067500D01*
%TO.N,mirror_inner_top*%
X265810000Y-154017500D02*
X263650000Y-154017500D01*
%TO.N,mirror_inner_num*%
X265810000Y-134967500D02*
X263650000Y-134967500D01*
%TO.N,mirror_tuck_only*%
X292931350Y-209860116D02*
X294683454Y-209860116D01*
X294683454Y-209860116D02*
X295058535Y-209485035D01*
%TO.N,mirror_center_only*%
X273639271Y-213554516D02*
X275166620Y-213554516D01*
X273080221Y-214113566D02*
X273639271Y-213554516D01*
%TO.N,mirror_reach_only*%
X254414109Y-219342207D02*
X255705081Y-219342207D01*
X253675345Y-220080971D02*
X254414109Y-219342207D01*
%TO.N,mirror_middle_bottom*%
X295500000Y-183807500D02*
X295500000Y-181647500D01*
%TO.N,mirror_middle_home*%
X295500000Y-164757500D02*
X295500000Y-162597500D01*
%TO.N,mirror_middle_top*%
X295500000Y-145707500D02*
X295500000Y-143547500D01*
%TO.N,mirror_middle_num*%
X295500000Y-126657500D02*
X295500000Y-124497500D01*
%TO.N,GP17*%
X272990000Y-189260000D02*
X277190000Y-189260000D01*
X277190000Y-189260000D02*
X279180000Y-191250000D01*
X306616500Y-180686500D02*
X315190000Y-189260000D01*
X310041000Y-184111000D02*
X310041000Y-160588500D01*
X372190000Y-204500000D02*
X355095000Y-204500000D01*
X258190000Y-192117500D02*
X260572500Y-194500000D01*
X295500000Y-176187500D02*
X295500000Y-178347500D01*
X260572500Y-194500000D02*
X267750000Y-194500000D01*
X279350000Y-189260000D02*
X277190000Y-189260000D01*
X355350000Y-202595000D02*
X353190000Y-202595000D01*
X317350000Y-189260000D02*
X315190000Y-189260000D01*
X334190000Y-198785000D02*
X324715000Y-198785000D01*
X288750000Y-191250000D02*
X288750000Y-182937500D01*
X338000000Y-202595000D02*
X334190000Y-198785000D01*
X304421291Y-180686500D02*
X306616500Y-180686500D01*
X324715000Y-198785000D02*
X315190000Y-189260000D01*
X295500000Y-176187500D02*
X299922291Y-176187500D01*
X374350000Y-204500000D02*
X372190000Y-204500000D01*
X288750000Y-182937500D02*
X295500000Y-176187500D01*
X260350000Y-192117500D02*
X258190000Y-192117500D01*
X267750000Y-194500000D02*
X272990000Y-189260000D01*
X355095000Y-204500000D02*
X353190000Y-202595000D01*
X336350000Y-198785000D02*
X334190000Y-198785000D01*
X299922291Y-176187500D02*
X304421291Y-180686500D01*
X315190000Y-189260000D02*
X310041000Y-184111000D01*
X353190000Y-202595000D02*
X338000000Y-202595000D01*
X310041000Y-160588500D02*
X308890000Y-159437500D01*
X279180000Y-191250000D02*
X288750000Y-191250000D01*
%TO.N,GP18*%
X277190000Y-170210000D02*
X279350000Y-170210000D01*
X336350000Y-179735000D02*
X334190000Y-179735000D01*
X317350000Y-170210000D02*
X315190000Y-170210000D01*
X260350000Y-173067500D02*
X258190000Y-173067500D01*
X312718100Y-168031900D02*
X312500000Y-168250000D01*
X312718100Y-158185600D02*
X312718100Y-168031900D01*
X338000000Y-183545000D02*
X334190000Y-179735000D01*
X260622500Y-175500000D02*
X269000000Y-175500000D01*
X298280000Y-154357500D02*
X308890000Y-154357500D01*
X314460000Y-170210000D02*
X315190000Y-170210000D01*
X308890000Y-154357500D02*
X312718100Y-158185600D01*
X295500000Y-157137500D02*
X295500000Y-159297500D01*
X297000000Y-166750000D02*
X297000000Y-158637500D01*
X269000000Y-175500000D02*
X274290000Y-170210000D01*
X374350000Y-185450000D02*
X372190000Y-185450000D01*
X372190000Y-185450000D02*
X355095000Y-185450000D01*
X286750000Y-172250000D02*
X292250000Y-166750000D01*
X327289000Y-172834000D02*
X317814000Y-172834000D01*
X292250000Y-166750000D02*
X297000000Y-166750000D01*
X312500000Y-168250000D02*
X314460000Y-170210000D01*
X258190000Y-173067500D02*
X260622500Y-175500000D01*
X334190000Y-179735000D02*
X327289000Y-172834000D01*
X355095000Y-185450000D02*
X353190000Y-183545000D01*
X295500000Y-157137500D02*
X298280000Y-154357500D01*
X297000000Y-158637500D02*
X295500000Y-157137500D01*
X277190000Y-170210000D02*
X279230000Y-172250000D01*
X279230000Y-172250000D02*
X286750000Y-172250000D01*
X355350000Y-183545000D02*
X353190000Y-183545000D01*
X274290000Y-170210000D02*
X277190000Y-170210000D01*
X353190000Y-183545000D02*
X338000000Y-183545000D01*
X317814000Y-172834000D02*
X315190000Y-170210000D01*
%TO.N,GP19*%
X279934900Y-144315100D02*
X277190000Y-147060000D01*
X338000000Y-164495000D02*
X334190000Y-160685000D01*
X290533757Y-140506500D02*
X286725157Y-144315100D01*
X355095000Y-166400000D02*
X353190000Y-164495000D01*
X259250000Y-152000000D02*
X259250000Y-152957500D01*
X334190000Y-160685000D02*
X324715000Y-160685000D01*
X299506189Y-138087500D02*
X295500000Y-138087500D01*
X336350000Y-160685000D02*
X334190000Y-160685000D01*
X295500000Y-138087500D02*
X293081000Y-140506500D01*
X259250000Y-152957500D02*
X258190000Y-154017500D01*
X295500000Y-138087500D02*
X295500000Y-140247500D01*
X306931000Y-143431000D02*
X305250000Y-141750000D01*
X277190000Y-147060000D02*
X277190000Y-151160000D01*
X293081000Y-140506500D02*
X290533757Y-140506500D01*
X315190000Y-151160000D02*
X309547500Y-151160000D01*
X324715000Y-160685000D02*
X315190000Y-151160000D01*
X353190000Y-164495000D02*
X338000000Y-164495000D01*
X277190000Y-151160000D02*
X276350000Y-152000000D01*
X260350000Y-154017500D02*
X258190000Y-154017500D01*
X303168689Y-141750000D02*
X299506189Y-138087500D01*
X276350000Y-152000000D02*
X259250000Y-152000000D01*
X286725157Y-144315100D02*
X279934900Y-144315100D01*
X372190000Y-166400000D02*
X355095000Y-166400000D01*
X306931000Y-149858500D02*
X306931000Y-143431000D01*
X355350000Y-164495000D02*
X353190000Y-164495000D01*
X309547500Y-151160000D02*
X308890000Y-151817500D01*
X279350000Y-151160000D02*
X277190000Y-151160000D01*
X374350000Y-166400000D02*
X372190000Y-166400000D01*
X308890000Y-151817500D02*
X306931000Y-149858500D01*
X305250000Y-141750000D02*
X303168689Y-141750000D01*
X317350000Y-151160000D02*
X315190000Y-151160000D01*
%TO.N,GP20*%
X260722500Y-137500000D02*
X272000000Y-137500000D01*
X312111500Y-135188500D02*
X315190000Y-132110000D01*
X277190000Y-132110000D02*
X279080000Y-134000000D01*
X338000000Y-145445000D02*
X334190000Y-141635000D01*
X324715000Y-141635000D02*
X315190000Y-132110000D01*
X308890000Y-149277500D02*
X313339000Y-144828500D01*
X355350000Y-145445000D02*
X353190000Y-145445000D01*
X297688500Y-135188500D02*
X312111500Y-135188500D01*
X272000000Y-137300000D02*
X277190000Y-132110000D01*
X296500000Y-134000000D02*
X297688500Y-135188500D01*
X313339000Y-144828500D02*
X313339000Y-133961000D01*
X279080000Y-134000000D02*
X281250000Y-134000000D01*
X295500000Y-119037500D02*
X296753500Y-120291000D01*
X295500000Y-119037500D02*
X295500000Y-121197500D01*
X317350000Y-132110000D02*
X315190000Y-132110000D01*
X374350000Y-147350000D02*
X372190000Y-147350000D01*
X336350000Y-141635000D02*
X334190000Y-141635000D01*
X282438500Y-135188500D02*
X293811500Y-135188500D01*
X334190000Y-141635000D02*
X324715000Y-141635000D01*
X279350000Y-132110000D02*
X277190000Y-132110000D01*
X293811500Y-135188500D02*
X294500000Y-134500000D01*
X281250000Y-134000000D02*
X282438500Y-135188500D01*
X294246500Y-120291000D02*
X295500000Y-119037500D01*
X296753500Y-120291000D02*
X296753500Y-133746500D01*
X258190000Y-134967500D02*
X260722500Y-137500000D01*
X296753500Y-133746500D02*
X296500000Y-134000000D01*
X260350000Y-134967500D02*
X258190000Y-134967500D01*
X353190000Y-145445000D02*
X338000000Y-145445000D01*
X313339000Y-133961000D02*
X315190000Y-132110000D01*
X272000000Y-137500000D02*
X272000000Y-137300000D01*
X372190000Y-147350000D02*
X355095000Y-147350000D01*
X294500000Y-134500000D02*
X294246500Y-134246500D01*
X294246500Y-134246500D02*
X294246500Y-120291000D01*
X355095000Y-147350000D02*
X353190000Y-145445000D01*
%TO.N,GP16*%
X281070257Y-188070000D02*
X288640257Y-180500000D01*
X269333615Y-215526718D02*
X269892665Y-214967668D01*
X290000000Y-180500000D02*
X290000000Y-179307500D01*
X267806266Y-215526718D02*
X269333615Y-215526718D01*
X273430000Y-188070000D02*
X281070257Y-188070000D01*
X248544623Y-221948401D02*
X249283387Y-221209637D01*
X288640257Y-180500000D02*
X290000000Y-180500000D01*
X287554299Y-210808235D02*
X284058235Y-210808235D01*
X261384583Y-221948401D02*
X248544623Y-221948401D01*
X257000000Y-190927500D02*
X263177500Y-190927500D01*
X306500000Y-172750000D02*
X308890000Y-170360000D01*
X267916100Y-194901000D02*
X258593500Y-194901000D01*
X257000000Y-193307500D02*
X257000000Y-190927500D01*
X282835816Y-215526718D02*
X267806266Y-215526718D01*
X287554299Y-210808235D02*
X282835816Y-215526718D01*
X263177500Y-190927500D02*
X263250000Y-191000000D01*
X308890000Y-170360000D02*
X308890000Y-161977500D01*
X267806266Y-215526718D02*
X261384583Y-221948401D01*
X265391000Y-188859000D02*
X266859000Y-188859000D01*
X249283387Y-221209637D02*
X250574359Y-221209637D01*
X268033550Y-194783550D02*
X267916100Y-194901000D01*
X266859000Y-188859000D02*
X269750000Y-191750000D01*
X258593500Y-194901000D02*
X257000000Y-193307500D01*
X289681484Y-210433154D02*
X287929380Y-210433154D01*
X287929380Y-210433154D02*
X287554299Y-210808235D01*
X296557500Y-172750000D02*
X306500000Y-172750000D01*
X263250000Y-191000000D02*
X265391000Y-188859000D01*
X269750000Y-191750000D02*
X273430000Y-188070000D01*
X284058235Y-210808235D02*
X268033550Y-194783550D01*
X290000000Y-179307500D02*
X296557500Y-172750000D01*
%TO.N,3V3*%
X251977000Y-122090100D02*
X253622600Y-120444500D01*
X270390042Y-120444500D02*
X271901000Y-118933542D01*
X304391000Y-118270791D02*
X304391000Y-119378500D01*
X299500000Y-116565600D02*
X302685809Y-116565600D01*
X298934400Y-116000000D02*
X299500000Y-116565600D01*
X251977000Y-191500000D02*
X251977000Y-193461900D01*
X291495260Y-117500000D02*
X292500000Y-116495260D01*
X271901000Y-118933542D02*
X271901000Y-117666100D01*
X252499000Y-200161451D02*
X252499000Y-202640649D01*
X290105500Y-117500000D02*
X291495260Y-117500000D01*
X289939400Y-117666100D02*
X290105500Y-117500000D01*
X292500000Y-116000000D02*
X298934400Y-116000000D01*
X254277851Y-204419500D02*
X260698000Y-204419500D01*
X252499000Y-202640649D02*
X254277851Y-204419500D01*
X304391000Y-119378500D02*
X308890000Y-123877500D01*
X254349000Y-195833900D02*
X254349000Y-198311451D01*
X251977000Y-191500000D02*
X251977000Y-122090100D01*
X251977000Y-193461900D02*
X254349000Y-195833900D01*
X292500000Y-116495260D02*
X292500000Y-116000000D01*
X260698000Y-204419500D02*
X262200000Y-202917500D01*
X302685809Y-116565600D02*
X304391000Y-118270791D01*
X253622600Y-120444500D02*
X270390042Y-120444500D01*
X271901000Y-117666100D02*
X289939400Y-117666100D01*
X254349000Y-198311451D02*
X252499000Y-200161451D01*
%TO.N,GP0*%
X262154049Y-204820500D02*
X263601000Y-203373549D01*
X289750000Y-115077500D02*
X291110000Y-113717500D01*
X252000000Y-199750000D02*
X252000000Y-202708749D01*
X271383721Y-117616279D02*
X271383721Y-118883721D01*
X271803067Y-117196933D02*
X271383721Y-117616279D01*
X288500000Y-117250000D02*
X289750000Y-116000000D01*
X276989067Y-117196933D02*
X277000000Y-117186000D01*
X271803067Y-117196933D02*
X276989067Y-117196933D01*
X270223942Y-120043500D02*
X253456500Y-120043500D01*
X253456500Y-120043500D02*
X251576000Y-121924000D01*
X251576000Y-121924000D02*
X251576000Y-193628000D01*
X271383721Y-118883721D02*
X270223942Y-120043500D01*
X254111751Y-204820500D02*
X262154049Y-204820500D01*
X263601000Y-203373549D02*
X263601000Y-198618500D01*
X277064000Y-117250000D02*
X288500000Y-117250000D01*
X289750000Y-116000000D02*
X289750000Y-115077500D01*
X277000000Y-117186000D02*
X277064000Y-117250000D01*
X253948000Y-197802000D02*
X252000000Y-199750000D01*
X251576000Y-193628000D02*
X253948000Y-196000000D01*
X252000000Y-202708749D02*
X254111751Y-204820500D01*
X253948000Y-196000000D02*
X253948000Y-197802000D01*
X263601000Y-198618500D02*
X263300000Y-198317500D01*
%TO.N,GP1*%
X270556142Y-120845500D02*
X272302000Y-119099642D01*
X257099000Y-204018500D02*
X254443951Y-204018500D01*
X253788700Y-120845500D02*
X270556142Y-120845500D01*
X254750000Y-195500000D02*
X252378000Y-193128000D01*
X287750000Y-118067100D02*
X289631400Y-119948500D01*
X254750000Y-201510450D02*
X254750000Y-195500000D01*
X302094809Y-115407500D02*
X291960000Y-115407500D01*
X254630225Y-201630225D02*
X254750000Y-201510451D01*
X310041000Y-120860740D02*
X309128760Y-119948500D01*
X291960000Y-115407500D02*
X291110000Y-116257500D01*
X253799000Y-202461451D02*
X254630225Y-201630225D01*
X293000000Y-119157500D02*
X294657500Y-117500000D01*
X289631400Y-119948500D02*
X292801500Y-119948500D01*
X253799000Y-203373549D02*
X253799000Y-202461451D01*
X309128760Y-119948500D02*
X306635809Y-119948500D01*
X306921240Y-123536500D02*
X308413240Y-125028500D01*
X272302000Y-119099642D02*
X272302000Y-118067100D01*
X309366760Y-125028500D02*
X310041000Y-124354260D01*
X304005189Y-123536500D02*
X306921240Y-123536500D01*
X254443951Y-204018500D02*
X253799000Y-203373549D01*
X293000000Y-119750000D02*
X293000000Y-119157500D01*
X297968689Y-117500000D02*
X304005189Y-123536500D01*
X258200000Y-202917500D02*
X257099000Y-204018500D01*
X308413240Y-125028500D02*
X309366760Y-125028500D01*
X252378000Y-193128000D02*
X252378000Y-122256200D01*
X272302000Y-118067100D02*
X287750000Y-118067100D01*
X294657500Y-117500000D02*
X297968689Y-117500000D01*
X252378000Y-122256200D02*
X253788700Y-120845500D01*
X310041000Y-124354260D02*
X310041000Y-120860740D01*
X306635809Y-119948500D02*
X302094809Y-115407500D01*
X254630225Y-201630225D02*
X254750000Y-201510450D01*
X292801500Y-119948500D02*
X293000000Y-119750000D01*
%TO.N,GND*%
X290469000Y-130856500D02*
X291110000Y-131497500D01*
X255200000Y-202917500D02*
X255200000Y-192160400D01*
X307739000Y-158048500D02*
X308890000Y-156897500D01*
X270250000Y-186750000D02*
X275693811Y-186750000D01*
X307739000Y-163610000D02*
X307739000Y-158048500D01*
X275693811Y-186750000D02*
X280443811Y-182000000D01*
X269915600Y-186415600D02*
X270250000Y-186750000D01*
X299000000Y-172349000D02*
X307739000Y-163610000D01*
X285750000Y-182000000D02*
X295401000Y-172349000D01*
X266582157Y-186415600D02*
X269915600Y-186415600D01*
X257360400Y-190000000D02*
X262997757Y-190000000D01*
X280443811Y-182000000D02*
X285750000Y-182000000D01*
X255200000Y-192160400D02*
X257360400Y-190000000D01*
X295401000Y-172349000D02*
X299000000Y-172349000D01*
X262997757Y-190000000D02*
X266582157Y-186415600D01*
%TD*%
M02*
