M48
; DRILL file {KiCad 9.0.3-1.fc42} date 2025-08-21T15:20:00+0200
; FORMAT={-:-/ absolute / metric / decimal}
; #@! TF.CreationDate,2025-08-21T15:20:00+02:00
; #@! TF.GenerationSoftware,Kicad,Pcbnew,9.0.3-1.fc42
; #@! TF.FileFunction,NonPlated,1,2,NPTH
FMAT,2
METRIC
; #@! TA.AperFunction,NonPlated,NPTH,ComponentDrill
T1C1.500
; #@! TA.AperFunction,NonPlated,NPTH,ComponentDrill
T2C1.702
; #@! TA.AperFunction,NonPlated,NPTH,ComponentDrill
T3C3.000
; #@! TA.AperFunction,NonPlated,NPTH,ComponentDrill
T4C3.988
; #@! TA.AperFunction,NonPlated,NPTH,ComponentDrill
T5C4.000
%
G90
G05
T1
X253.6Y-200.617
X260.6Y-200.617
T2
X245.812Y-218.154
X255.359Y-214.679
X256.92Y-130.468
X256.92Y-149.517
X256.92Y-168.567
X256.92Y-187.617
X265.415Y-211.509
X267.08Y-130.468
X267.08Y-149.517
X267.08Y-168.567
X267.08Y-187.617
X275.229Y-208.879
X275.92Y-127.61
X275.92Y-146.66
X275.92Y-165.71
X275.92Y-184.76
X285.522Y-206.597
X286.08Y-127.61
X286.08Y-146.66
X286.08Y-165.71
X286.08Y-184.76
X295.528Y-204.833
X300.0Y-117.767
X300.0Y-127.927
X300.0Y-136.817
X300.0Y-146.977
X300.0Y-155.868
X300.0Y-166.028
X300.0Y-174.917
X300.0Y-185.077
X313.92Y-127.61
X313.92Y-146.66
X313.92Y-165.71
X313.92Y-184.76
X324.08Y-127.61
X324.08Y-146.66
X324.08Y-165.71
X324.08Y-184.76
X332.92Y-137.135
X332.92Y-156.185
X332.92Y-175.235
X332.92Y-194.285
X343.08Y-137.135
X343.08Y-156.185
X343.08Y-175.235
X343.08Y-194.285
X351.92Y-140.945
X351.92Y-159.995
X351.92Y-179.045
X351.92Y-198.095
X362.08Y-140.945
X362.08Y-159.995
X362.08Y-179.045
X362.08Y-198.095
X370.92Y-142.85
X370.92Y-161.9
X370.92Y-180.95
X370.92Y-200.0
X381.08Y-142.85
X381.08Y-161.9
X381.08Y-180.95
X381.08Y-200.0
T3
X246.137Y-215.333
X251.235Y-210.774
X258.19Y-127.927
X258.19Y-146.977
X258.19Y-166.028
X258.19Y-185.077
X264.54Y-125.387
X264.54Y-144.438
X264.54Y-163.487
X264.54Y-182.537
X265.984Y-208.727
X271.46Y-204.63
X277.19Y-125.07
X277.19Y-144.12
X277.19Y-163.17
X277.19Y-182.22
X283.54Y-122.53
X283.54Y-141.58
X283.54Y-160.63
X283.54Y-179.68
X286.332Y-203.875
X292.144Y-200.271
X302.54Y-119.037
X302.54Y-138.088
X302.54Y-157.137
X302.54Y-176.188
X305.08Y-125.387
X305.08Y-144.438
X305.08Y-163.487
X305.08Y-182.537
X315.19Y-125.07
X315.19Y-144.12
X315.19Y-163.17
X315.19Y-182.22
X321.54Y-122.53
X321.54Y-141.58
X321.54Y-160.63
X321.54Y-179.68
X334.19Y-134.595
X334.19Y-153.645
X334.19Y-172.695
X334.19Y-191.745
X340.54Y-132.055
X340.54Y-151.105
X340.54Y-170.155
X340.54Y-189.205
X353.19Y-138.405
X353.19Y-157.455
X353.19Y-176.505
X353.19Y-195.555
X359.54Y-135.865
X359.54Y-154.915
X359.54Y-173.965
X359.54Y-193.015
X372.19Y-140.31
X372.19Y-159.36
X372.19Y-178.41
X372.19Y-197.46
X378.54Y-137.77
X378.54Y-156.82
X378.54Y-175.87
X378.54Y-194.92
T4
X250.586Y-216.417
X262.0Y-130.468
X262.0Y-149.517
X262.0Y-168.567
X262.0Y-187.617
X270.322Y-210.194
X281.0Y-127.61
X281.0Y-146.66
X281.0Y-165.71
X281.0Y-184.76
X290.525Y-205.715
X300.0Y-122.847
X300.0Y-141.897
X300.0Y-160.947
X300.0Y-179.998
X319.0Y-127.61
X319.0Y-146.66
X319.0Y-165.71
X319.0Y-184.76
X338.0Y-137.135
X338.0Y-156.185
X338.0Y-175.235
X338.0Y-194.285
X357.0Y-140.945
X357.0Y-159.995
X357.0Y-179.045
X357.0Y-198.095
X376.0Y-142.85
X376.0Y-161.9
X376.0Y-180.95
X376.0Y-200.0
T5
X260.839Y-216.739
X281.0Y-137.135
X281.0Y-175.235
X319.0Y-175.235
X376.0Y-152.375
X376.0Y-190.475
M30
