%TF.GenerationSoftware,KiCad,Pcbnew,9.0.3-1.fc42*%
%TF.CreationDate,2025-08-21T15:19:56+02:00*%
%TF.ProjectId,right,72696768-742e-46b6-9963-61645f706362,v1.0.0*%
%TF.SameCoordinates,Original*%
%TF.FileFunction,Paste,Top*%
%TF.FilePolarity,Positive*%
%FSLAX46Y46*%
G04 Gerber Fmt 4.6, Leading zero omitted, Abs format (unit mm)*
G04 Created by KiCad (PCBNEW 9.0.3-1.fc42) date 2025-08-21 15:19:56*
%MOMM*%
%LPD*%
G01*
G04 APERTURE LIST*
G04 Aperture macros list*
%AMRotRect*
0 Rectangle, with rotation*
0 The origin of the aperture is its center*
0 $1 length*
0 $2 width*
0 $3 Rotation angle, in degrees counterclockwise*
0 Add horizontal line*
21,1,$1,$2,0,0,$3*%
G04 Aperture macros list end*
%ADD10R,0.900000X1.200000*%
%ADD11RotRect,0.900000X1.200000X10.000000*%
%ADD12RotRect,0.900000X1.200000X15.000000*%
%ADD13R,1.200000X0.900000*%
%ADD14RotRect,0.900000X1.200000X20.000000*%
G04 APERTURE END LIST*
D10*
%TO.C,D17*%
X279350000Y-189260000D03*
X282650000Y-189260000D03*
%TD*%
D11*
%TO.C,D25*%
X289681484Y-210433154D03*
X292931350Y-209860116D03*
%TD*%
D12*
%TO.C,D26*%
X269892665Y-214967667D03*
X273080221Y-214113567D03*
%TD*%
D10*
%TO.C,D24*%
X260350000Y-134967500D03*
X263650000Y-134967500D03*
%TD*%
%TO.C,D9*%
X336350000Y-198785000D03*
X339650000Y-198785000D03*
%TD*%
%TO.C,D11*%
X336350000Y-160685000D03*
X339650000Y-160685000D03*
%TD*%
%TO.C,D2*%
X374350000Y-185450000D03*
X377650000Y-185450000D03*
%TD*%
%TO.C,D23*%
X260350000Y-154017500D03*
X263650000Y-154017500D03*
%TD*%
D13*
%TO.C,D28*%
X295500000Y-178347500D03*
X295500000Y-181647500D03*
%TD*%
D10*
%TO.C,D6*%
X355350000Y-183545000D03*
X358650000Y-183545000D03*
%TD*%
D13*
%TO.C,D30*%
X295500000Y-140247500D03*
X295500000Y-143547500D03*
%TD*%
D10*
%TO.C,D8*%
X355350000Y-145445000D03*
X358650000Y-145445000D03*
%TD*%
%TO.C,D3*%
X374350000Y-166400000D03*
X377650000Y-166400000D03*
%TD*%
%TO.C,D22*%
X260350000Y-173067500D03*
X263650000Y-173067500D03*
%TD*%
D13*
%TO.C,D31*%
X295500000Y-121197500D03*
X295500000Y-124497500D03*
%TD*%
D10*
%TO.C,D20*%
X279350000Y-132110000D03*
X282650000Y-132110000D03*
%TD*%
%TO.C,D10*%
X336350000Y-179735000D03*
X339650000Y-179735000D03*
%TD*%
D13*
%TO.C,D29*%
X295500000Y-159297500D03*
X295500000Y-162597500D03*
%TD*%
D10*
%TO.C,D13*%
X317350000Y-189260000D03*
X320650000Y-189260000D03*
%TD*%
%TO.C,D18*%
X279350000Y-170210000D03*
X282650000Y-170210000D03*
%TD*%
%TO.C,D12*%
X336350000Y-141635000D03*
X339650000Y-141635000D03*
%TD*%
%TO.C,D21*%
X260350000Y-192117500D03*
X263650000Y-192117500D03*
%TD*%
%TO.C,D14*%
X317350000Y-170210000D03*
X320650000Y-170210000D03*
%TD*%
%TO.C,D19*%
X279350000Y-151160000D03*
X282650000Y-151160000D03*
%TD*%
%TO.C,D7*%
X355350000Y-164495000D03*
X358650000Y-164495000D03*
%TD*%
%TO.C,D5*%
X355350000Y-202595000D03*
X358650000Y-202595000D03*
%TD*%
%TO.C,D15*%
X317350000Y-151160000D03*
X320650000Y-151160000D03*
%TD*%
%TO.C,D1*%
X374350000Y-204500000D03*
X377650000Y-204500000D03*
%TD*%
%TO.C,D4*%
X374350000Y-147350000D03*
X377650000Y-147350000D03*
%TD*%
D14*
%TO.C,D27*%
X250574359Y-221209637D03*
X253675345Y-220080971D03*
%TD*%
D10*
%TO.C,D16*%
X317350000Y-132110000D03*
X320650000Y-132110000D03*
%TD*%
M02*
