%TF.GenerationSoftware,KiCad,Pcbnew,9.0.3-1.fc42*%
%TF.CreationDate,2025-08-21T15:19:56+02:00*%
%TF.ProjectId,right,72696768-742e-46b6-9963-61645f706362,v1.0.0*%
%TF.SameCoordinates,Original*%
%TF.FileFunction,Copper,L2,Bot*%
%TF.FilePolarity,Positive*%
%FSLAX46Y46*%
G04 Gerber Fmt 4.6, Leading zero omitted, Abs format (unit mm)*
G04 Created by KiCad (PCBNEW 9.0.3-1.fc42) date 2025-08-21 15:19:56*
%MOMM*%
%LPD*%
G01*
G04 APERTURE LIST*
G04 Aperture macros list*
%AMRotRect*
0 Rectangle, with rotation*
0 The origin of the aperture is its center*
0 $1 length*
0 $2 width*
0 $3 Rotation angle, in degrees counterclockwise*
0 Add horizontal line*
21,1,$1,$2,0,0,$3*%
G04 Aperture macros list end*
%TA.AperFunction,ComponentPad*%
%ADD10R,1.778000X1.778000*%
%TD*%
%TA.AperFunction,SMDPad,CuDef*%
%ADD11R,0.900000X1.200000*%
%TD*%
%TA.AperFunction,ComponentPad*%
%ADD12C,1.905000*%
%TD*%
%TA.AperFunction,SMDPad,CuDef*%
%ADD13R,2.500000X2.550000*%
%TD*%
%TA.AperFunction,ComponentPad*%
%ADD14RotRect,1.778000X1.778000X10.000000*%
%TD*%
%TA.AperFunction,SMDPad,CuDef*%
%ADD15RotRect,0.900000X1.200000X10.000000*%
%TD*%
%TA.AperFunction,SMDPad,CuDef*%
%ADD16R,2.550000X2.500000*%
%TD*%
%TA.AperFunction,SMDPad,CuDef*%
%ADD17RotRect,2.550000X2.500000X10.000000*%
%TD*%
%TA.AperFunction,ComponentPad*%
%ADD18RotRect,1.778000X1.778000X15.000000*%
%TD*%
%TA.AperFunction,SMDPad,CuDef*%
%ADD19RotRect,0.900000X1.200000X15.000000*%
%TD*%
%TA.AperFunction,SMDPad,CuDef*%
%ADD20R,1.200000X0.900000*%
%TD*%
%TA.AperFunction,SMDPad,CuDef*%
%ADD21RotRect,2.550000X2.500000X20.000000*%
%TD*%
%TA.AperFunction,SMDPad,CuDef*%
%ADD22RotRect,2.550000X2.500000X15.000000*%
%TD*%
%TA.AperFunction,ComponentPad*%
%ADD23RotRect,1.778000X1.778000X20.000000*%
%TD*%
%TA.AperFunction,SMDPad,CuDef*%
%ADD24RotRect,0.900000X1.200000X20.000000*%
%TD*%
%TA.AperFunction,ComponentPad*%
%ADD25O,1.700000X1.700000*%
%TD*%
%TA.AperFunction,ComponentPad*%
%ADD26R,1.700000X1.700000*%
%TD*%
%TA.AperFunction,ComponentPad*%
%ADD27O,2.200000X1.600000*%
%TD*%
%TA.AperFunction,Conductor*%
%ADD28C,0.200000*%
%TD*%
G04 APERTURE END LIST*
D10*
%TO.P,D17,1*%
%TO.N,GP17*%
X277190000Y-189260000D03*
D11*
X279350000Y-189260000D03*
%TO.P,D17,2*%
%TO.N,mirror_index_bottom*%
X282650000Y-189260000D03*
D12*
X284810000Y-189260000D03*
%TD*%
D13*
%TO.P,S28,1*%
%TO.N,GP8*%
X302540000Y-172912500D03*
%TO.P,S28,2*%
%TO.N,mirror_middle_bottom*%
X305080000Y-185839500D03*
%TD*%
D14*
%TO.P,D25,1*%
%TO.N,GP16*%
X287554297Y-210808235D03*
D15*
X289681484Y-210433154D03*
%TO.P,D25,2*%
%TO.N,mirror_tuck_only*%
X292931350Y-209860116D03*
D12*
X295058537Y-209485035D03*
%TD*%
D16*
%TO.P,S9,1*%
%TO.N,GP10*%
X330915000Y-191745000D03*
%TO.P,S9,2*%
%TO.N,mirror_pinky_bottom*%
X343842000Y-189205000D03*
%TD*%
D17*
%TO.P,S25,1*%
%TO.N,GP8*%
X283106571Y-204443886D03*
%TO.P,S25,2*%
%TO.N,mirror_tuck_only*%
X295396114Y-199697724D03*
%TD*%
D18*
%TO.P,D26,1*%
%TO.N,GP16*%
X267806266Y-215526719D03*
D19*
X269892665Y-214967667D03*
%TO.P,D26,2*%
%TO.N,mirror_center_only*%
X273080221Y-214113567D03*
D12*
X275166620Y-213554515D03*
%TD*%
D10*
%TO.P,D24,1*%
%TO.N,GP20*%
X258190000Y-134967500D03*
D11*
X260350000Y-134967500D03*
%TO.P,D24,2*%
%TO.N,mirror_inner_num*%
X263650000Y-134967500D03*
D12*
X265810000Y-134967500D03*
%TD*%
D10*
%TO.P,D9,1*%
%TO.N,GP17*%
X334190000Y-198785000D03*
D11*
X336350000Y-198785000D03*
%TO.P,D9,2*%
%TO.N,mirror_pinky_bottom*%
X339650000Y-198785000D03*
D12*
X341810000Y-198785000D03*
%TD*%
D10*
%TO.P,D11,1*%
%TO.N,GP19*%
X334190000Y-160685000D03*
D11*
X336350000Y-160685000D03*
%TO.P,D11,2*%
%TO.N,mirror_pinky_top*%
X339650000Y-160685000D03*
D12*
X341810000Y-160685000D03*
%TD*%
D10*
%TO.P,D2,1*%
%TO.N,GP18*%
X372190000Y-185450000D03*
D11*
X374350000Y-185450000D03*
%TO.P,D2,2*%
%TO.N,mirror_reachy_home*%
X377650000Y-185450000D03*
D12*
X379810000Y-185450000D03*
%TD*%
D10*
%TO.P,D23,1*%
%TO.N,GP19*%
X258190000Y-154017500D03*
D11*
X260350000Y-154017500D03*
%TO.P,D23,2*%
%TO.N,mirror_inner_top*%
X263650000Y-154017500D03*
D12*
X265810000Y-154017500D03*
%TD*%
D16*
%TO.P,S15,1*%
%TO.N,GP9*%
X311915000Y-144120000D03*
%TO.P,S15,2*%
%TO.N,mirror_ring_top*%
X324842000Y-141580000D03*
%TD*%
%TO.P,S7,1*%
%TO.N,GP11*%
X349915000Y-157455000D03*
%TO.P,S7,2*%
%TO.N,mirror_outer_top*%
X362842000Y-154915000D03*
%TD*%
D10*
%TO.P,D28,1*%
%TO.N,GP17*%
X295500000Y-176187500D03*
D20*
X295500000Y-178347500D03*
%TO.P,D28,2*%
%TO.N,mirror_middle_bottom*%
X295500000Y-181647500D03*
D12*
X295500000Y-183807500D03*
%TD*%
D10*
%TO.P,D6,1*%
%TO.N,GP18*%
X353190000Y-183545000D03*
D11*
X355350000Y-183545000D03*
%TO.P,D6,2*%
%TO.N,mirror_outer_home*%
X358650000Y-183545000D03*
D12*
X360810000Y-183545000D03*
%TD*%
D16*
%TO.P,S24,1*%
%TO.N,GP6*%
X254915000Y-127927500D03*
%TO.P,S24,2*%
%TO.N,mirror_inner_num*%
X267842000Y-125387500D03*
%TD*%
%TO.P,S16,1*%
%TO.N,GP9*%
X311915000Y-125070000D03*
%TO.P,S16,2*%
%TO.N,mirror_ring_num*%
X324842000Y-122530000D03*
%TD*%
%TO.P,S23,1*%
%TO.N,GP6*%
X254915000Y-146977500D03*
%TO.P,S23,2*%
%TO.N,mirror_inner_top*%
X267842000Y-144437500D03*
%TD*%
D10*
%TO.P,D30,1*%
%TO.N,GP19*%
X295500000Y-138087500D03*
D20*
X295500000Y-140247500D03*
%TO.P,D30,2*%
%TO.N,mirror_middle_top*%
X295500000Y-143547500D03*
D12*
X295500000Y-145707500D03*
%TD*%
D16*
%TO.P,S2,1*%
%TO.N,GP12*%
X368915000Y-178410000D03*
%TO.P,S2,2*%
%TO.N,mirror_reachy_home*%
X381842000Y-175870000D03*
%TD*%
D10*
%TO.P,D8,1*%
%TO.N,GP20*%
X353190000Y-145445000D03*
D11*
X355350000Y-145445000D03*
%TO.P,D8,2*%
%TO.N,mirror_outer_num*%
X358650000Y-145445000D03*
D12*
X360810000Y-145445000D03*
%TD*%
D16*
%TO.P,S14,1*%
%TO.N,GP9*%
X311915000Y-163170000D03*
%TO.P,S14,2*%
%TO.N,mirror_ring_home*%
X324842000Y-160630000D03*
%TD*%
D10*
%TO.P,D3,1*%
%TO.N,GP19*%
X372190000Y-166400000D03*
D11*
X374350000Y-166400000D03*
%TO.P,D3,2*%
%TO.N,mirror_reachy_top*%
X377650000Y-166400000D03*
D12*
X379810000Y-166400000D03*
%TD*%
D16*
%TO.P,S1,1*%
%TO.N,GP12*%
X368915000Y-197460000D03*
%TO.P,S1,2*%
%TO.N,mirror_reachy_bottom*%
X381842000Y-194920000D03*
%TD*%
D10*
%TO.P,D22,1*%
%TO.N,GP18*%
X258190000Y-173067500D03*
D11*
X260350000Y-173067500D03*
%TO.P,D22,2*%
%TO.N,mirror_inner_home*%
X263650000Y-173067500D03*
D12*
X265810000Y-173067500D03*
%TD*%
D10*
%TO.P,D31,1*%
%TO.N,GP20*%
X295500000Y-119037500D03*
D20*
X295500000Y-121197500D03*
%TO.P,D31,2*%
%TO.N,mirror_middle_num*%
X295500000Y-124497500D03*
D12*
X295500000Y-126657500D03*
%TD*%
D10*
%TO.P,D20,1*%
%TO.N,GP20*%
X277190000Y-132110000D03*
D11*
X279350000Y-132110000D03*
%TO.P,D20,2*%
%TO.N,mirror_index_num*%
X282650000Y-132110000D03*
D12*
X284810000Y-132110000D03*
%TD*%
D16*
%TO.P,S18,1*%
%TO.N,GP7*%
X273915000Y-163170000D03*
%TO.P,S18,2*%
%TO.N,mirror_index_home*%
X286842000Y-160630000D03*
%TD*%
%TO.P,S13,1*%
%TO.N,GP9*%
X311915000Y-182220000D03*
%TO.P,S13,2*%
%TO.N,mirror_ring_bottom*%
X324842000Y-179680000D03*
%TD*%
%TO.P,S5,1*%
%TO.N,GP11*%
X349915000Y-195555000D03*
%TO.P,S5,2*%
%TO.N,mirror_outer_bottom*%
X362842000Y-193015000D03*
%TD*%
D10*
%TO.P,D10,1*%
%TO.N,GP18*%
X334190000Y-179735000D03*
D11*
X336350000Y-179735000D03*
%TO.P,D10,2*%
%TO.N,mirror_pinky_home*%
X339650000Y-179735000D03*
D12*
X341810000Y-179735000D03*
%TD*%
D16*
%TO.P,S20,1*%
%TO.N,GP7*%
X273915000Y-125070000D03*
%TO.P,S20,2*%
%TO.N,mirror_index_num*%
X286842000Y-122530000D03*
%TD*%
D13*
%TO.P,S31,1*%
%TO.N,GP8*%
X302540000Y-115762500D03*
%TO.P,S31,2*%
%TO.N,mirror_middle_num*%
X305080000Y-128689500D03*
%TD*%
D10*
%TO.P,D29,1*%
%TO.N,GP18*%
X295500000Y-157137500D03*
D20*
X295500000Y-159297500D03*
%TO.P,D29,2*%
%TO.N,mirror_middle_home*%
X295500000Y-162597500D03*
D12*
X295500000Y-164757500D03*
%TD*%
D21*
%TO.P,S27,1*%
%TO.N,GP6*%
X243059309Y-216453080D03*
%TO.P,S27,2*%
%TO.N,mirror_reach_only*%
X254337983Y-209644967D03*
%TD*%
D10*
%TO.P,D13,1*%
%TO.N,GP17*%
X315190000Y-189260000D03*
D11*
X317350000Y-189260000D03*
%TO.P,D13,2*%
%TO.N,mirror_ring_bottom*%
X320650000Y-189260000D03*
D12*
X322810000Y-189260000D03*
%TD*%
D16*
%TO.P,S3,1*%
%TO.N,GP12*%
X368915000Y-159360000D03*
%TO.P,S3,2*%
%TO.N,mirror_reachy_top*%
X381842000Y-156820000D03*
%TD*%
%TO.P,S11,1*%
%TO.N,GP10*%
X330915000Y-153645000D03*
%TO.P,S11,2*%
%TO.N,mirror_pinky_top*%
X343842000Y-151105000D03*
%TD*%
%TO.P,S10,1*%
%TO.N,GP10*%
X330915000Y-172695000D03*
%TO.P,S10,2*%
%TO.N,mirror_pinky_home*%
X343842000Y-170155000D03*
%TD*%
D10*
%TO.P,D18,1*%
%TO.N,GP18*%
X277190000Y-170210000D03*
D11*
X279350000Y-170210000D03*
%TO.P,D18,2*%
%TO.N,mirror_index_home*%
X282650000Y-170210000D03*
D12*
X284810000Y-170210000D03*
%TD*%
D16*
%TO.P,S21,1*%
%TO.N,GP6*%
X254915000Y-185077500D03*
%TO.P,S21,2*%
%TO.N,mirror_inner_bottom*%
X267842000Y-182537500D03*
%TD*%
D13*
%TO.P,S30,1*%
%TO.N,GP8*%
X302540000Y-134812500D03*
%TO.P,S30,2*%
%TO.N,mirror_middle_top*%
X305080000Y-147739500D03*
%TD*%
D16*
%TO.P,S22,1*%
%TO.N,GP6*%
X254915000Y-166027500D03*
%TO.P,S22,2*%
%TO.N,mirror_inner_home*%
X267842000Y-163487500D03*
%TD*%
D10*
%TO.P,D12,1*%
%TO.N,GP20*%
X334190000Y-141635000D03*
D11*
X336350000Y-141635000D03*
%TO.P,D12,2*%
%TO.N,mirror_pinky_num*%
X339650000Y-141635000D03*
D12*
X341810000Y-141635000D03*
%TD*%
D10*
%TO.P,D21,1*%
%TO.N,GP17*%
X258190000Y-192117500D03*
D11*
X260350000Y-192117500D03*
%TO.P,D21,2*%
%TO.N,mirror_inner_bottom*%
X263650000Y-192117500D03*
D12*
X265810000Y-192117500D03*
%TD*%
D10*
%TO.P,D14,1*%
%TO.N,GP18*%
X315190000Y-170210000D03*
D11*
X317350000Y-170210000D03*
%TO.P,D14,2*%
%TO.N,mirror_ring_home*%
X320650000Y-170210000D03*
D12*
X322810000Y-170210000D03*
%TD*%
D22*
%TO.P,S26,1*%
%TO.N,GP7*%
X262820773Y-209574232D03*
%TO.P,S26,2*%
%TO.N,mirror_center_only*%
X274649896Y-203775027D03*
%TD*%
D10*
%TO.P,D19,1*%
%TO.N,GP19*%
X277190000Y-151160000D03*
D11*
X279350000Y-151160000D03*
%TO.P,D19,2*%
%TO.N,mirror_index_top*%
X282650000Y-151160000D03*
D12*
X284810000Y-151160000D03*
%TD*%
D10*
%TO.P,D7,1*%
%TO.N,GP19*%
X353190000Y-164495000D03*
D11*
X355350000Y-164495000D03*
%TO.P,D7,2*%
%TO.N,mirror_outer_top*%
X358650000Y-164495000D03*
D12*
X360810000Y-164495000D03*
%TD*%
D16*
%TO.P,S17,1*%
%TO.N,GP7*%
X273915000Y-182220000D03*
%TO.P,S17,2*%
%TO.N,mirror_index_bottom*%
X286842000Y-179680000D03*
%TD*%
D10*
%TO.P,D5,1*%
%TO.N,GP17*%
X353190000Y-202595000D03*
D11*
X355350000Y-202595000D03*
%TO.P,D5,2*%
%TO.N,mirror_outer_bottom*%
X358650000Y-202595000D03*
D12*
X360810000Y-202595000D03*
%TD*%
D16*
%TO.P,S12,1*%
%TO.N,GP10*%
X330915000Y-134595000D03*
%TO.P,S12,2*%
%TO.N,mirror_pinky_num*%
X343842000Y-132055000D03*
%TD*%
%TO.P,S19,1*%
%TO.N,GP7*%
X273915000Y-144120000D03*
%TO.P,S19,2*%
%TO.N,mirror_index_top*%
X286842000Y-141580000D03*
%TD*%
D10*
%TO.P,D15,1*%
%TO.N,GP19*%
X315190000Y-151160000D03*
D11*
X317350000Y-151160000D03*
%TO.P,D15,2*%
%TO.N,mirror_ring_top*%
X320650000Y-151160000D03*
D12*
X322810000Y-151160000D03*
%TD*%
D10*
%TO.P,D1,1*%
%TO.N,GP17*%
X372190000Y-204500000D03*
D11*
X374350000Y-204500000D03*
%TO.P,D1,2*%
%TO.N,mirror_reachy_bottom*%
X377650000Y-204500000D03*
D12*
X379810000Y-204500000D03*
%TD*%
D10*
%TO.P,D4,1*%
%TO.N,GP20*%
X372190000Y-147350000D03*
D11*
X374350000Y-147350000D03*
%TO.P,D4,2*%
%TO.N,mirror_reachy_num*%
X377650000Y-147350000D03*
D12*
X379810000Y-147350000D03*
%TD*%
D16*
%TO.P,S6,1*%
%TO.N,GP11*%
X349915000Y-176505000D03*
%TO.P,S6,2*%
%TO.N,mirror_outer_home*%
X362842000Y-173965000D03*
%TD*%
D13*
%TO.P,S29,1*%
%TO.N,GP8*%
X302540000Y-153862500D03*
%TO.P,S29,2*%
%TO.N,mirror_middle_home*%
X305080000Y-166789500D03*
%TD*%
D23*
%TO.P,D27,1*%
%TO.N,GP16*%
X248544623Y-221948401D03*
D24*
X250574359Y-221209637D03*
%TO.P,D27,2*%
%TO.N,mirror_reach_only*%
X253675345Y-220080971D03*
D12*
X255705081Y-219342207D03*
%TD*%
D25*
%TO.P,_1,1*%
%TO.N,GP0*%
X291110000Y-113717500D03*
%TO.P,_1,2*%
%TO.N,GP1*%
X291110000Y-116257500D03*
D26*
%TO.P,_1,3*%
%TO.N,GND*%
X291110000Y-118797500D03*
D25*
%TO.P,_1,4*%
%TO.N,GP2*%
X291110000Y-121337500D03*
%TO.P,_1,5*%
%TO.N,GP3*%
X291110000Y-123877500D03*
%TO.P,_1,6*%
%TO.N,GP4*%
X291110000Y-126417500D03*
%TO.P,_1,7*%
%TO.N,GP5*%
X291110000Y-128957500D03*
D26*
%TO.P,_1,8*%
%TO.N,GND*%
X291110000Y-131497500D03*
D25*
%TO.P,_1,9*%
%TO.N,GP6*%
X291110000Y-134037500D03*
%TO.P,_1,10*%
%TO.N,GP7*%
X291110000Y-136577500D03*
%TO.P,_1,11*%
%TO.N,GP8*%
X291110000Y-139117500D03*
%TO.P,_1,12*%
%TO.N,GP9*%
X291110000Y-141657500D03*
D26*
%TO.P,_1,13*%
%TO.N,GND*%
X291110000Y-144197500D03*
D25*
%TO.P,_1,14*%
%TO.N,GP10*%
X291110000Y-146737500D03*
%TO.P,_1,15*%
%TO.N,GP11*%
X291110000Y-149277500D03*
%TO.P,_1,16*%
%TO.N,GP12*%
X291110000Y-151817500D03*
%TO.P,_1,17*%
%TO.N,GP13*%
X291110000Y-154357500D03*
D26*
%TO.P,_1,18*%
%TO.N,GND*%
X291110000Y-156897500D03*
D25*
%TO.P,_1,19*%
%TO.N,GP14*%
X291110000Y-159437500D03*
%TO.P,_1,20*%
%TO.N,GP15*%
X291110000Y-161977500D03*
%TO.P,_1,21*%
%TO.N,GP16*%
X308890000Y-161977500D03*
%TO.P,_1,22*%
%TO.N,GP17*%
X308890000Y-159437500D03*
D26*
%TO.P,_1,23*%
%TO.N,GND*%
X308890000Y-156897500D03*
D25*
%TO.P,_1,24*%
%TO.N,GP18*%
X308890000Y-154357500D03*
%TO.P,_1,25*%
%TO.N,GP19*%
X308890000Y-151817500D03*
%TO.P,_1,26*%
%TO.N,GP20*%
X308890000Y-149277500D03*
%TO.P,_1,27*%
%TO.N,GP21*%
X308890000Y-146737500D03*
D26*
%TO.P,_1,28*%
%TO.N,GND*%
X308890000Y-144197500D03*
D25*
%TO.P,_1,29*%
%TO.N,GP22*%
X308890000Y-141657500D03*
%TO.P,_1,30*%
%TO.N,RUN*%
X308890000Y-139117500D03*
%TO.P,_1,31*%
%TO.N,GP26*%
X308890000Y-136577500D03*
%TO.P,_1,32*%
%TO.N,GP27*%
X308890000Y-134037500D03*
D26*
%TO.P,_1,33*%
%TO.N,AGND*%
X308890000Y-131497500D03*
D25*
%TO.P,_1,34*%
%TO.N,GP28*%
X308890000Y-128957500D03*
%TO.P,_1,35*%
%TO.N,ADC_VREF*%
X308890000Y-126417500D03*
%TO.P,_1,36*%
%TO.N,3V3*%
X308890000Y-123877500D03*
%TO.P,_1,37*%
%TO.N,3V3_EN*%
X308890000Y-121337500D03*
D26*
%TO.P,_1,38*%
%TO.N,GND*%
X308890000Y-118797500D03*
D25*
%TO.P,_1,39*%
%TO.N,VSYS*%
X308890000Y-116257500D03*
%TO.P,_1,40*%
%TO.N,VBUS*%
X308890000Y-113717500D03*
%TD*%
D10*
%TO.P,D16,1*%
%TO.N,GP20*%
X315190000Y-132110000D03*
D11*
X317350000Y-132110000D03*
%TO.P,D16,2*%
%TO.N,mirror_ring_num*%
X320650000Y-132110000D03*
D12*
X322810000Y-132110000D03*
%TD*%
D16*
%TO.P,S8,1*%
%TO.N,GP11*%
X349915000Y-138405000D03*
%TO.P,S8,2*%
%TO.N,mirror_outer_num*%
X362842000Y-135865000D03*
%TD*%
%TO.P,S4,1*%
%TO.N,GP12*%
X368915000Y-140310000D03*
%TO.P,S4,2*%
%TO.N,mirror_reachy_num*%
X381842000Y-137770000D03*
%TD*%
D27*
%TO.P,TRRS1,2*%
%TO.N,GND*%
X255200000Y-202917500D03*
%TO.P,TRRS1,3*%
%TO.N,GP1*%
X258200000Y-202917500D03*
%TO.P,TRRS1,4*%
%TO.N,3V3*%
X262200000Y-202917500D03*
%TO.P,TRRS1,5*%
%TO.N,GP0*%
X263300000Y-198317500D03*
%TD*%
D28*
%TO.N,GP12*%
X279797000Y-201885900D02*
X292283550Y-189399350D01*
X310500000Y-209750000D02*
X310250000Y-209750000D01*
X368915000Y-140310000D02*
X368915000Y-197460000D01*
X316750000Y-209750000D02*
X314500000Y-209750000D01*
X314000000Y-209750000D02*
X310500000Y-209750000D01*
X368915000Y-197460000D02*
X356625000Y-209750000D01*
X295748300Y-213703000D02*
X285751700Y-213703000D01*
X310250000Y-209750000D02*
X299701300Y-209750000D01*
X279797000Y-207748300D02*
X279797000Y-201885900D01*
X314500000Y-209750000D02*
X314000000Y-209750000D01*
X356625000Y-209750000D02*
X316750000Y-209750000D01*
X292283550Y-189399350D02*
X292399350Y-189399350D01*
X292547000Y-189251700D02*
X292547000Y-153254500D01*
X292399350Y-189399350D02*
X292547000Y-189251700D01*
X292547000Y-153254500D02*
X291110000Y-151817500D01*
X285751700Y-213703000D02*
X279797000Y-207748300D01*
X310250000Y-209750000D02*
X316750000Y-209750000D01*
X299701300Y-209750000D02*
X295748300Y-213703000D01*
X314500000Y-209750000D02*
X310500000Y-209750000D01*
%TO.N,mirror_reachy_bottom*%
X381842000Y-194920000D02*
X378762000Y-198000000D01*
X378762000Y-203452000D02*
X379810000Y-204500000D01*
X379810000Y-204500000D02*
X377650000Y-204500000D01*
X378762000Y-198000000D02*
X378762000Y-203452000D01*
%TO.N,mirror_reachy_home*%
X381842000Y-175870000D02*
X379810000Y-177902000D01*
X379810000Y-177902000D02*
X379810000Y-185450000D01*
X377650000Y-185450000D02*
X379810000Y-185450000D01*
%TO.N,mirror_reachy_top*%
X381842000Y-156820000D02*
X379810000Y-158852000D01*
X379810000Y-158852000D02*
X379810000Y-166400000D01*
X379810000Y-166400000D02*
X377650000Y-166400000D01*
%TO.N,mirror_reachy_num*%
X381842000Y-137770000D02*
X379810000Y-139802000D01*
X379810000Y-139802000D02*
X379810000Y-147350000D01*
X377650000Y-147350000D02*
X379810000Y-147350000D01*
%TO.N,GP11*%
X299634200Y-209250000D02*
X311500000Y-209250000D01*
X280198000Y-202167800D02*
X280198000Y-207582200D01*
X349915000Y-195555000D02*
X336220000Y-209250000D01*
X311500000Y-209250000D02*
X315500000Y-209250000D01*
X315500000Y-209250000D02*
X314250000Y-209250000D01*
X314250000Y-209250000D02*
X311500000Y-209250000D01*
X291110000Y-149277500D02*
X292948000Y-151115500D01*
X336220000Y-209250000D02*
X315500000Y-209250000D01*
X292948000Y-189417800D02*
X280198000Y-202167800D01*
X292948000Y-151115500D02*
X292948000Y-189417800D01*
X295582200Y-213302000D02*
X299634200Y-209250000D01*
X280198000Y-207582200D02*
X285917800Y-213302000D01*
X285917800Y-213302000D02*
X295582200Y-213302000D01*
X349915000Y-138405000D02*
X349915000Y-195555000D01*
%TO.N,mirror_outer_bottom*%
X360810000Y-195047000D02*
X360810000Y-202595000D01*
X360810000Y-202595000D02*
X358650000Y-202595000D01*
X362842000Y-193015000D02*
X360810000Y-195047000D01*
%TO.N,mirror_outer_home*%
X358650000Y-183545000D02*
X360810000Y-183545000D01*
X362842000Y-173965000D02*
X360810000Y-175997000D01*
X360810000Y-175997000D02*
X360810000Y-183545000D01*
%TO.N,mirror_outer_top*%
X360810000Y-164495000D02*
X358650000Y-164495000D01*
X362842000Y-154915000D02*
X360810000Y-156947000D01*
X360810000Y-156947000D02*
X360810000Y-164495000D01*
%TO.N,mirror_outer_num*%
X362842000Y-135865000D02*
X360810000Y-137897000D01*
X360810000Y-137897000D02*
X360810000Y-145445000D01*
X358650000Y-145445000D02*
X360810000Y-145445000D01*
%TO.N,GP10*%
X313500000Y-208849000D02*
X311250000Y-208849000D01*
X330915000Y-194934000D02*
X317000000Y-208849000D01*
X330915000Y-134595000D02*
X330915000Y-191745000D01*
X295416100Y-212901000D02*
X286083900Y-212901000D01*
X293349000Y-148750000D02*
X293122500Y-148750000D01*
X311250000Y-208849000D02*
X299468100Y-208849000D01*
X315750000Y-208849000D02*
X311250000Y-208849000D01*
X293349000Y-189583900D02*
X293349000Y-148750000D01*
X315750000Y-208849000D02*
X313500000Y-208849000D01*
X280599000Y-202333900D02*
X293349000Y-189583900D01*
X286083900Y-212901000D02*
X280599000Y-207416100D01*
X299468100Y-208849000D02*
X295416100Y-212901000D01*
X330915000Y-191745000D02*
X330915000Y-194934000D01*
X293122500Y-148750000D02*
X291110000Y-146737500D01*
X317000000Y-208849000D02*
X315750000Y-208849000D01*
X280599000Y-207416100D02*
X280599000Y-202333900D01*
%TO.N,mirror_pinky_bottom*%
X343842000Y-189205000D02*
X341810000Y-191237000D01*
X341810000Y-191237000D02*
X341810000Y-198785000D01*
X341810000Y-198785000D02*
X339650000Y-198785000D01*
%TO.N,mirror_pinky_home*%
X341810000Y-179735000D02*
X339650000Y-179735000D01*
X343842000Y-170155000D02*
X341810000Y-172187000D01*
X341810000Y-172187000D02*
X341810000Y-179735000D01*
%TO.N,mirror_pinky_top*%
X341810000Y-160685000D02*
X339650000Y-160685000D01*
X343842000Y-151105000D02*
X341810000Y-153137000D01*
X341810000Y-153137000D02*
X341810000Y-160685000D01*
%TO.N,mirror_pinky_num*%
X343842000Y-132055000D02*
X341810000Y-134087000D01*
X341810000Y-141635000D02*
X339650000Y-141635000D01*
X341810000Y-134087000D02*
X341810000Y-141635000D01*
%TO.N,GP9*%
X295250000Y-212500000D02*
X286250000Y-212500000D01*
X311915000Y-195835000D02*
X295250000Y-212500000D01*
X293750000Y-144297500D02*
X291110000Y-141657500D01*
X311915000Y-182220000D02*
X311915000Y-195835000D01*
X286250000Y-212500000D02*
X281000000Y-207250000D01*
X281000000Y-207250000D02*
X281000000Y-202500000D01*
X281000000Y-202500000D02*
X293750000Y-189750000D01*
X311915000Y-125070000D02*
X311915000Y-182220000D01*
X293750000Y-189750000D02*
X293750000Y-144297500D01*
%TO.N,mirror_ring_bottom*%
X322810000Y-189260000D02*
X320650000Y-189260000D01*
X324842000Y-179680000D02*
X322810000Y-181712000D01*
X322810000Y-181712000D02*
X322810000Y-189260000D01*
%TO.N,mirror_ring_home*%
X322810000Y-162662000D02*
X322810000Y-170210000D01*
X320650000Y-170210000D02*
X322810000Y-170210000D01*
X324842000Y-160630000D02*
X322810000Y-162662000D01*
%TO.N,mirror_ring_top*%
X322810000Y-151160000D02*
X320650000Y-151160000D01*
X324842000Y-141580000D02*
X322810000Y-143612000D01*
X322810000Y-143612000D02*
X322810000Y-151160000D01*
%TO.N,mirror_ring_num*%
X324842000Y-122530000D02*
X322810000Y-124562000D01*
X322810000Y-132110000D02*
X320650000Y-132110000D01*
X322810000Y-124562000D02*
X322810000Y-132110000D01*
%TO.N,GP7*%
X273915000Y-196733464D02*
X262820773Y-207827691D01*
X288500000Y-133967500D02*
X291110000Y-136577500D01*
X273915000Y-125070000D02*
X278306000Y-120679000D01*
X278306000Y-120679000D02*
X288118000Y-120679000D01*
X288118000Y-120679000D02*
X288500000Y-121061000D01*
X273915000Y-182220000D02*
X273915000Y-196733464D01*
X273915000Y-125070000D02*
X273915000Y-182220000D01*
X288500000Y-121061000D02*
X288500000Y-133967500D01*
X262820773Y-207827691D02*
X262820773Y-209574232D01*
%TO.N,mirror_index_bottom*%
X286842000Y-179680000D02*
X284810000Y-181712000D01*
X284810000Y-189260000D02*
X282650000Y-189260000D01*
X284810000Y-181712000D02*
X284810000Y-189260000D01*
%TO.N,mirror_index_home*%
X286842000Y-160630000D02*
X284810000Y-162662000D01*
X284810000Y-162662000D02*
X284810000Y-170210000D01*
X284810000Y-170210000D02*
X282650000Y-170210000D01*
%TO.N,mirror_index_top*%
X286842000Y-141580000D02*
X284810000Y-143612000D01*
X284810000Y-143612000D02*
X284810000Y-151160000D01*
X282650000Y-151160000D02*
X284810000Y-151160000D01*
%TO.N,mirror_index_num*%
X284810000Y-132110000D02*
X282650000Y-132110000D01*
X284810000Y-124562000D02*
X284810000Y-132110000D01*
X286842000Y-122530000D02*
X284810000Y-124562000D01*
%TO.N,GP6*%
X254915000Y-127927500D02*
X254915000Y-185077500D01*
X289250000Y-121243900D02*
X289250000Y-134000000D01*
X288256100Y-120250000D02*
X289250000Y-121243900D01*
X252500000Y-205750000D02*
X243059308Y-215190692D01*
X289250000Y-134000000D02*
X289287500Y-134037500D01*
X243059308Y-215190692D02*
X243059308Y-216453080D01*
X252500000Y-187492500D02*
X252500000Y-205750000D01*
X254915000Y-127927500D02*
X262592500Y-120250000D01*
X289287500Y-134037500D02*
X291110000Y-134037500D01*
X254915000Y-185077500D02*
X252500000Y-187492500D01*
X262592500Y-120250000D02*
X288256100Y-120250000D01*
%TO.N,mirror_inner_bottom*%
X265810000Y-192117500D02*
X263650000Y-192117500D01*
X265810000Y-184569500D02*
X265810000Y-192117500D01*
X267842000Y-182537500D02*
X265810000Y-184569500D01*
%TO.N,mirror_inner_home*%
X265810000Y-173067500D02*
X263650000Y-173067500D01*
X265810000Y-165519500D02*
X265810000Y-173067500D01*
X267842000Y-163487500D02*
X265810000Y-165519500D01*
%TO.N,mirror_inner_top*%
X265810000Y-146469500D02*
X265810000Y-154017500D01*
X263650000Y-154017500D02*
X265810000Y-154017500D01*
X267842000Y-144437500D02*
X265810000Y-146469500D01*
%TO.N,mirror_inner_num*%
X265810000Y-127419500D02*
X265810000Y-134967500D01*
X267842000Y-125387500D02*
X265810000Y-127419500D01*
X265810000Y-134967500D02*
X263650000Y-134967500D01*
%TO.N,GP8*%
X307648500Y-129704000D02*
X302540000Y-134812500D01*
X302540000Y-134812500D02*
X306931000Y-139203500D01*
X302540000Y-115762500D02*
X307648500Y-120871000D01*
X302540000Y-153862500D02*
X306931000Y-158253500D01*
X307648500Y-120871000D02*
X307648500Y-129704000D01*
X302540000Y-134812500D02*
X295415000Y-134812500D01*
X307000000Y-177372500D02*
X307000000Y-190250000D01*
X306931000Y-139203500D02*
X306931000Y-149471500D01*
X306931000Y-168521500D02*
X302540000Y-172912500D01*
X295415000Y-134812500D02*
X291110000Y-139117500D01*
X307000000Y-190250000D02*
X306750000Y-190500000D01*
X306750000Y-190500000D02*
X297050457Y-190500000D01*
X297050457Y-190500000D02*
X283106571Y-204443886D01*
X306931000Y-149471500D02*
X302540000Y-153862500D01*
X302540000Y-172912500D02*
X307000000Y-177372500D01*
X306931000Y-158253500D02*
X306931000Y-168521500D01*
%TO.N,mirror_tuck_only*%
X295396114Y-199697724D02*
X294106035Y-200987803D01*
X293306431Y-209485035D02*
X292931350Y-209860116D01*
X294106035Y-208532535D02*
X295058535Y-209485035D01*
X294106035Y-200987803D02*
X294106035Y-208532535D01*
X295058535Y-209485035D02*
X293306431Y-209485035D01*
%TO.N,mirror_center_only*%
X273639271Y-213554516D02*
X273080221Y-214113566D01*
X273311409Y-211699305D02*
X275166620Y-213554516D01*
X274649896Y-203775027D02*
X273311409Y-205113514D01*
X275166620Y-213554516D02*
X273639271Y-213554516D01*
X273311409Y-205113514D02*
X273311409Y-211699305D01*
%TO.N,mirror_reach_only*%
X253343220Y-216980346D02*
X255705081Y-219342207D01*
X254337983Y-209644967D02*
X253343220Y-210639730D01*
X254414109Y-219342207D02*
X253675345Y-220080971D01*
X255705081Y-219342207D02*
X254414109Y-219342207D01*
X253343220Y-210639730D02*
X253343220Y-216980346D01*
%TO.N,mirror_middle_bottom*%
X295500000Y-181647500D02*
X295500000Y-183807500D01*
X303048000Y-183807500D02*
X295500000Y-183807500D01*
X305080000Y-185839500D02*
X303048000Y-183807500D01*
%TO.N,mirror_middle_home*%
X295500000Y-164757500D02*
X295500000Y-162597500D01*
X305080000Y-166789500D02*
X303048000Y-164757500D01*
X303048000Y-164757500D02*
X295500000Y-164757500D01*
%TO.N,mirror_middle_top*%
X303048000Y-145707500D02*
X295500000Y-145707500D01*
X295500000Y-143547500D02*
X295500000Y-145707500D01*
X305080000Y-147739500D02*
X303048000Y-145707500D01*
%TO.N,mirror_middle_num*%
X295500000Y-126657500D02*
X295500000Y-124497500D01*
X303048000Y-126657500D02*
X295500000Y-126657500D01*
X305080000Y-128689500D02*
X303048000Y-126657500D01*
%TO.N,GP17*%
X336350000Y-198785000D02*
X334190000Y-198785000D01*
X295500000Y-176187500D02*
X295500000Y-178347500D01*
X279350000Y-189260000D02*
X277190000Y-189260000D01*
X355350000Y-202595000D02*
X353190000Y-202595000D01*
X317350000Y-189260000D02*
X315190000Y-189260000D01*
X260350000Y-192117500D02*
X258190000Y-192117500D01*
X374350000Y-204500000D02*
X372190000Y-204500000D01*
%TO.N,GP18*%
X260350000Y-173067500D02*
X258190000Y-173067500D01*
X353190000Y-183545000D02*
X355350000Y-183545000D01*
X372190000Y-185450000D02*
X374350000Y-185450000D01*
X336350000Y-179735000D02*
X334190000Y-179735000D01*
X279350000Y-170210000D02*
X277190000Y-170210000D01*
X315190000Y-170210000D02*
X317350000Y-170210000D01*
X295500000Y-159297500D02*
X295500000Y-157137500D01*
%TO.N,GP19*%
X355350000Y-164495000D02*
X353190000Y-164495000D01*
X315190000Y-151160000D02*
X317350000Y-151160000D01*
X295500000Y-138087500D02*
X295500000Y-140247500D01*
X336350000Y-160685000D02*
X334190000Y-160685000D01*
X374350000Y-166400000D02*
X372190000Y-166400000D01*
X258190000Y-154017500D02*
X260350000Y-154017500D01*
X277190000Y-151160000D02*
X279350000Y-151160000D01*
%TO.N,GP20*%
X336350000Y-141635000D02*
X334190000Y-141635000D01*
X279350000Y-132110000D02*
X277190000Y-132110000D01*
X317350000Y-132110000D02*
X315190000Y-132110000D01*
X353190000Y-145445000D02*
X355350000Y-145445000D01*
X260350000Y-134967500D02*
X258190000Y-134967500D01*
X295500000Y-121197500D02*
X295500000Y-119037500D01*
X372190000Y-147350000D02*
X374350000Y-147350000D01*
%TO.N,GP16*%
X287929380Y-210433154D02*
X287554299Y-210808235D01*
X289681484Y-210433154D02*
X287929380Y-210433154D01*
X250574359Y-221209637D02*
X249835595Y-221948401D01*
X269892665Y-214967668D02*
X269333615Y-215526718D01*
X269333615Y-215526718D02*
X267806266Y-215526718D01*
X249835595Y-221948401D02*
X248544623Y-221948401D01*
%TD*%
M02*
