M48
; DRILL file {KiCad 9.0.3-1.fc42} date 2025-08-21T15:21:59+0200
; FORMAT={-:-/ absolute / metric / decimal}
; #@! TF.CreationDate,2025-08-21T15:21:59+02:00
; #@! TF.GenerationSoftware,Kicad,Pcbnew,9.0.3-1.fc42
; #@! TF.FileFunction,Plated,1,2,PTH
FMAT,2
METRIC
; #@! TA.AperFunction,Plated,PTH,ComponentDrill
T1C0.900
; #@! TA.AperFunction,Plated,PTH,ComponentDrill
T2C0.991
; #@! TA.AperFunction,Plated,PTH,ComponentDrill
T3C1.020
%
G90
G05
T2
X65.19Y-145.445
X65.19Y-164.495
X65.19Y-183.545
X65.19Y-202.595
X72.81Y-145.445
X72.81Y-164.495
X72.81Y-183.545
X72.81Y-202.595
X84.19Y-141.635
X84.19Y-160.685
X84.19Y-179.735
X84.19Y-198.785
X91.81Y-141.635
X91.81Y-160.685
X91.81Y-179.735
X91.81Y-198.785
X103.19Y-132.11
X103.19Y-151.16
X103.19Y-170.21
X103.19Y-189.26
X110.81Y-132.11
X110.81Y-151.16
X110.81Y-170.21
X110.81Y-189.26
X130.5Y-119.037
X130.5Y-126.657
X130.5Y-138.088
X130.5Y-145.707
X130.5Y-157.137
X130.5Y-164.757
X130.5Y-176.188
X130.5Y-183.808
X130.941Y-209.485
X138.446Y-210.808
X141.19Y-132.11
X141.19Y-151.16
X141.19Y-170.21
X141.19Y-189.26
X148.81Y-132.11
X148.81Y-151.16
X148.81Y-170.21
X148.81Y-189.26
X150.833Y-213.555
X158.194Y-215.527
X160.19Y-134.968
X160.19Y-154.017
X160.19Y-173.067
X160.19Y-192.117
X167.81Y-134.968
X167.81Y-154.017
X167.81Y-173.067
X167.81Y-192.117
X170.295Y-219.342
X177.455Y-221.948
T3
X117.11Y-113.718
X117.11Y-116.257
X117.11Y-118.797
X117.11Y-121.337
X117.11Y-123.877
X117.11Y-126.417
X117.11Y-128.957
X117.11Y-131.498
X117.11Y-134.037
X117.11Y-136.577
X117.11Y-139.118
X117.11Y-141.657
X117.11Y-144.197
X117.11Y-146.737
X117.11Y-149.278
X117.11Y-151.817
X117.11Y-154.357
X117.11Y-156.897
X117.11Y-159.438
X117.11Y-161.977
X134.89Y-113.718
X134.89Y-116.257
X134.89Y-118.797
X134.89Y-121.337
X134.89Y-123.877
X134.89Y-126.417
X134.89Y-128.957
X134.89Y-131.498
X134.89Y-134.037
X134.89Y-136.577
X134.89Y-139.118
X134.89Y-141.657
X134.89Y-144.197
X134.89Y-146.737
X134.89Y-149.278
X134.89Y-151.817
X134.89Y-154.357
X134.89Y-156.897
X134.89Y-159.438
X134.89Y-161.977
T1
G00X163.0Y-202.917
M15
G01X162.4Y-202.917
M16
G05
G00X164.1Y-198.317
M15
G01X163.5Y-198.317
M16
G05
G00X168.1Y-198.317
M15
G01X167.5Y-198.317
M16
G05
G00X171.1Y-198.317
M15
G01X170.5Y-198.317
M16
G05
M30
