M48
; DRILL file {KiCad 9.0.3-1.fc42} date 2025-08-21T15:21:59+0200
; FORMAT={-:-/ absolute / metric / decimal}
; #@! TF.CreationDate,2025-08-21T15:21:59+02:00
; #@! TF.GenerationSoftware,Kicad,Pcbnew,9.0.3-1.fc42
; #@! TF.FileFunction,NonPlated,1,2,NPTH
FMAT,2
METRIC
; #@! TA.AperFunction,NonPlated,NPTH,ComponentDrill
T1C1.500
; #@! TA.AperFunction,NonPlated,NPTH,ComponentDrill
T2C1.702
; #@! TA.AperFunction,NonPlated,NPTH,ComponentDrill
T3C3.000
; #@! TA.AperFunction,NonPlated,NPTH,ComponentDrill
T4C3.988
; #@! TA.AperFunction,NonPlated,NPTH,ComponentDrill
T5C4.000
%
G90
G05
T1
X165.4Y-200.617
X172.4Y-200.617
T2
X63.92Y-140.945
X63.92Y-159.995
X63.92Y-179.045
X63.92Y-198.095
X74.08Y-140.945
X74.08Y-159.995
X74.08Y-179.045
X74.08Y-198.095
X82.92Y-137.135
X82.92Y-156.185
X82.92Y-175.235
X82.92Y-194.285
X93.08Y-137.135
X93.08Y-156.185
X93.08Y-175.235
X93.08Y-194.285
X101.92Y-127.61
X101.92Y-146.66
X101.92Y-165.71
X101.92Y-184.76
X112.08Y-127.61
X112.08Y-146.66
X112.08Y-165.71
X112.08Y-184.76
X126.0Y-117.767
X126.0Y-127.927
X126.0Y-136.817
X126.0Y-146.977
X126.0Y-155.868
X126.0Y-166.028
X126.0Y-174.917
X126.0Y-185.077
X130.472Y-204.833
X139.92Y-127.61
X139.92Y-146.66
X139.92Y-165.71
X139.92Y-184.76
X140.478Y-206.597
X150.08Y-127.61
X150.08Y-146.66
X150.08Y-165.71
X150.08Y-184.76
X150.771Y-208.879
X158.92Y-130.468
X158.92Y-149.517
X158.92Y-168.567
X158.92Y-187.617
X160.585Y-211.509
X169.08Y-130.468
X169.08Y-149.517
X169.08Y-168.567
X169.08Y-187.617
X170.641Y-214.679
X180.188Y-218.154
T3
X65.19Y-138.405
X65.19Y-157.455
X65.19Y-176.505
X65.19Y-195.555
X71.54Y-135.865
X71.54Y-154.915
X71.54Y-173.965
X71.54Y-193.015
X84.19Y-134.595
X84.19Y-153.645
X84.19Y-172.695
X84.19Y-191.745
X90.54Y-132.055
X90.54Y-151.105
X90.54Y-170.155
X90.54Y-189.205
X103.19Y-125.07
X103.19Y-144.12
X103.19Y-163.17
X103.19Y-182.22
X109.54Y-122.53
X109.54Y-141.58
X109.54Y-160.63
X109.54Y-179.68
X120.92Y-120.307
X120.92Y-139.357
X120.92Y-158.407
X120.92Y-177.457
X123.46Y-126.657
X123.46Y-145.707
X123.46Y-164.757
X123.46Y-183.808
X132.164Y-202.552
X138.859Y-201.153
X141.19Y-125.07
X141.19Y-144.12
X141.19Y-163.17
X141.19Y-182.22
X147.54Y-122.53
X147.54Y-141.58
X147.54Y-160.63
X147.54Y-179.68
X152.655Y-206.754
X159.446Y-205.944
X160.19Y-127.927
X160.19Y-146.977
X160.19Y-166.028
X160.19Y-185.077
X166.54Y-125.387
X166.54Y-144.438
X166.54Y-163.487
X166.54Y-182.537
X172.703Y-212.727
X179.539Y-212.512
T4
X69.0Y-140.945
X69.0Y-159.995
X69.0Y-179.045
X69.0Y-198.095
X88.0Y-137.135
X88.0Y-156.185
X88.0Y-175.235
X88.0Y-194.285
X107.0Y-127.61
X107.0Y-146.66
X107.0Y-165.71
X107.0Y-184.76
X126.0Y-122.847
X126.0Y-141.897
X126.0Y-160.947
X126.0Y-179.998
X135.475Y-205.715
X145.0Y-127.61
X145.0Y-146.66
X145.0Y-165.71
X145.0Y-184.76
X155.678Y-210.194
X164.0Y-130.468
X164.0Y-149.517
X164.0Y-168.567
X164.0Y-187.617
X175.414Y-216.417
T5
X69.0Y-150.47
X69.0Y-188.57
X107.0Y-175.235
X145.0Y-137.135
X145.0Y-175.235
X165.161Y-216.739
M30
