%TF.GenerationSoftware,KiCad,Pcbnew,9.0.3-1.fc42*%
%TF.CreationDate,2025-08-21T15:21:57+02:00*%
%TF.ProjectId,left,6c656674-2e6b-4696-9361-645f70636258,v1.0.0*%
%TF.SameCoordinates,Original*%
%TF.FileFunction,Paste,Bot*%
%TF.FilePolarity,Positive*%
%FSLAX46Y46*%
G04 Gerber Fmt 4.6, Leading zero omitted, Abs format (unit mm)*
G04 Created by KiCad (PCBNEW 9.0.3-1.fc42) date 2025-08-21 15:21:57*
%MOMM*%
%LPD*%
G01*
G04 APERTURE LIST*
G04 Aperture macros list*
%AMRotRect*
0 Rectangle, with rotation*
0 The origin of the aperture is its center*
0 $1 length*
0 $2 width*
0 $3 Rotation angle, in degrees counterclockwise*
0 Add horizontal line*
21,1,$1,$2,0,0,$3*%
G04 Aperture macros list end*
%ADD10R,0.900000X1.200000*%
%ADD11R,2.550000X2.500000*%
%ADD12R,2.500000X2.550000*%
%ADD13R,1.200000X0.900000*%
%ADD14RotRect,0.900000X1.200000X350.000000*%
%ADD15RotRect,2.550000X2.500000X340.000000*%
%ADD16RotRect,2.550000X2.500000X345.000000*%
%ADD17RotRect,0.900000X1.200000X340.000000*%
%ADD18RotRect,0.900000X1.200000X345.000000*%
%ADD19RotRect,2.550000X2.500000X350.000000*%
G04 APERTURE END LIST*
D10*
%TO.C,D16*%
X143350000Y-132110000D03*
X146650000Y-132110000D03*
%TD*%
D11*
%TO.C,S20*%
X156915000Y-127927500D03*
X169842000Y-125387500D03*
%TD*%
D10*
%TO.C,D9*%
X105350000Y-189260000D03*
X108650000Y-189260000D03*
%TD*%
%TO.C,D15*%
X143350000Y-151160000D03*
X146650000Y-151160000D03*
%TD*%
D11*
%TO.C,S17*%
X156915000Y-185077500D03*
X169842000Y-182537500D03*
%TD*%
D10*
%TO.C,D3*%
X67350000Y-164495000D03*
X70650000Y-164495000D03*
%TD*%
%TO.C,D13*%
X143350000Y-189260000D03*
X146650000Y-189260000D03*
%TD*%
D12*
%TO.C,S24*%
X123460000Y-187082500D03*
X120920000Y-174155500D03*
%TD*%
D10*
%TO.C,D8*%
X86350000Y-141635000D03*
X89650000Y-141635000D03*
%TD*%
D12*
%TO.C,S27*%
X123460000Y-129932500D03*
X120920000Y-117005500D03*
%TD*%
D11*
%TO.C,S7*%
X80915000Y-153645000D03*
X93842000Y-151105000D03*
%TD*%
D10*
%TO.C,D11*%
X105350000Y-151160000D03*
X108650000Y-151160000D03*
%TD*%
D11*
%TO.C,S5*%
X80915000Y-191745000D03*
X93842000Y-189205000D03*
%TD*%
%TO.C,S10*%
X99915000Y-163170000D03*
X112842000Y-160630000D03*
%TD*%
%TO.C,S18*%
X156915000Y-166027500D03*
X169842000Y-163487500D03*
%TD*%
D13*
%TO.C,D24*%
X130500000Y-181647500D03*
X130500000Y-178347500D03*
%TD*%
D10*
%TO.C,D6*%
X86350000Y-179735000D03*
X89650000Y-179735000D03*
%TD*%
D11*
%TO.C,S11*%
X99915000Y-144120000D03*
X112842000Y-141580000D03*
%TD*%
D10*
%TO.C,D17*%
X162350000Y-192117500D03*
X165650000Y-192117500D03*
%TD*%
D11*
%TO.C,S12*%
X99915000Y-125070000D03*
X112842000Y-122530000D03*
%TD*%
%TO.C,S16*%
X137915000Y-125070000D03*
X150842000Y-122530000D03*
%TD*%
D13*
%TO.C,D26*%
X130500000Y-143547500D03*
X130500000Y-140247500D03*
%TD*%
D11*
%TO.C,S8*%
X80915000Y-134595000D03*
X93842000Y-132055000D03*
%TD*%
D10*
%TO.C,D5*%
X86350000Y-198785000D03*
X89650000Y-198785000D03*
%TD*%
D12*
%TO.C,S25*%
X123460000Y-168032500D03*
X120920000Y-155105500D03*
%TD*%
D13*
%TO.C,D25*%
X130500000Y-162597500D03*
X130500000Y-159297500D03*
%TD*%
D14*
%TO.C,D21*%
X133068650Y-209860116D03*
X136318516Y-210433154D03*
%TD*%
D10*
%TO.C,D20*%
X162350000Y-134967500D03*
X165650000Y-134967500D03*
%TD*%
%TO.C,D10*%
X105350000Y-170210000D03*
X108650000Y-170210000D03*
%TD*%
D13*
%TO.C,D27*%
X130500000Y-124497500D03*
X130500000Y-121197500D03*
%TD*%
D11*
%TO.C,S2*%
X61915000Y-176505000D03*
X74842000Y-173965000D03*
%TD*%
D15*
%TO.C,S23*%
X169625248Y-211606655D03*
X182641386Y-213641130D03*
%TD*%
D10*
%TO.C,D19*%
X162350000Y-154017500D03*
X165650000Y-154017500D03*
%TD*%
%TO.C,D18*%
X162350000Y-173067500D03*
X165650000Y-173067500D03*
%TD*%
D16*
%TO.C,S22*%
X149492058Y-205906766D03*
X162635981Y-206799069D03*
%TD*%
D12*
%TO.C,S26*%
X123460000Y-148982500D03*
X120920000Y-136055500D03*
%TD*%
D10*
%TO.C,D4*%
X67350000Y-145445000D03*
X70650000Y-145445000D03*
%TD*%
D11*
%TO.C,S6*%
X80915000Y-172695000D03*
X93842000Y-170155000D03*
%TD*%
D10*
%TO.C,D1*%
X67350000Y-202595000D03*
X70650000Y-202595000D03*
%TD*%
%TO.C,D2*%
X67350000Y-183545000D03*
X70650000Y-183545000D03*
%TD*%
D11*
%TO.C,S1*%
X61915000Y-195555000D03*
X74842000Y-193015000D03*
%TD*%
%TO.C,S14*%
X137915000Y-163170000D03*
X150842000Y-160630000D03*
%TD*%
D10*
%TO.C,D12*%
X105350000Y-132110000D03*
X108650000Y-132110000D03*
%TD*%
D11*
%TO.C,S9*%
X99915000Y-182220000D03*
X112842000Y-179680000D03*
%TD*%
D17*
%TO.C,D23*%
X172324655Y-220080971D03*
X175425641Y-221209637D03*
%TD*%
D18*
%TO.C,D22*%
X152919779Y-214113567D03*
X156107335Y-214967667D03*
%TD*%
D11*
%TO.C,S3*%
X61915000Y-157455000D03*
X74842000Y-154915000D03*
%TD*%
D10*
%TO.C,D7*%
X86350000Y-160685000D03*
X89650000Y-160685000D03*
%TD*%
D11*
%TO.C,S4*%
X61915000Y-138405000D03*
X74842000Y-135865000D03*
%TD*%
D19*
%TO.C,S21*%
X128938703Y-201983291D03*
X142110380Y-201726629D03*
%TD*%
D11*
%TO.C,S19*%
X156915000Y-146977500D03*
X169842000Y-144437500D03*
%TD*%
D10*
%TO.C,D14*%
X143350000Y-170210000D03*
X146650000Y-170210000D03*
%TD*%
D11*
%TO.C,S15*%
X137915000Y-144120000D03*
X150842000Y-141580000D03*
%TD*%
%TO.C,S13*%
X137915000Y-182220000D03*
X150842000Y-179680000D03*
%TD*%
M02*
