%TF.GenerationSoftware,KiCad,Pcbnew,9.0.3-1.fc42*%
%TF.CreationDate,2025-08-21T15:21:57+02:00*%
%TF.ProjectId,left,6c656674-2e6b-4696-9361-645f70636258,v1.0.0*%
%TF.SameCoordinates,Original*%
%TF.FileFunction,Soldermask,Top*%
%TF.FilePolarity,Negative*%
%FSLAX46Y46*%
G04 Gerber Fmt 4.6, Leading zero omitted, Abs format (unit mm)*
G04 Created by KiCad (PCBNEW 9.0.3-1.fc42) date 2025-08-21 15:21:57*
%MOMM*%
%LPD*%
G01*
G04 APERTURE LIST*
G04 Aperture macros list*
%AMRoundRect*
0 Rectangle with rounded corners*
0 $1 Rounding radius*
0 $2 $3 $4 $5 $6 $7 $8 $9 X,Y pos of 4 corners*
0 Add a 4 corners polygon primitive as box body*
4,1,4,$2,$3,$4,$5,$6,$7,$8,$9,$2,$3,0*
0 Add four circle primitives for the rounded corners*
1,1,$1+$1,$2,$3*
1,1,$1+$1,$4,$5*
1,1,$1+$1,$6,$7*
1,1,$1+$1,$8,$9*
0 Add four rect primitives between the rounded corners*
20,1,$1+$1,$2,$3,$4,$5,0*
20,1,$1+$1,$4,$5,$6,$7,0*
20,1,$1+$1,$6,$7,$8,$9,0*
20,1,$1+$1,$8,$9,$2,$3,0*%
G04 Aperture macros list end*
%ADD10RoundRect,0.050000X-0.889000X-0.889000X0.889000X-0.889000X0.889000X0.889000X-0.889000X0.889000X0*%
%ADD11RoundRect,0.050000X-0.450000X-0.600000X0.450000X-0.600000X0.450000X0.600000X-0.450000X0.600000X0*%
%ADD12C,2.005000*%
%ADD13C,1.801800*%
%ADD14C,3.100000*%
%ADD15C,4.087800*%
%ADD16O,1.800000X1.800000*%
%ADD17RoundRect,0.050000X-0.850000X-0.850000X0.850000X-0.850000X0.850000X0.850000X-0.850000X0.850000X0*%
%ADD18RoundRect,0.050000X0.889000X-0.889000X0.889000X0.889000X-0.889000X0.889000X-0.889000X-0.889000X0*%
%ADD19RoundRect,0.050000X0.600000X-0.450000X0.600000X0.450000X-0.600000X0.450000X-0.600000X-0.450000X0*%
%ADD20C,4.100000*%
%ADD21RoundRect,0.050000X-1.029867X-0.721121X0.721121X-1.029867X1.029867X0.721121X-0.721121X1.029867X0*%
%ADD22RoundRect,0.050000X-0.547352X-0.512743X0.338975X-0.669026X0.547352X0.512743X-0.338975X0.669026X0*%
%ADD23RoundRect,0.050000X-1.139443X-0.531331X0.531331X-1.139443X1.139443X0.531331X-0.531331X1.139443X0*%
%ADD24RoundRect,0.050000X-0.628074X-0.409907X0.217650X-0.717725X0.628074X0.409907X-0.217650X0.717725X0*%
%ADD25RoundRect,0.050000X-1.088798X-0.628618X0.628618X-1.088798X1.088798X0.628618X-0.628618X1.088798X0*%
%ADD26RoundRect,0.050000X-0.589958X-0.463087X0.279375X-0.696024X0.589958X0.463087X-0.279375X0.696024X0*%
%ADD27C,1.600000*%
%ADD28O,2.300000X1.700000*%
G04 APERTURE END LIST*
D10*
%TO.C,D16*%
X141190000Y-132110000D03*
D11*
X143350000Y-132110000D03*
X146650000Y-132110000D03*
D12*
X148810000Y-132110000D03*
%TD*%
D13*
%TO.C,S20*%
X158920000Y-130467500D03*
D14*
X160190000Y-127927500D03*
D15*
X164000000Y-130467500D03*
D14*
X166540000Y-125387500D03*
D13*
X169080000Y-130467500D03*
%TD*%
D10*
%TO.C,D9*%
X103190000Y-189260000D03*
D11*
X105350000Y-189260000D03*
X108650000Y-189260000D03*
D12*
X110810000Y-189260000D03*
%TD*%
D10*
%TO.C,D15*%
X141190000Y-151160000D03*
D11*
X143350000Y-151160000D03*
X146650000Y-151160000D03*
D12*
X148810000Y-151160000D03*
%TD*%
D13*
%TO.C,S17*%
X158920000Y-187617500D03*
D14*
X160190000Y-185077500D03*
D15*
X164000000Y-187617500D03*
D14*
X166540000Y-182537500D03*
D13*
X169080000Y-187617500D03*
%TD*%
D10*
%TO.C,D3*%
X65190000Y-164495000D03*
D11*
X67350000Y-164495000D03*
X70650000Y-164495000D03*
D12*
X72810000Y-164495000D03*
%TD*%
D10*
%TO.C,D13*%
X141190000Y-189260000D03*
D11*
X143350000Y-189260000D03*
X146650000Y-189260000D03*
D12*
X148810000Y-189260000D03*
%TD*%
D13*
%TO.C,S24*%
X126000000Y-185077500D03*
D14*
X123460000Y-183807500D03*
D15*
X126000000Y-179997500D03*
D14*
X120920000Y-177457500D03*
D13*
X126000000Y-174917500D03*
%TD*%
D10*
%TO.C,D8*%
X84190000Y-141635000D03*
D11*
X86350000Y-141635000D03*
X89650000Y-141635000D03*
D12*
X91810000Y-141635000D03*
%TD*%
D13*
%TO.C,S27*%
X126000000Y-127927500D03*
D14*
X123460000Y-126657500D03*
D15*
X126000000Y-122847500D03*
D14*
X120920000Y-120307500D03*
D13*
X126000000Y-117767500D03*
%TD*%
D16*
%TO.C,_1*%
X117110000Y-113717500D03*
X117110000Y-116257500D03*
D17*
X117110000Y-118797500D03*
D16*
X117110000Y-121337500D03*
X117110000Y-123877500D03*
X117110000Y-126417500D03*
X117110000Y-128957500D03*
D17*
X117110000Y-131497500D03*
D16*
X117110000Y-134037500D03*
X117110000Y-136577500D03*
X117110000Y-139117500D03*
X117110000Y-141657500D03*
D17*
X117110000Y-144197500D03*
D16*
X117110000Y-146737500D03*
X117110000Y-149277500D03*
X117110000Y-151817500D03*
X117110000Y-154357500D03*
D17*
X117110000Y-156897500D03*
D16*
X117110000Y-159437500D03*
X117110000Y-161977500D03*
X134890000Y-161977500D03*
X134890000Y-159437500D03*
D17*
X134890000Y-156897500D03*
D16*
X134890000Y-154357500D03*
X134890000Y-151817500D03*
X134890000Y-149277500D03*
X134890000Y-146737500D03*
D17*
X134890000Y-144197500D03*
D16*
X134890000Y-141657500D03*
X134890000Y-139117500D03*
X134890000Y-136577500D03*
X134890000Y-134037500D03*
D17*
X134890000Y-131497500D03*
D16*
X134890000Y-128957500D03*
X134890000Y-126417500D03*
X134890000Y-123877500D03*
X134890000Y-121337500D03*
D17*
X134890000Y-118797500D03*
D16*
X134890000Y-116257500D03*
X134890000Y-113717500D03*
%TD*%
D13*
%TO.C,S7*%
X82920000Y-156185000D03*
D14*
X84190000Y-153645000D03*
D15*
X88000000Y-156185000D03*
D14*
X90540000Y-151105000D03*
D13*
X93080000Y-156185000D03*
%TD*%
D10*
%TO.C,D11*%
X103190000Y-151160000D03*
D11*
X105350000Y-151160000D03*
X108650000Y-151160000D03*
D12*
X110810000Y-151160000D03*
%TD*%
D13*
%TO.C,S5*%
X82920000Y-194285000D03*
D14*
X84190000Y-191745000D03*
D15*
X88000000Y-194285000D03*
D14*
X90540000Y-189205000D03*
D13*
X93080000Y-194285000D03*
%TD*%
%TO.C,S10*%
X101920000Y-165710000D03*
D14*
X103190000Y-163170000D03*
D15*
X107000000Y-165710000D03*
D14*
X109540000Y-160630000D03*
D13*
X112080000Y-165710000D03*
%TD*%
%TO.C,S18*%
X158920000Y-168567500D03*
D14*
X160190000Y-166027500D03*
D15*
X164000000Y-168567500D03*
D14*
X166540000Y-163487500D03*
D13*
X169080000Y-168567500D03*
%TD*%
D18*
%TO.C,D24*%
X130500000Y-183807500D03*
D19*
X130500000Y-181647500D03*
X130500000Y-178347500D03*
D12*
X130500000Y-176187500D03*
%TD*%
D10*
%TO.C,D6*%
X84190000Y-179735000D03*
D11*
X86350000Y-179735000D03*
X89650000Y-179735000D03*
D12*
X91810000Y-179735000D03*
%TD*%
D13*
%TO.C,S11*%
X101920000Y-146660000D03*
D14*
X103190000Y-144120000D03*
D15*
X107000000Y-146660000D03*
D14*
X109540000Y-141580000D03*
D13*
X112080000Y-146660000D03*
%TD*%
D10*
%TO.C,D17*%
X160190000Y-192117500D03*
D11*
X162350000Y-192117500D03*
X165650000Y-192117500D03*
D12*
X167810000Y-192117500D03*
%TD*%
D13*
%TO.C,S12*%
X101920000Y-127610000D03*
D14*
X103190000Y-125070000D03*
D15*
X107000000Y-127610000D03*
D14*
X109540000Y-122530000D03*
D13*
X112080000Y-127610000D03*
%TD*%
D20*
%TO.C,*%
X165160570Y-216739174D03*
%TD*%
D13*
%TO.C,S16*%
X139920000Y-127610000D03*
D14*
X141190000Y-125070000D03*
D15*
X145000000Y-127610000D03*
D14*
X147540000Y-122530000D03*
D13*
X150080000Y-127610000D03*
%TD*%
D18*
%TO.C,D26*%
X130500000Y-145707500D03*
D19*
X130500000Y-143547500D03*
X130500000Y-140247500D03*
D12*
X130500000Y-138087500D03*
%TD*%
D20*
%TO.C,*%
X69000000Y-188570000D03*
%TD*%
D13*
%TO.C,S8*%
X82920000Y-137135000D03*
D14*
X84190000Y-134595000D03*
D15*
X88000000Y-137135000D03*
D14*
X90540000Y-132055000D03*
D13*
X93080000Y-137135000D03*
%TD*%
D10*
%TO.C,D5*%
X84190000Y-198785000D03*
D11*
X86350000Y-198785000D03*
X89650000Y-198785000D03*
D12*
X91810000Y-198785000D03*
%TD*%
D20*
%TO.C,*%
X69000000Y-150470000D03*
%TD*%
D13*
%TO.C,S25*%
X126000000Y-166027500D03*
D14*
X123460000Y-164757500D03*
D15*
X126000000Y-160947500D03*
D14*
X120920000Y-158407500D03*
D13*
X126000000Y-155867500D03*
%TD*%
D18*
%TO.C,D25*%
X130500000Y-164757500D03*
D19*
X130500000Y-162597500D03*
X130500000Y-159297500D03*
D12*
X130500000Y-157137500D03*
%TD*%
D21*
%TO.C,D21*%
X130941463Y-209485035D03*
D22*
X133068650Y-209860116D03*
X136318516Y-210433154D03*
D12*
X138445703Y-210808235D03*
%TD*%
D10*
%TO.C,D20*%
X160190000Y-134967500D03*
D11*
X162350000Y-134967500D03*
X165650000Y-134967500D03*
D12*
X167810000Y-134967500D03*
%TD*%
D20*
%TO.C,*%
X145000000Y-137135000D03*
%TD*%
D10*
%TO.C,D10*%
X103190000Y-170210000D03*
D11*
X105350000Y-170210000D03*
X108650000Y-170210000D03*
D12*
X110810000Y-170210000D03*
%TD*%
D18*
%TO.C,D27*%
X130500000Y-126657500D03*
D19*
X130500000Y-124497500D03*
X130500000Y-121197500D03*
D12*
X130500000Y-119037500D03*
%TD*%
D13*
%TO.C,S2*%
X63920000Y-179045000D03*
D14*
X65190000Y-176505000D03*
D15*
X69000000Y-179045000D03*
D14*
X71540000Y-173965000D03*
D13*
X74080000Y-179045000D03*
%TD*%
%TO.C,S23*%
X170640600Y-214679225D03*
D14*
X172702741Y-212726771D03*
D15*
X175414239Y-216416687D03*
D14*
X179538522Y-212511780D03*
D13*
X180187878Y-218154149D03*
%TD*%
D20*
%TO.C,*%
X107000000Y-175235000D03*
%TD*%
D10*
%TO.C,D19*%
X160190000Y-154017500D03*
D11*
X162350000Y-154017500D03*
X165650000Y-154017500D03*
D12*
X167810000Y-154017500D03*
%TD*%
D10*
%TO.C,D18*%
X160190000Y-173067500D03*
D11*
X162350000Y-173067500D03*
X165650000Y-173067500D03*
D12*
X167810000Y-173067500D03*
%TD*%
D13*
%TO.C,S22*%
X150771339Y-208879150D03*
D14*
X152655465Y-206754399D03*
D15*
X155678242Y-210193951D03*
D14*
X159446494Y-205944448D03*
D13*
X160585145Y-211508752D03*
%TD*%
%TO.C,S26*%
X126000000Y-146977500D03*
D14*
X123460000Y-145707500D03*
D15*
X126000000Y-141897500D03*
D14*
X120920000Y-139357500D03*
D13*
X126000000Y-136817500D03*
%TD*%
D10*
%TO.C,D4*%
X65190000Y-145445000D03*
D11*
X67350000Y-145445000D03*
X70650000Y-145445000D03*
D12*
X72810000Y-145445000D03*
%TD*%
D13*
%TO.C,S6*%
X82920000Y-175235000D03*
D14*
X84190000Y-172695000D03*
D15*
X88000000Y-175235000D03*
D14*
X90540000Y-170155000D03*
D13*
X93080000Y-175235000D03*
%TD*%
D10*
%TO.C,D1*%
X65190000Y-202595000D03*
D11*
X67350000Y-202595000D03*
X70650000Y-202595000D03*
D12*
X72810000Y-202595000D03*
%TD*%
D10*
%TO.C,D2*%
X65190000Y-183545000D03*
D11*
X67350000Y-183545000D03*
X70650000Y-183545000D03*
D12*
X72810000Y-183545000D03*
%TD*%
D13*
%TO.C,S1*%
X63920000Y-198095000D03*
D14*
X65190000Y-195555000D03*
D15*
X69000000Y-198095000D03*
D14*
X71540000Y-193015000D03*
D13*
X74080000Y-198095000D03*
%TD*%
%TO.C,S14*%
X139920000Y-165710000D03*
D14*
X141190000Y-163170000D03*
D15*
X145000000Y-165710000D03*
D14*
X147540000Y-160630000D03*
D13*
X150080000Y-165710000D03*
%TD*%
D10*
%TO.C,D12*%
X103190000Y-132110000D03*
D11*
X105350000Y-132110000D03*
X108650000Y-132110000D03*
D12*
X110810000Y-132110000D03*
%TD*%
D13*
%TO.C,S9*%
X101920000Y-184760000D03*
D14*
X103190000Y-182220000D03*
D15*
X107000000Y-184760000D03*
D14*
X109540000Y-179680000D03*
D13*
X112080000Y-184760000D03*
%TD*%
D23*
%TO.C,D23*%
X170294919Y-219342207D03*
D24*
X172324655Y-220080971D03*
X175425641Y-221209637D03*
D12*
X177455377Y-221948401D03*
%TD*%
D25*
%TO.C,D22*%
X150833380Y-213554515D03*
D26*
X152919779Y-214113567D03*
X156107335Y-214967667D03*
D12*
X158193734Y-215526719D03*
%TD*%
D13*
%TO.C,S3*%
X63920000Y-159995000D03*
D14*
X65190000Y-157455000D03*
D15*
X69000000Y-159995000D03*
D14*
X71540000Y-154915000D03*
D13*
X74080000Y-159995000D03*
%TD*%
D20*
%TO.C,*%
X145000000Y-175235000D03*
%TD*%
D10*
%TO.C,D7*%
X84190000Y-160685000D03*
D11*
X86350000Y-160685000D03*
X89650000Y-160685000D03*
D12*
X91810000Y-160685000D03*
%TD*%
D13*
%TO.C,S4*%
X63920000Y-140945000D03*
D14*
X65190000Y-138405000D03*
D15*
X69000000Y-140945000D03*
D14*
X71540000Y-135865000D03*
D13*
X74080000Y-140945000D03*
%TD*%
%TO.C,S21*%
X130472177Y-204832867D03*
D14*
X132163949Y-202551989D03*
D15*
X135475000Y-205715000D03*
D14*
X138858544Y-201153243D03*
D13*
X140477823Y-206597133D03*
%TD*%
%TO.C,S19*%
X158920000Y-149517500D03*
D14*
X160190000Y-146977500D03*
D15*
X164000000Y-149517500D03*
D14*
X166540000Y-144437500D03*
D13*
X169080000Y-149517500D03*
%TD*%
D10*
%TO.C,D14*%
X141190000Y-170210000D03*
D11*
X143350000Y-170210000D03*
X146650000Y-170210000D03*
D12*
X148810000Y-170210000D03*
%TD*%
D13*
%TO.C,S15*%
X139920000Y-146660000D03*
D14*
X141190000Y-144120000D03*
D15*
X145000000Y-146660000D03*
D14*
X147540000Y-141580000D03*
D13*
X150080000Y-146660000D03*
%TD*%
%TO.C,S13*%
X139920000Y-184760000D03*
D14*
X141190000Y-182220000D03*
D15*
X145000000Y-184760000D03*
D14*
X147540000Y-179680000D03*
D13*
X150080000Y-184760000D03*
%TD*%
D27*
%TO.C,TRRS1*%
X172400000Y-200617500D03*
X165400000Y-200617500D03*
D28*
X170800000Y-198317500D03*
X167800000Y-198317500D03*
X163800000Y-198317500D03*
X162700000Y-202917500D03*
%TD*%
M02*
