%TF.GenerationSoftware,KiCad,Pcbnew,9.0.3-1.fc42*%
%TF.CreationDate,2025-08-21T15:21:57+02:00*%
%TF.ProjectId,left,6c656674-2e6b-4696-9361-645f70636258,v1.0.0*%
%TF.SameCoordinates,Original*%
%TF.FileFunction,Legend,Top*%
%TF.FilePolarity,Positive*%
%FSLAX46Y46*%
G04 Gerber Fmt 4.6, Leading zero omitted, Abs format (unit mm)*
G04 Created by KiCad (PCBNEW 9.0.3-1.fc42) date 2025-08-21 15:21:57*
%MOMM*%
%LPD*%
G01*
G04 APERTURE LIST*
%ADD10C,0.400000*%
%ADD11C,0.100000*%
%ADD12C,0.120000*%
%ADD13C,4.000000*%
G04 APERTURE END LIST*
D10*
X101756364Y-209932442D02*
X102000103Y-207947349D01*
X102000103Y-207947349D02*
X102890703Y-210071721D01*
X102890703Y-210071721D02*
X103134441Y-208086629D01*
X103890667Y-208179482D02*
X104119569Y-210222607D01*
X104119569Y-210222607D02*
X104671781Y-208851110D01*
X104671781Y-208851110D02*
X104875795Y-210315460D01*
X104875795Y-210315460D02*
X105592175Y-208388400D01*
X106021740Y-210360211D02*
X106293718Y-210489559D01*
X106293718Y-210489559D02*
X106766359Y-210547592D01*
X106766359Y-210547592D02*
X106967022Y-210476277D01*
X106967022Y-210476277D02*
X107073157Y-210393355D01*
X107073157Y-210393355D02*
X107190898Y-210215905D01*
X107190898Y-210215905D02*
X107214111Y-210026849D01*
X107214111Y-210026849D02*
X107142796Y-209826186D01*
X107142796Y-209826186D02*
X107059875Y-209720051D01*
X107059875Y-209720051D02*
X106882425Y-209602310D01*
X106882425Y-209602310D02*
X106515919Y-209461355D01*
X106515919Y-209461355D02*
X106338469Y-209343614D01*
X106338469Y-209343614D02*
X106255547Y-209237479D01*
X106255547Y-209237479D02*
X106184232Y-209036816D01*
X106184232Y-209036816D02*
X106207445Y-208847759D01*
X106207445Y-208847759D02*
X106325187Y-208670310D01*
X106325187Y-208670310D02*
X106431322Y-208587388D01*
X106431322Y-208587388D02*
X106631985Y-208516073D01*
X106631985Y-208516073D02*
X107104626Y-208574106D01*
X107104626Y-208574106D02*
X107376604Y-208703454D01*
X109481113Y-209537575D02*
X109696734Y-210907397D01*
X109696734Y-210907397D02*
X110190912Y-210008541D01*
X110190912Y-210008541D02*
X110452959Y-211000249D01*
X110452959Y-211000249D02*
X110993565Y-209723281D01*
X112438051Y-211243988D02*
X112565724Y-210204178D01*
X112565724Y-210204178D02*
X112494409Y-210003515D01*
X112494409Y-210003515D02*
X112316959Y-209885773D01*
X112316959Y-209885773D02*
X111938846Y-209839347D01*
X111938846Y-209839347D02*
X111738183Y-209910662D01*
X112449658Y-211149460D02*
X112248995Y-211220775D01*
X112248995Y-211220775D02*
X111776354Y-211162742D01*
X111776354Y-211162742D02*
X111598904Y-211045000D01*
X111598904Y-211045000D02*
X111527589Y-210844337D01*
X111527589Y-210844337D02*
X111550802Y-210655281D01*
X111550802Y-210655281D02*
X111668544Y-210477831D01*
X111668544Y-210477831D02*
X111869207Y-210406516D01*
X111869207Y-210406516D02*
X112341848Y-210464549D01*
X112341848Y-210464549D02*
X112542511Y-210393234D01*
X113300412Y-211253919D02*
X113477862Y-211371661D01*
X113477862Y-211371661D02*
X113855975Y-211418087D01*
X113855975Y-211418087D02*
X114056638Y-211346772D01*
X114056638Y-211346772D02*
X114174379Y-211169322D01*
X114174379Y-211169322D02*
X114185986Y-211074794D01*
X114185986Y-211074794D02*
X114114671Y-210874131D01*
X114114671Y-210874131D02*
X113937221Y-210756390D01*
X113937221Y-210756390D02*
X113653636Y-210721570D01*
X113653636Y-210721570D02*
X113476187Y-210603828D01*
X113476187Y-210603828D02*
X113404872Y-210403165D01*
X113404872Y-210403165D02*
X113416478Y-210308637D01*
X113416478Y-210308637D02*
X113534220Y-210131187D01*
X113534220Y-210131187D02*
X113734883Y-210059872D01*
X113734883Y-210059872D02*
X114018467Y-210094692D01*
X114018467Y-210094692D02*
X114195917Y-210212434D01*
X116502765Y-211743072D02*
X116746504Y-209757980D01*
X117353519Y-211847532D02*
X117481192Y-210807721D01*
X117481192Y-210807721D02*
X117409877Y-210607058D01*
X117409877Y-210607058D02*
X117232427Y-210489317D01*
X117232427Y-210489317D02*
X116948842Y-210454497D01*
X116948842Y-210454497D02*
X116748179Y-210525812D01*
X116748179Y-210525812D02*
X116642045Y-210608734D01*
X119066634Y-211961922D02*
X118865971Y-212033237D01*
X118865971Y-212033237D02*
X118487858Y-211986811D01*
X118487858Y-211986811D02*
X118310408Y-211869069D01*
X118310408Y-211869069D02*
X118239093Y-211668406D01*
X118239093Y-211668406D02*
X118331946Y-210912181D01*
X118331946Y-210912181D02*
X118449687Y-210734731D01*
X118449687Y-210734731D02*
X118650350Y-210663416D01*
X118650350Y-210663416D02*
X119028463Y-210709842D01*
X119028463Y-210709842D02*
X119205913Y-210827584D01*
X119205913Y-210827584D02*
X119277228Y-211028247D01*
X119277228Y-211028247D02*
X119254015Y-211217303D01*
X119254015Y-211217303D02*
X118285519Y-211290294D01*
X120000309Y-212172517D02*
X120162802Y-210849122D01*
X120116375Y-211227235D02*
X120234117Y-211049785D01*
X120234117Y-211049785D02*
X120340252Y-210966863D01*
X120340252Y-210966863D02*
X120540915Y-210895548D01*
X120540915Y-210895548D02*
X120729971Y-210918761D01*
X121997008Y-212321727D02*
X121796345Y-212393042D01*
X121796345Y-212393042D02*
X121418232Y-212346616D01*
X121418232Y-212346616D02*
X121240782Y-212228874D01*
X121240782Y-212228874D02*
X121169467Y-212028211D01*
X121169467Y-212028211D02*
X121262320Y-211271986D01*
X121262320Y-211271986D02*
X121380062Y-211094536D01*
X121380062Y-211094536D02*
X121580725Y-211023221D01*
X121580725Y-211023221D02*
X121958837Y-211069647D01*
X121958837Y-211069647D02*
X122136287Y-211187389D01*
X122136287Y-211187389D02*
X122207602Y-211388052D01*
X122207602Y-211388052D02*
X122184389Y-211577108D01*
X122184389Y-211577108D02*
X121215894Y-211650098D01*
D11*
%TO.C,D16*%
X144250000Y-132110000D02*
X144650000Y-132110000D01*
X144650000Y-132110000D02*
X144650000Y-131560000D01*
X144650000Y-132110000D02*
X144650000Y-132660000D01*
X144650000Y-132110000D02*
X145250000Y-131710000D01*
X145250000Y-131710000D02*
X145250000Y-132510000D01*
X145250000Y-132110000D02*
X145750000Y-132110000D01*
X145250000Y-132510000D02*
X144650000Y-132110000D01*
%TO.C,D9*%
X106250000Y-189260000D02*
X106650000Y-189260000D01*
X106650000Y-189260000D02*
X106650000Y-188710000D01*
X106650000Y-189260000D02*
X106650000Y-189810000D01*
X106650000Y-189260000D02*
X107250000Y-188860000D01*
X107250000Y-188860000D02*
X107250000Y-189660000D01*
X107250000Y-189260000D02*
X107750000Y-189260000D01*
X107250000Y-189660000D02*
X106650000Y-189260000D01*
%TO.C,D15*%
X144250000Y-151160000D02*
X144650000Y-151160000D01*
X144650000Y-151160000D02*
X144650000Y-150610000D01*
X144650000Y-151160000D02*
X144650000Y-151710000D01*
X144650000Y-151160000D02*
X145250000Y-150760000D01*
X145250000Y-150760000D02*
X145250000Y-151560000D01*
X145250000Y-151160000D02*
X145750000Y-151160000D01*
X145250000Y-151560000D02*
X144650000Y-151160000D01*
%TO.C,D3*%
X68250000Y-164495000D02*
X68650000Y-164495000D01*
X68650000Y-164495000D02*
X68650000Y-163945000D01*
X68650000Y-164495000D02*
X68650000Y-165045000D01*
X68650000Y-164495000D02*
X69250000Y-164095000D01*
X69250000Y-164095000D02*
X69250000Y-164895000D01*
X69250000Y-164495000D02*
X69750000Y-164495000D01*
X69250000Y-164895000D02*
X68650000Y-164495000D01*
%TO.C,D13*%
X144250000Y-189260000D02*
X144650000Y-189260000D01*
X144650000Y-189260000D02*
X144650000Y-188710000D01*
X144650000Y-189260000D02*
X144650000Y-189810000D01*
X144650000Y-189260000D02*
X145250000Y-188860000D01*
X145250000Y-188860000D02*
X145250000Y-189660000D01*
X145250000Y-189260000D02*
X145750000Y-189260000D01*
X145250000Y-189660000D02*
X144650000Y-189260000D01*
%TO.C,D8*%
X87250000Y-141635000D02*
X87650000Y-141635000D01*
X87650000Y-141635000D02*
X87650000Y-141085000D01*
X87650000Y-141635000D02*
X87650000Y-142185000D01*
X87650000Y-141635000D02*
X88250000Y-141235000D01*
X88250000Y-141235000D02*
X88250000Y-142035000D01*
X88250000Y-141635000D02*
X88750000Y-141635000D01*
X88250000Y-142035000D02*
X87650000Y-141635000D01*
D12*
%TO.C,_1*%
X115500000Y-112347500D02*
X115500000Y-112647500D01*
X115500000Y-112347500D02*
X136500000Y-112347500D01*
X115500000Y-114747500D02*
X115500000Y-115147500D01*
X115500000Y-115014500D02*
X118507000Y-115014500D01*
X115500000Y-117347500D02*
X115500000Y-117747500D01*
X115500000Y-119847500D02*
X115500000Y-120247500D01*
X115500000Y-122447500D02*
X115500000Y-122847500D01*
X115500000Y-124947500D02*
X115500000Y-125347500D01*
X115500000Y-127447500D02*
X115500000Y-127847500D01*
X115500000Y-130047500D02*
X115500000Y-130447500D01*
X115500000Y-132547500D02*
X115500000Y-132947500D01*
X115500000Y-135147500D02*
X115500000Y-135547500D01*
X115500000Y-137647500D02*
X115500000Y-138047500D01*
X115500000Y-140147500D02*
X115500000Y-140547500D01*
X115500000Y-142747500D02*
X115500000Y-143147500D01*
X115500000Y-145247500D02*
X115500000Y-145647500D01*
X115500000Y-147847500D02*
X115500000Y-148247500D01*
X115500000Y-150347500D02*
X115500000Y-150747500D01*
X115500000Y-152947500D02*
X115500000Y-153347500D01*
X115500000Y-155447500D02*
X115500000Y-155847500D01*
X115500000Y-157947500D02*
X115500000Y-158347500D01*
X115500000Y-160547500D02*
X115500000Y-160947500D01*
X118507000Y-115014500D02*
X118507000Y-112347500D01*
X122300000Y-163347500D02*
X115500000Y-163347500D01*
X124500000Y-163347500D02*
X124900000Y-163347500D01*
X127100000Y-163347500D02*
X127500000Y-163347500D01*
X136500000Y-112347500D02*
X136500000Y-112647500D01*
X136500000Y-114747500D02*
X136500000Y-115147500D01*
X136500000Y-117347500D02*
X136500000Y-117747500D01*
X136500000Y-119847500D02*
X136500000Y-120247500D01*
X136500000Y-122447500D02*
X136500000Y-122847500D01*
X136500000Y-124947500D02*
X136500000Y-125347500D01*
X136500000Y-127447500D02*
X136500000Y-127847500D01*
X136500000Y-130047500D02*
X136500000Y-130447500D01*
X136500000Y-132547500D02*
X136500000Y-132947500D01*
X136500000Y-135147500D02*
X136500000Y-135547500D01*
X136500000Y-137647500D02*
X136500000Y-138047500D01*
X136500000Y-140147500D02*
X136500000Y-140547500D01*
X136500000Y-142747500D02*
X136500000Y-143147500D01*
X136500000Y-145247500D02*
X136500000Y-145647500D01*
X136500000Y-147847500D02*
X136500000Y-148247500D01*
X136500000Y-150347500D02*
X136500000Y-150747500D01*
X136500000Y-152947500D02*
X136500000Y-153347500D01*
X136500000Y-155447500D02*
X136500000Y-155847500D01*
X136500000Y-157947500D02*
X136500000Y-158347500D01*
X136500000Y-160547500D02*
X136500000Y-160947500D01*
X136500000Y-163347500D02*
X129700000Y-163347500D01*
D11*
%TO.C,D11*%
X106250000Y-151160000D02*
X106650000Y-151160000D01*
X106650000Y-151160000D02*
X106650000Y-150610000D01*
X106650000Y-151160000D02*
X106650000Y-151710000D01*
X106650000Y-151160000D02*
X107250000Y-150760000D01*
X107250000Y-150760000D02*
X107250000Y-151560000D01*
X107250000Y-151160000D02*
X107750000Y-151160000D01*
X107250000Y-151560000D02*
X106650000Y-151160000D01*
%TO.C,D24*%
X130100000Y-179747500D02*
X130900000Y-179747500D01*
X130500000Y-179747500D02*
X130500000Y-179247500D01*
X130500000Y-180347500D02*
X129950000Y-180347500D01*
X130500000Y-180347500D02*
X130100000Y-179747500D01*
X130500000Y-180347500D02*
X131050000Y-180347500D01*
X130500000Y-180747500D02*
X130500000Y-180347500D01*
X130900000Y-179747500D02*
X130500000Y-180347500D01*
%TO.C,D6*%
X87250000Y-179735000D02*
X87650000Y-179735000D01*
X87650000Y-179735000D02*
X87650000Y-179185000D01*
X87650000Y-179735000D02*
X87650000Y-180285000D01*
X87650000Y-179735000D02*
X88250000Y-179335000D01*
X88250000Y-179335000D02*
X88250000Y-180135000D01*
X88250000Y-179735000D02*
X88750000Y-179735000D01*
X88250000Y-180135000D02*
X87650000Y-179735000D01*
%TO.C,D17*%
X163250000Y-192117500D02*
X163650000Y-192117500D01*
X163650000Y-192117500D02*
X163650000Y-191567500D01*
X163650000Y-192117500D02*
X163650000Y-192667500D01*
X163650000Y-192117500D02*
X164250000Y-191717500D01*
X164250000Y-191717500D02*
X164250000Y-192517500D01*
X164250000Y-192117500D02*
X164750000Y-192117500D01*
X164250000Y-192517500D02*
X163650000Y-192117500D01*
%TO.C,D26*%
X130100000Y-141647500D02*
X130900000Y-141647500D01*
X130500000Y-141647500D02*
X130500000Y-141147500D01*
X130500000Y-142247500D02*
X129950000Y-142247500D01*
X130500000Y-142247500D02*
X130100000Y-141647500D01*
X130500000Y-142247500D02*
X131050000Y-142247500D01*
X130500000Y-142647500D02*
X130500000Y-142247500D01*
X130900000Y-141647500D02*
X130500000Y-142247500D01*
%TO.C,D5*%
X87250000Y-198785000D02*
X87650000Y-198785000D01*
X87650000Y-198785000D02*
X87650000Y-198235000D01*
X87650000Y-198785000D02*
X87650000Y-199335000D01*
X87650000Y-198785000D02*
X88250000Y-198385000D01*
X88250000Y-198385000D02*
X88250000Y-199185000D01*
X88250000Y-198785000D02*
X88750000Y-198785000D01*
X88250000Y-199185000D02*
X87650000Y-198785000D01*
%TO.C,D25*%
X130100000Y-160697500D02*
X130900000Y-160697500D01*
X130500000Y-160697500D02*
X130500000Y-160197500D01*
X130500000Y-161297500D02*
X129950000Y-161297500D01*
X130500000Y-161297500D02*
X130100000Y-160697500D01*
X130500000Y-161297500D02*
X131050000Y-161297500D01*
X130500000Y-161697500D02*
X130500000Y-161297500D01*
X130900000Y-160697500D02*
X130500000Y-161297500D01*
%TO.C,D21*%
X133954977Y-210016399D02*
X134348900Y-210085858D01*
X134348900Y-210085858D02*
X134253394Y-210627502D01*
X134348900Y-210085858D02*
X134444407Y-209544214D01*
X134348900Y-210085858D02*
X135009244Y-209796124D01*
X134870326Y-210583970D02*
X134348900Y-210085858D01*
X134939785Y-210190047D02*
X135432189Y-210276871D01*
X135009244Y-209796124D02*
X134870326Y-210583970D01*
%TO.C,D20*%
X163250000Y-134967500D02*
X163650000Y-134967500D01*
X163650000Y-134967500D02*
X163650000Y-134417500D01*
X163650000Y-134967500D02*
X163650000Y-135517500D01*
X163650000Y-134967500D02*
X164250000Y-134567500D01*
X164250000Y-134567500D02*
X164250000Y-135367500D01*
X164250000Y-134967500D02*
X164750000Y-134967500D01*
X164250000Y-135367500D02*
X163650000Y-134967500D01*
%TO.C,D10*%
X106250000Y-170210000D02*
X106650000Y-170210000D01*
X106650000Y-170210000D02*
X106650000Y-169660000D01*
X106650000Y-170210000D02*
X106650000Y-170760000D01*
X106650000Y-170210000D02*
X107250000Y-169810000D01*
X107250000Y-169810000D02*
X107250000Y-170610000D01*
X107250000Y-170210000D02*
X107750000Y-170210000D01*
X107250000Y-170610000D02*
X106650000Y-170210000D01*
%TO.C,D27*%
X130100000Y-122597500D02*
X130900000Y-122597500D01*
X130500000Y-122597500D02*
X130500000Y-122097500D01*
X130500000Y-123197500D02*
X129950000Y-123197500D01*
X130500000Y-123197500D02*
X130100000Y-122597500D01*
X130500000Y-123197500D02*
X131050000Y-123197500D01*
X130500000Y-123597500D02*
X130500000Y-123197500D01*
X130900000Y-122597500D02*
X130500000Y-123197500D01*
%TO.C,D19*%
X163250000Y-154017500D02*
X163650000Y-154017500D01*
X163650000Y-154017500D02*
X163650000Y-153467500D01*
X163650000Y-154017500D02*
X163650000Y-154567500D01*
X163650000Y-154017500D02*
X164250000Y-153617500D01*
X164250000Y-153617500D02*
X164250000Y-154417500D01*
X164250000Y-154017500D02*
X164750000Y-154017500D01*
X164250000Y-154417500D02*
X163650000Y-154017500D01*
%TO.C,D18*%
X163250000Y-173067500D02*
X163650000Y-173067500D01*
X163650000Y-173067500D02*
X163650000Y-172517500D01*
X163650000Y-173067500D02*
X163650000Y-173617500D01*
X163650000Y-173067500D02*
X164250000Y-172667500D01*
X164250000Y-172667500D02*
X164250000Y-173467500D01*
X164250000Y-173067500D02*
X164750000Y-173067500D01*
X164250000Y-173467500D02*
X163650000Y-173067500D01*
%TO.C,D4*%
X68250000Y-145445000D02*
X68650000Y-145445000D01*
X68650000Y-145445000D02*
X68650000Y-144895000D01*
X68650000Y-145445000D02*
X68650000Y-145995000D01*
X68650000Y-145445000D02*
X69250000Y-145045000D01*
X69250000Y-145045000D02*
X69250000Y-145845000D01*
X69250000Y-145445000D02*
X69750000Y-145445000D01*
X69250000Y-145845000D02*
X68650000Y-145445000D01*
%TO.C,D1*%
X68250000Y-202595000D02*
X68650000Y-202595000D01*
X68650000Y-202595000D02*
X68650000Y-202045000D01*
X68650000Y-202595000D02*
X68650000Y-203145000D01*
X68650000Y-202595000D02*
X69250000Y-202195000D01*
X69250000Y-202195000D02*
X69250000Y-202995000D01*
X69250000Y-202595000D02*
X69750000Y-202595000D01*
X69250000Y-202995000D02*
X68650000Y-202595000D01*
%TO.C,D2*%
X68250000Y-183545000D02*
X68650000Y-183545000D01*
X68650000Y-183545000D02*
X68650000Y-182995000D01*
X68650000Y-183545000D02*
X68650000Y-184095000D01*
X68650000Y-183545000D02*
X69250000Y-183145000D01*
X69250000Y-183145000D02*
X69250000Y-183945000D01*
X69250000Y-183545000D02*
X69750000Y-183545000D01*
X69250000Y-183945000D02*
X68650000Y-183545000D01*
%TO.C,D12*%
X106250000Y-132110000D02*
X106650000Y-132110000D01*
X106650000Y-132110000D02*
X106650000Y-131560000D01*
X106650000Y-132110000D02*
X106650000Y-132660000D01*
X106650000Y-132110000D02*
X107250000Y-131710000D01*
X107250000Y-131710000D02*
X107250000Y-132510000D01*
X107250000Y-132110000D02*
X107750000Y-132110000D01*
X107250000Y-132510000D02*
X106650000Y-132110000D01*
%TO.C,D23*%
X173170379Y-220388789D02*
X173546256Y-220525597D01*
X173546256Y-220525597D02*
X173358145Y-221042428D01*
X173546256Y-220525597D02*
X173734367Y-220008766D01*
X173546256Y-220525597D02*
X174246879Y-220354932D01*
X173973263Y-221106686D02*
X173546256Y-220525597D01*
X174110071Y-220730809D02*
X174579917Y-220901819D01*
X174246879Y-220354932D02*
X173973263Y-221106686D01*
%TO.C,D22*%
X153789113Y-214346503D02*
X154175483Y-214450030D01*
X154175483Y-214450030D02*
X154033132Y-214981291D01*
X154175483Y-214450030D02*
X154317833Y-213918771D01*
X154175483Y-214450030D02*
X154858566Y-214218951D01*
X154651511Y-214991692D02*
X154175483Y-214450030D01*
X154755038Y-214605322D02*
X155238001Y-214734731D01*
X154858566Y-214218951D02*
X154651511Y-214991692D01*
%TO.C,D7*%
X87250000Y-160685000D02*
X87650000Y-160685000D01*
X87650000Y-160685000D02*
X87650000Y-160135000D01*
X87650000Y-160685000D02*
X87650000Y-161235000D01*
X87650000Y-160685000D02*
X88250000Y-160285000D01*
X88250000Y-160285000D02*
X88250000Y-161085000D01*
X88250000Y-160685000D02*
X88750000Y-160685000D01*
X88250000Y-161085000D02*
X87650000Y-160685000D01*
%TO.C,D14*%
X144250000Y-170210000D02*
X144650000Y-170210000D01*
X144650000Y-170210000D02*
X144650000Y-169660000D01*
X144650000Y-170210000D02*
X144650000Y-170760000D01*
X144650000Y-170210000D02*
X145250000Y-169810000D01*
X145250000Y-169810000D02*
X145250000Y-170610000D01*
X145250000Y-170210000D02*
X145750000Y-170210000D01*
X145250000Y-170610000D02*
X144650000Y-170210000D01*
%TD*%
D13*
%TO.C,*%
X165160570Y-216739174D03*
%TD*%
%TO.C,*%
X69000000Y-188570000D03*
%TD*%
%TO.C,*%
X69000000Y-150470000D03*
%TD*%
%TO.C,*%
X145000000Y-137135000D03*
%TD*%
%TO.C,*%
X107000000Y-175235000D03*
%TD*%
%TO.C,*%
X145000000Y-175235000D03*
%TD*%
M02*
