%TF.GenerationSoftware,KiCad,Pcbnew,9.0.3-1.fc42*%
%TF.CreationDate,2025-08-21T15:21:57+02:00*%
%TF.ProjectId,left,6c656674-2e6b-4696-9361-645f70636258,v1.0.0*%
%TF.SameCoordinates,Original*%
%TF.FileFunction,Copper,L1,Top*%
%TF.FilePolarity,Positive*%
%FSLAX46Y46*%
G04 Gerber Fmt 4.6, Leading zero omitted, Abs format (unit mm)*
G04 Created by KiCad (PCBNEW 9.0.3-1.fc42) date 2025-08-21 15:21:57*
%MOMM*%
%LPD*%
G01*
G04 APERTURE LIST*
G04 Aperture macros list*
%AMRotRect*
0 Rectangle, with rotation*
0 The origin of the aperture is its center*
0 $1 length*
0 $2 width*
0 $3 Rotation angle, in degrees counterclockwise*
0 Add horizontal line*
21,1,$1,$2,0,0,$3*%
G04 Aperture macros list end*
%TA.AperFunction,ComponentPad*%
%ADD10R,1.778000X1.778000*%
%TD*%
%TA.AperFunction,SMDPad,CuDef*%
%ADD11R,0.900000X1.200000*%
%TD*%
%TA.AperFunction,ComponentPad*%
%ADD12C,1.905000*%
%TD*%
%TA.AperFunction,ComponentPad*%
%ADD13O,1.700000X1.700000*%
%TD*%
%TA.AperFunction,ComponentPad*%
%ADD14R,1.700000X1.700000*%
%TD*%
%TA.AperFunction,SMDPad,CuDef*%
%ADD15R,1.200000X0.900000*%
%TD*%
%TA.AperFunction,ComponentPad*%
%ADD16RotRect,1.778000X1.778000X350.000000*%
%TD*%
%TA.AperFunction,SMDPad,CuDef*%
%ADD17RotRect,0.900000X1.200000X350.000000*%
%TD*%
%TA.AperFunction,ComponentPad*%
%ADD18RotRect,1.778000X1.778000X340.000000*%
%TD*%
%TA.AperFunction,SMDPad,CuDef*%
%ADD19RotRect,0.900000X1.200000X340.000000*%
%TD*%
%TA.AperFunction,ComponentPad*%
%ADD20RotRect,1.778000X1.778000X345.000000*%
%TD*%
%TA.AperFunction,SMDPad,CuDef*%
%ADD21RotRect,0.900000X1.200000X345.000000*%
%TD*%
%TA.AperFunction,ComponentPad*%
%ADD22O,2.200000X1.600000*%
%TD*%
%TA.AperFunction,Conductor*%
%ADD23C,0.200000*%
%TD*%
G04 APERTURE END LIST*
D10*
%TO.P,D16,1*%
%TO.N,GP20*%
X141190000Y-132110000D03*
D11*
X143350000Y-132110000D03*
%TO.P,D16,2*%
%TO.N,index_num*%
X146650000Y-132110000D03*
D12*
X148810000Y-132110000D03*
%TD*%
D10*
%TO.P,D9,1*%
%TO.N,GP17*%
X103190000Y-189260000D03*
D11*
X105350000Y-189260000D03*
%TO.P,D9,2*%
%TO.N,ring_bottom*%
X108650000Y-189260000D03*
D12*
X110810000Y-189260000D03*
%TD*%
D10*
%TO.P,D15,1*%
%TO.N,GP19*%
X141190000Y-151160000D03*
D11*
X143350000Y-151160000D03*
%TO.P,D15,2*%
%TO.N,index_top*%
X146650000Y-151160000D03*
D12*
X148810000Y-151160000D03*
%TD*%
D10*
%TO.P,D3,1*%
%TO.N,GP19*%
X65190000Y-164495000D03*
D11*
X67350000Y-164495000D03*
%TO.P,D3,2*%
%TO.N,outer_top*%
X70650000Y-164495000D03*
D12*
X72810000Y-164495000D03*
%TD*%
D10*
%TO.P,D13,1*%
%TO.N,GP17*%
X141190000Y-189260000D03*
D11*
X143350000Y-189260000D03*
%TO.P,D13,2*%
%TO.N,index_bottom*%
X146650000Y-189260000D03*
D12*
X148810000Y-189260000D03*
%TD*%
D10*
%TO.P,D8,1*%
%TO.N,GP20*%
X84190000Y-141635000D03*
D11*
X86350000Y-141635000D03*
%TO.P,D8,2*%
%TO.N,pinky_num*%
X89650000Y-141635000D03*
D12*
X91810000Y-141635000D03*
%TD*%
D13*
%TO.P,_1,1*%
%TO.N,GP0*%
X117110000Y-113717500D03*
%TO.P,_1,2*%
%TO.N,GP1*%
X117110000Y-116257500D03*
D14*
%TO.P,_1,3*%
%TO.N,GND*%
X117110000Y-118797500D03*
D13*
%TO.P,_1,4*%
%TO.N,GP2*%
X117110000Y-121337500D03*
%TO.P,_1,5*%
%TO.N,GP3*%
X117110000Y-123877500D03*
%TO.P,_1,6*%
%TO.N,GP4*%
X117110000Y-126417500D03*
%TO.P,_1,7*%
%TO.N,GP5*%
X117110000Y-128957500D03*
D14*
%TO.P,_1,8*%
%TO.N,GND*%
X117110000Y-131497500D03*
D13*
%TO.P,_1,9*%
%TO.N,GP6*%
X117110000Y-134037500D03*
%TO.P,_1,10*%
%TO.N,GP7*%
X117110000Y-136577500D03*
%TO.P,_1,11*%
%TO.N,GP8*%
X117110000Y-139117500D03*
%TO.P,_1,12*%
%TO.N,GP9*%
X117110000Y-141657500D03*
D14*
%TO.P,_1,13*%
%TO.N,GND*%
X117110000Y-144197500D03*
D13*
%TO.P,_1,14*%
%TO.N,GP10*%
X117110000Y-146737500D03*
%TO.P,_1,15*%
%TO.N,GP11*%
X117110000Y-149277500D03*
%TO.P,_1,16*%
%TO.N,GP12*%
X117110000Y-151817500D03*
%TO.P,_1,17*%
%TO.N,GP13*%
X117110000Y-154357500D03*
D14*
%TO.P,_1,18*%
%TO.N,GND*%
X117110000Y-156897500D03*
D13*
%TO.P,_1,19*%
%TO.N,GP14*%
X117110000Y-159437500D03*
%TO.P,_1,20*%
%TO.N,GP15*%
X117110000Y-161977500D03*
%TO.P,_1,21*%
%TO.N,GP16*%
X134890000Y-161977500D03*
%TO.P,_1,22*%
%TO.N,GP17*%
X134890000Y-159437500D03*
D14*
%TO.P,_1,23*%
%TO.N,GND*%
X134890000Y-156897500D03*
D13*
%TO.P,_1,24*%
%TO.N,GP18*%
X134890000Y-154357500D03*
%TO.P,_1,25*%
%TO.N,GP19*%
X134890000Y-151817500D03*
%TO.P,_1,26*%
%TO.N,GP20*%
X134890000Y-149277500D03*
%TO.P,_1,27*%
%TO.N,GP21*%
X134890000Y-146737500D03*
D14*
%TO.P,_1,28*%
%TO.N,GND*%
X134890000Y-144197500D03*
D13*
%TO.P,_1,29*%
%TO.N,GP22*%
X134890000Y-141657500D03*
%TO.P,_1,30*%
%TO.N,RUN*%
X134890000Y-139117500D03*
%TO.P,_1,31*%
%TO.N,GP26*%
X134890000Y-136577500D03*
%TO.P,_1,32*%
%TO.N,GP27*%
X134890000Y-134037500D03*
D14*
%TO.P,_1,33*%
%TO.N,AGND*%
X134890000Y-131497500D03*
D13*
%TO.P,_1,34*%
%TO.N,GP28*%
X134890000Y-128957500D03*
%TO.P,_1,35*%
%TO.N,ADC_VREF*%
X134890000Y-126417500D03*
%TO.P,_1,36*%
%TO.N,3V3*%
X134890000Y-123877500D03*
%TO.P,_1,37*%
%TO.N,3V3_EN*%
X134890000Y-121337500D03*
D14*
%TO.P,_1,38*%
%TO.N,GND*%
X134890000Y-118797500D03*
D13*
%TO.P,_1,39*%
%TO.N,VSYS*%
X134890000Y-116257500D03*
%TO.P,_1,40*%
%TO.N,VBUS*%
X134890000Y-113717500D03*
%TD*%
D10*
%TO.P,D11,1*%
%TO.N,GP19*%
X103190000Y-151160000D03*
D11*
X105350000Y-151160000D03*
%TO.P,D11,2*%
%TO.N,ring_top*%
X108650000Y-151160000D03*
D12*
X110810000Y-151160000D03*
%TD*%
D10*
%TO.P,D24,1*%
%TO.N,GP17*%
X130500000Y-183807500D03*
D15*
X130500000Y-181647500D03*
%TO.P,D24,2*%
%TO.N,middle_bottom*%
X130500000Y-178347500D03*
D12*
X130500000Y-176187500D03*
%TD*%
D10*
%TO.P,D6,1*%
%TO.N,GP18*%
X84190000Y-179735000D03*
D11*
X86350000Y-179735000D03*
%TO.P,D6,2*%
%TO.N,pinky_home*%
X89650000Y-179735000D03*
D12*
X91810000Y-179735000D03*
%TD*%
D10*
%TO.P,D17,1*%
%TO.N,GP17*%
X160190000Y-192117500D03*
D11*
X162350000Y-192117500D03*
%TO.P,D17,2*%
%TO.N,inner_bottom*%
X165650000Y-192117500D03*
D12*
X167810000Y-192117500D03*
%TD*%
D10*
%TO.P,D26,1*%
%TO.N,GP19*%
X130500000Y-145707500D03*
D15*
X130500000Y-143547500D03*
%TO.P,D26,2*%
%TO.N,middle_top*%
X130500000Y-140247500D03*
D12*
X130500000Y-138087500D03*
%TD*%
D10*
%TO.P,D5,1*%
%TO.N,GP17*%
X84190000Y-198785000D03*
D11*
X86350000Y-198785000D03*
%TO.P,D5,2*%
%TO.N,pinky_bottom*%
X89650000Y-198785000D03*
D12*
X91810000Y-198785000D03*
%TD*%
D10*
%TO.P,D25,1*%
%TO.N,GP18*%
X130500000Y-164757500D03*
D15*
X130500000Y-162597500D03*
%TO.P,D25,2*%
%TO.N,middle_home*%
X130500000Y-159297500D03*
D12*
X130500000Y-157137500D03*
%TD*%
D16*
%TO.P,D21,1*%
%TO.N,GP16*%
X130941463Y-209485035D03*
D17*
X133068650Y-209860116D03*
%TO.P,D21,2*%
%TO.N,tuck_only*%
X136318516Y-210433154D03*
D12*
X138445703Y-210808235D03*
%TD*%
D10*
%TO.P,D20,1*%
%TO.N,GP20*%
X160190000Y-134967500D03*
D11*
X162350000Y-134967500D03*
%TO.P,D20,2*%
%TO.N,inner_num*%
X165650000Y-134967500D03*
D12*
X167810000Y-134967500D03*
%TD*%
D10*
%TO.P,D10,1*%
%TO.N,GP18*%
X103190000Y-170210000D03*
D11*
X105350000Y-170210000D03*
%TO.P,D10,2*%
%TO.N,ring_home*%
X108650000Y-170210000D03*
D12*
X110810000Y-170210000D03*
%TD*%
D10*
%TO.P,D27,1*%
%TO.N,GP20*%
X130500000Y-126657500D03*
D15*
X130500000Y-124497500D03*
%TO.P,D27,2*%
%TO.N,middle_num*%
X130500000Y-121197500D03*
D12*
X130500000Y-119037500D03*
%TD*%
D10*
%TO.P,D19,1*%
%TO.N,GP19*%
X160190000Y-154017500D03*
D11*
X162350000Y-154017500D03*
%TO.P,D19,2*%
%TO.N,inner_top*%
X165650000Y-154017500D03*
D12*
X167810000Y-154017500D03*
%TD*%
D10*
%TO.P,D18,1*%
%TO.N,GP18*%
X160190000Y-173067500D03*
D11*
X162350000Y-173067500D03*
%TO.P,D18,2*%
%TO.N,inner_home*%
X165650000Y-173067500D03*
D12*
X167810000Y-173067500D03*
%TD*%
D10*
%TO.P,D4,1*%
%TO.N,GP20*%
X65190000Y-145445000D03*
D11*
X67350000Y-145445000D03*
%TO.P,D4,2*%
%TO.N,outer_num*%
X70650000Y-145445000D03*
D12*
X72810000Y-145445000D03*
%TD*%
D10*
%TO.P,D1,1*%
%TO.N,GP17*%
X65190000Y-202595000D03*
D11*
X67350000Y-202595000D03*
%TO.P,D1,2*%
%TO.N,outer_bottom*%
X70650000Y-202595000D03*
D12*
X72810000Y-202595000D03*
%TD*%
D10*
%TO.P,D2,1*%
%TO.N,GP18*%
X65190000Y-183545000D03*
D11*
X67350000Y-183545000D03*
%TO.P,D2,2*%
%TO.N,outer_home*%
X70650000Y-183545000D03*
D12*
X72810000Y-183545000D03*
%TD*%
D10*
%TO.P,D12,1*%
%TO.N,GP20*%
X103190000Y-132110000D03*
D11*
X105350000Y-132110000D03*
%TO.P,D12,2*%
%TO.N,ring_num*%
X108650000Y-132110000D03*
D12*
X110810000Y-132110000D03*
%TD*%
D18*
%TO.P,D23,1*%
%TO.N,GP16*%
X170294919Y-219342207D03*
D19*
X172324655Y-220080971D03*
%TO.P,D23,2*%
%TO.N,reach_only*%
X175425641Y-221209637D03*
D12*
X177455377Y-221948401D03*
%TD*%
D20*
%TO.P,D22,1*%
%TO.N,GP16*%
X150833380Y-213554515D03*
D21*
X152919779Y-214113567D03*
%TO.P,D22,2*%
%TO.N,center_only*%
X156107335Y-214967667D03*
D12*
X158193734Y-215526719D03*
%TD*%
D10*
%TO.P,D7,1*%
%TO.N,GP19*%
X84190000Y-160685000D03*
D11*
X86350000Y-160685000D03*
%TO.P,D7,2*%
%TO.N,pinky_top*%
X89650000Y-160685000D03*
D12*
X91810000Y-160685000D03*
%TD*%
D10*
%TO.P,D14,1*%
%TO.N,GP18*%
X141190000Y-170210000D03*
D11*
X143350000Y-170210000D03*
%TO.P,D14,2*%
%TO.N,index_home*%
X146650000Y-170210000D03*
D12*
X148810000Y-170210000D03*
%TD*%
D22*
%TO.P,TRRS1,2*%
%TO.N,GND*%
X170800000Y-198317500D03*
%TO.P,TRRS1,3*%
%TO.N,GP1*%
X167800000Y-198317500D03*
%TO.P,TRRS1,4*%
%TO.N,3V3*%
X163800000Y-198317500D03*
%TO.P,TRRS1,5*%
%TO.N,GP0*%
X162700000Y-202917500D03*
%TD*%
D23*
%TO.N,outer_bottom*%
X72810000Y-202595000D02*
X70650000Y-202595000D01*
%TO.N,outer_home*%
X72810000Y-183545000D02*
X70650000Y-183545000D01*
%TO.N,outer_top*%
X72810000Y-164495000D02*
X70650000Y-164495000D01*
%TO.N,outer_num*%
X72810000Y-145445000D02*
X70650000Y-145445000D01*
%TO.N,pinky_bottom*%
X91810000Y-198785000D02*
X89650000Y-198785000D01*
%TO.N,pinky_home*%
X91810000Y-179735000D02*
X89650000Y-179735000D01*
%TO.N,pinky_top*%
X91810000Y-160685000D02*
X89650000Y-160685000D01*
%TO.N,pinky_num*%
X91810000Y-141635000D02*
X89650000Y-141635000D01*
%TO.N,ring_bottom*%
X110810000Y-189260000D02*
X108650000Y-189260000D01*
%TO.N,ring_home*%
X110810000Y-170210000D02*
X108650000Y-170210000D01*
%TO.N,ring_top*%
X110810000Y-151160000D02*
X108650000Y-151160000D01*
%TO.N,ring_num*%
X110810000Y-132110000D02*
X108650000Y-132110000D01*
%TO.N,index_bottom*%
X148810000Y-189260000D02*
X146650000Y-189260000D01*
%TO.N,index_home*%
X148810000Y-170210000D02*
X146650000Y-170210000D01*
%TO.N,index_top*%
X148810000Y-151160000D02*
X146650000Y-151160000D01*
%TO.N,index_num*%
X148810000Y-132110000D02*
X146650000Y-132110000D01*
%TO.N,inner_bottom*%
X167810000Y-192117500D02*
X165650000Y-192117500D01*
%TO.N,inner_home*%
X167810000Y-173067500D02*
X165650000Y-173067500D01*
%TO.N,inner_top*%
X167810000Y-154017500D02*
X165650000Y-154017500D01*
%TO.N,inner_num*%
X167810000Y-134967500D02*
X165650000Y-134967500D01*
%TO.N,tuck_only*%
X136693597Y-210808235D02*
X136318516Y-210433154D01*
X138445701Y-210808235D02*
X136693597Y-210808235D01*
%TO.N,center_only*%
X156107335Y-214967668D02*
X156666385Y-215526718D01*
X156666385Y-215526718D02*
X158193734Y-215526718D01*
%TO.N,reach_only*%
X176164405Y-221948401D02*
X177455377Y-221948401D01*
X175425641Y-221209637D02*
X176164405Y-221948401D01*
%TO.N,middle_bottom*%
X130500000Y-176187500D02*
X130500000Y-178347500D01*
%TO.N,middle_home*%
X130500000Y-157137500D02*
X130500000Y-159297500D01*
%TO.N,middle_top*%
X130500000Y-140247500D02*
X130500000Y-138087500D01*
%TO.N,middle_num*%
X130500000Y-119037500D02*
X130500000Y-121197500D01*
%TO.N,GP17*%
X65190000Y-202595000D02*
X68095000Y-205500000D01*
X118750000Y-194250000D02*
X129192500Y-183807500D01*
X89700000Y-202750000D02*
X103190000Y-189260000D01*
X72750000Y-205500000D02*
X79465000Y-198785000D01*
X133739000Y-180489000D02*
X133750000Y-180500000D01*
X108180000Y-194250000D02*
X118750000Y-194250000D01*
X129192500Y-183807500D02*
X130500000Y-183807500D01*
X130942500Y-183807500D02*
X130500000Y-183807500D01*
X84190000Y-199440000D02*
X87500000Y-202750000D01*
X79465000Y-198785000D02*
X84190000Y-198785000D01*
X160190000Y-192117500D02*
X162350000Y-192117500D01*
X135952500Y-189260000D02*
X130500000Y-183807500D01*
X87500000Y-202750000D02*
X89700000Y-202750000D01*
X160190000Y-192117500D02*
X144047500Y-192117500D01*
X133750000Y-181000000D02*
X130942500Y-183807500D01*
X103190000Y-189260000D02*
X105350000Y-189260000D01*
X141190000Y-189260000D02*
X135952500Y-189260000D01*
X133750000Y-180500000D02*
X133750000Y-181000000D01*
X141190000Y-189260000D02*
X143350000Y-189260000D01*
X130500000Y-183807500D02*
X130500000Y-181647500D01*
X84190000Y-198785000D02*
X86350000Y-198785000D01*
X133739000Y-160588500D02*
X133739000Y-180489000D01*
X103190000Y-189260000D02*
X108180000Y-194250000D01*
X134890000Y-159437500D02*
X133739000Y-160588500D01*
X84190000Y-198785000D02*
X84190000Y-199440000D01*
X144047500Y-192117500D02*
X141190000Y-189260000D01*
X68095000Y-205500000D02*
X72750000Y-205500000D01*
X65190000Y-202595000D02*
X67350000Y-202595000D01*
%TO.N,GP18*%
X160190000Y-173067500D02*
X162350000Y-173067500D01*
X143041000Y-164352811D02*
X141190000Y-166203811D01*
X142750000Y-172250000D02*
X157627500Y-172250000D01*
X65190000Y-183545000D02*
X65205000Y-183545000D01*
X84190000Y-179735000D02*
X84265000Y-179735000D01*
X141190000Y-170690000D02*
X142750000Y-172250000D01*
X141190000Y-166203811D02*
X141190000Y-170210000D01*
X157627500Y-172250000D02*
X158445000Y-173067500D01*
X133739000Y-155508500D02*
X134890000Y-154357500D01*
X130500000Y-161750000D02*
X130500000Y-162597500D01*
X141190000Y-170210000D02*
X141190000Y-170690000D01*
X105750000Y-168250000D02*
X125500000Y-168250000D01*
X67639900Y-181389900D02*
X82535100Y-181389900D01*
X86500000Y-177500000D02*
X86579900Y-177579900D01*
X95820100Y-177579900D02*
X103190000Y-170210000D01*
X130500000Y-164757500D02*
X130500000Y-161750000D01*
X84265000Y-179735000D02*
X86500000Y-177500000D01*
X82535100Y-181389900D02*
X84190000Y-179735000D01*
X86579900Y-177579900D02*
X95820100Y-177579900D01*
X141190000Y-170210000D02*
X143350000Y-170210000D01*
X125500000Y-168250000D02*
X128992500Y-164757500D01*
X136092081Y-154357500D02*
X143041000Y-161306419D01*
X133739000Y-158048500D02*
X133739000Y-155508500D01*
X130500000Y-161750000D02*
X130500000Y-161287500D01*
X130500000Y-161287500D02*
X133739000Y-158048500D01*
X103190000Y-170210000D02*
X105350000Y-170210000D01*
X130500000Y-164757500D02*
X130500000Y-162597500D01*
X134890000Y-154357500D02*
X136092081Y-154357500D01*
X103790000Y-170210000D02*
X105750000Y-168250000D01*
X158445000Y-173067500D02*
X160190000Y-173067500D01*
X67500000Y-181250000D02*
X67639900Y-181389900D01*
X84190000Y-179735000D02*
X86350000Y-179735000D01*
X128992500Y-164757500D02*
X130500000Y-164757500D01*
X65190000Y-183545000D02*
X67350000Y-183545000D01*
X143041000Y-161306419D02*
X143041000Y-164352811D01*
X65205000Y-183545000D02*
X67500000Y-181250000D01*
X103190000Y-170210000D02*
X103790000Y-170210000D01*
%TO.N,GP19*%
X65190000Y-164495000D02*
X67350000Y-164495000D01*
X108849689Y-148126500D02*
X105816189Y-151160000D01*
X105816189Y-151160000D02*
X103190000Y-151160000D01*
X117639660Y-148179400D02*
X117586760Y-148126500D01*
X128028100Y-148179400D02*
X117639660Y-148179400D01*
X140532500Y-151817500D02*
X141190000Y-151160000D01*
X86345100Y-158529900D02*
X84190000Y-160685000D01*
X130500000Y-145707500D02*
X130500000Y-147427500D01*
X84190000Y-160685000D02*
X86350000Y-160685000D01*
X141190000Y-151160000D02*
X143350000Y-151160000D01*
X117586760Y-148126500D02*
X108849689Y-148126500D01*
X144047500Y-154017500D02*
X141190000Y-151160000D01*
X134890000Y-151817500D02*
X140532500Y-151817500D01*
X103190000Y-151160000D02*
X95820100Y-158529900D01*
X130500000Y-147427500D02*
X134890000Y-151817500D01*
X160190000Y-154017500D02*
X144047500Y-154017500D01*
X162350000Y-154017500D02*
X160190000Y-154017500D01*
X95820100Y-158529900D02*
X86345100Y-158529900D01*
X130500000Y-145707500D02*
X128028100Y-148179400D01*
X84190000Y-160685000D02*
X82535100Y-162339900D01*
X130500000Y-143547500D02*
X130500000Y-145707500D01*
X67345100Y-162339900D02*
X65190000Y-164495000D01*
X82535100Y-162339900D02*
X67345100Y-162339900D01*
%TO.N,GP20*%
X141190000Y-132110000D02*
X143350000Y-132110000D01*
X105350000Y-132110000D02*
X103190000Y-132110000D01*
X103190000Y-132110000D02*
X95820100Y-139479900D01*
X160190000Y-134967500D02*
X162350000Y-134967500D01*
X141190000Y-132110000D02*
X136648500Y-127568500D01*
X103190000Y-132110000D02*
X105191500Y-130108500D01*
X159956500Y-134734000D02*
X143814000Y-134734000D01*
X105191500Y-130108500D02*
X127049000Y-130108500D01*
X81633500Y-144191500D02*
X66443500Y-144191500D01*
X86345100Y-139479900D02*
X84190000Y-141635000D01*
X95820100Y-139479900D02*
X86345100Y-139479900D01*
X133362500Y-147750000D02*
X134890000Y-149277500D01*
X130500000Y-126657500D02*
X130500000Y-124497500D01*
X127049000Y-130108500D02*
X130500000Y-126657500D01*
X65190000Y-145445000D02*
X67350000Y-145445000D01*
X160190000Y-134967500D02*
X159956500Y-134734000D01*
X143814000Y-134734000D02*
X141190000Y-132110000D01*
X132000000Y-128157500D02*
X132000000Y-147750000D01*
X131411000Y-127568500D02*
X130500000Y-126657500D01*
X84190000Y-141635000D02*
X81633500Y-144191500D01*
X130500000Y-126657500D02*
X132000000Y-128157500D01*
X132000000Y-147750000D02*
X133362500Y-147750000D01*
X136648500Y-127568500D02*
X131411000Y-127568500D01*
X84190000Y-141635000D02*
X86350000Y-141635000D01*
X66443500Y-144191500D02*
X65190000Y-145445000D01*
%TO.N,GP16*%
X152360729Y-213554516D02*
X152919779Y-214113566D01*
X170294919Y-219342207D02*
X156621071Y-219342207D01*
X134890000Y-170140000D02*
X134890000Y-161977500D01*
X135010946Y-213554516D02*
X130941465Y-209485035D01*
X142333647Y-195000000D02*
X169750000Y-195000000D01*
X169750000Y-195000000D02*
X169750000Y-192284783D01*
X150833380Y-213554516D02*
X135010946Y-213554516D01*
X133068650Y-209860116D02*
X131316546Y-209860116D01*
X170294919Y-219342207D02*
X171033683Y-220080971D01*
X130941465Y-206392182D02*
X142333647Y-195000000D01*
X167427617Y-189962400D02*
X153712400Y-189962400D01*
X130941465Y-209485035D02*
X130941465Y-206392182D01*
X156621071Y-219342207D02*
X150833380Y-213554516D01*
X150833380Y-213554516D02*
X152360729Y-213554516D01*
X153712400Y-189962400D02*
X153500000Y-189750000D01*
X143000000Y-178250000D02*
X134890000Y-170140000D01*
X131316546Y-209860116D02*
X130941465Y-209485035D01*
X169750000Y-192284783D02*
X167427617Y-189962400D01*
X171033683Y-220080971D02*
X172324655Y-220080971D01*
X153370257Y-189750000D02*
X143000000Y-179379743D01*
X143000000Y-179379743D02*
X143000000Y-178250000D01*
X153500000Y-189750000D02*
X153370257Y-189750000D01*
%TO.N,3V3*%
X169336000Y-201718500D02*
X172856049Y-201718500D01*
X173500000Y-121432900D02*
X172567100Y-120500000D01*
X173500000Y-201074549D02*
X173500000Y-121432900D01*
X154500000Y-120500000D02*
X152000000Y-118000000D01*
X163800000Y-198317500D02*
X165935000Y-198317500D01*
X172567100Y-120500000D02*
X154500000Y-120500000D01*
X152000000Y-118000000D02*
X140767500Y-118000000D01*
X172856049Y-201718500D02*
X173500000Y-201074549D01*
X165935000Y-198317500D02*
X169336000Y-201718500D01*
X140767500Y-118000000D02*
X134890000Y-123877500D01*
%TO.N,GP0*%
X174250000Y-194750000D02*
X174250000Y-192750000D01*
X154706500Y-120043500D02*
X154658550Y-120091450D01*
X172224149Y-202917500D02*
X174250000Y-200891649D01*
X174250000Y-121615800D02*
X172677700Y-120043500D01*
X162700000Y-202917500D02*
X172224149Y-202917500D01*
X174250000Y-192750000D02*
X174250000Y-121615800D01*
X174250000Y-195250000D02*
X174250000Y-192750000D01*
X174250000Y-195250000D02*
X174250000Y-194750000D01*
X123649743Y-113717500D02*
X117110000Y-113717500D01*
X172677700Y-120043500D02*
X154706500Y-120043500D01*
X174250000Y-200891649D02*
X174250000Y-195250000D01*
X152067100Y-117500000D02*
X127432243Y-117500000D01*
X127432243Y-117500000D02*
X123649743Y-113717500D01*
X154658550Y-120091450D02*
X152067100Y-117500000D01*
%TO.N,GP1*%
X167800000Y-198317500D02*
X168901000Y-199418500D01*
X142500000Y-118750000D02*
X136000000Y-125250000D01*
X172500000Y-192750000D02*
X172500000Y-189500000D01*
X172500000Y-121500000D02*
X172750000Y-121250000D01*
X168901000Y-199418500D02*
X171556049Y-199418500D01*
X172500000Y-197250000D02*
X172500000Y-192750000D01*
X154250000Y-121000000D02*
X152000000Y-118750000D01*
X172500000Y-189500000D02*
X172500000Y-121500000D01*
X132904500Y-125250000D02*
X128157100Y-120502600D01*
X118261000Y-120266209D02*
X118261000Y-117408500D01*
X172500000Y-189500000D02*
X172500000Y-197250000D01*
X118261000Y-117408500D02*
X117110000Y-116257500D01*
X121686709Y-122158500D02*
X120153291Y-122158500D01*
X128157100Y-120502600D02*
X123342609Y-120502600D01*
X136000000Y-125250000D02*
X132904500Y-125250000D01*
X171556049Y-199418500D02*
X172500000Y-198474549D01*
X120153291Y-122158500D02*
X118261000Y-120266209D01*
X172750000Y-121250000D02*
X172500000Y-121000000D01*
X123342609Y-120502600D02*
X121686709Y-122158500D01*
X152000000Y-118750000D02*
X142500000Y-118750000D01*
X172500000Y-121000000D02*
X154250000Y-121000000D01*
X172500000Y-198474549D02*
X172500000Y-197250000D01*
%TO.N,GND*%
X136041000Y-170723900D02*
X136041000Y-158048500D01*
X145781000Y-181531000D02*
X145000000Y-180750000D01*
X136041000Y-158048500D02*
X134890000Y-156897500D01*
X170800000Y-191101311D02*
X161229689Y-181531000D01*
X161229689Y-181531000D02*
X145781000Y-181531000D01*
X145000000Y-180750000D02*
X145000000Y-179682900D01*
X170800000Y-198317500D02*
X170800000Y-191101311D01*
X145000000Y-179682900D02*
X136041000Y-170723900D01*
%TD*%
M02*
