0
SECTION
2
HEADER
9
$INSUNITS
70
4
0
ENDSEC
0
SECTION
2
TABLES
0
TABLE
2
LTYPE
0
LTYPE
72
65
70
64
2
CONTINUOUS
3
______
73
0
40
0
0
ENDTAB
0
TABLE
2
LAYER
0
ENDTAB
0
ENDSEC
0
SECTION
2
ENTITIES
0
ARC
8
0
10
59.8750002
20
-208.9062133
40
4.5
50
180
51
271.4897856
0
ARC
8
0
10
59.9274689
20
-210.905525
40
2.5
50
271.478982
51
271.5032897
0
ARC
8
0
10
69.1094895
20
-560.7850621
40
347.5
50
76.5068865
51
91.5032897
0
ARC
8
0
10
150.7744613
20
-220.445772
40
2.5
50
256.506887
51
274.7249352
0
LINE
8
0
10
150.9803919
20
-222.9372761
11
161.6111643
21
-225.7857829
0
LINE
8
0
10
161.6111643
20
-225.7857829
11
181.1485278
21
-232.8968016
0
ARC
8
0
10
182.0035781
20
-230.54757
40
2.5
50
250.0000002
51
339.9999989
0
LINE
8
0
10
184.3528097
20
-231.4026204
11
191.2103135
21
-212.5617832
0
ARC
8
0
10
188.861082
20
-211.7067329
40
2.5
50
340.0000001
51
340.0243104
0
ARC
8
0
10
186.9816967
20
-211.0226926
40
4.5
50
340.0135063
51
430.0000019
0
LINE
8
0
10
188.5207873
20
-206.7940758
11
177.525
21
-202.7919366
0
LINE
8
0
10
177.525
20
-202.7919366
11
177.525
21
-121.4425
0
ARC
8
0
10
173.025
20
-121.4425
40
4.5
50
0
51
90
0
LINE
8
0
10
173.025
20
-116.9425
11
158.2145338
21
-116.9425
0
ARC
8
0
10
154.025
20
-118.585
40
4.5
50
21.4075829
51
90
0
LINE
8
0
10
154.025
20
-114.085
11
139.525
21
-114.085
0
LINE
8
0
10
139.525
20
-114.085
11
139.525
21
-113.8225
0
ARC
8
0
10
135.025
20
-113.8225
40
4.5
50
0
51
90
0
LINE
8
0
10
135.025
20
-109.3225
11
116.975
21
-109.3225
0
ARC
8
0
10
116.975
20
-113.8225
40
4.5
50
90
51
180
0
LINE
8
0
10
112.475
20
-113.8225
11
112.475
21
-114.085
0
LINE
8
0
10
112.475
20
-114.085
11
97.975
21
-114.085
0
ARC
8
0
10
97.975
20
-118.585
40
4.5
50
90
51
180
0
LINE
8
0
10
93.475
20
-118.585
11
93.475
21
-123.61
0
LINE
8
0
10
93.475
20
-123.61
11
76.975
21
-123.61
0
ARC
8
0
10
76.975
20
-126.11
40
2.5
50
90
51
180
0
LINE
8
0
10
74.475
20
-126.11
11
74.475
21
-127.42
0
LINE
8
0
10
74.475
20
-127.42
11
59.975
21
-127.42
0
ARC
8
0
10
59.975
20
-131.92
40
4.5
50
90
51
180
0
LINE
8
0
10
55.475
20
-197.9960602
11
55.475
21
-131.92
0
LINE
8
0
10
55.475
20
-197.9960602
11
55.4129806
21
-198.3477897
0
ARC
8
0
10
57.875
20
-198.7819102
40
2.5
50
169.9999995
51
180.0000001
0
LINE
8
0
10
55.3750001
20
-208.9062133
11
55.375
21
-198.7819102
0
ARC
8
0
10
57.8750001
20
-208.9062133
40
2.5
50
180.0000006
51
180.0243095
0
LINE
8
0
10
57.475
20
-198.1710375
11
57.475
21
-131.92
0
ARC
8
0
10
59.975
20
-131.92
40
2.5
50
90
51
180
0
LINE
8
0
10
74.975
20
-129.42
11
59.975
21
-129.42
0
ARC
8
0
10
74.975
20
-127.92
40
1.5
50
270
51
360
0
LINE
8
0
10
76.475
20
-126.11
11
76.475
21
-127.92
0
ARC
8
0
10
76.975
20
-126.11
40
0.5
50
90
51
180
0
LINE
8
0
10
93.975
20
-125.61
11
76.975
21
-125.61
0
ARC
8
0
10
93.975
20
-124.11
40
1.5
50
270
51
360
0
LINE
8
0
10
95.475
20
-118.585
11
95.475
21
-124.11
0
ARC
8
0
10
97.975
20
-118.585
40
2.5
50
90
51
180
0
LINE
8
0
10
112.975
20
-116.085
11
97.975
21
-116.085
0
ARC
8
0
10
112.975
20
-114.585
40
1.5
50
270
51
360
0
LINE
8
0
10
114.475
20
-113.8225
11
114.475
21
-114.585
0
ARC
8
0
10
116.975
20
-113.8225
40
2.5
50
90
51
180
0
LINE
8
0
10
135.025
20
-111.3225
11
116.975
21
-111.3225
0
ARC
8
0
10
135.025
20
-113.8225
40
2.5
50
0
51
90
0
LINE
8
0
10
137.525
20
-114.585
11
137.525
21
-113.8225
0
ARC
8
0
10
139.025
20
-114.585
40
1.5
50
180
51
270
0
LINE
8
0
10
154.025
20
-116.085
11
139.025
21
-116.085
0
ARC
8
0
10
154.025
20
-118.585
40
2.5
50
0
51
90
0
LINE
8
0
10
156.525
20
-118.9425
11
156.525
21
-118.585
0
LINE
8
0
10
173.025
20
-118.9425
11
156.525
21
-118.9425
0
ARC
8
0
10
173.025
20
-121.4425
40
2.5
50
0
51
90
0
LINE
8
0
10
175.525
20
-203.1420404
11
175.525
21
-121.4425
0
ARC
8
0
10
177.025
20
-203.1420404
40
1.5
50
180
51
250.0000019
0
LINE
8
0
10
187.8364498
20
-208.6733529
11
176.5119699
21
-204.5515794
0
ARC
8
0
10
186.9816967
20
-211.0226926
40
2.5
50
340.0081036
51
430.0000019
0
LINE
8
0
10
182.4734244
20
-230.7185801
11
189.3309283
21
-211.8777429
0
ARC
8
0
10
182.0035781
20
-230.54757
40
0.5
50
250.0000002
51
339.9999937
0
LINE
8
0
10
162.21315
20
-223.8765322
11
181.8325681
21
-231.0174164
0
LINE
8
0
10
151.02476
20
-220.8786121
11
162.21315
21
-223.8765322
0
ARC
8
0
10
150.7744613
20
-220.445772
40
0.5
50
256.5068919
51
300.0395321
0
ARC
8
0
10
69.1094895
20
-560.7850621
40
349.5
50
76.5068865
51
91.5032897
0
ARC
8
0
10
59.8750002
20
-208.9062133
40
2.5
50
180.0081039
51
271.4951862
0
LINE
8
0
10
57.3750001
20
-208.9062133
11
57.375
21
-198.7819102
0
ARC
8
0
10
57.875
20
-198.7819102
40
0.5
50
169.9999995
51
180.0000004
0
LINE
8
0
10
57.475
20
-198.1710375
11
57.3825961
21
-198.6950861
0
ENDSEC
0
EOF