0
SECTION
2
HEADER
9
$INSUNITS
70
4
0
ENDSEC
0
SECTION
2
TABLES
0
TABLE
2
LTYPE
0
LTYPE
72
65
70
64
2
CONTINUOUS
3
______
73
0
40
0
0
ENDTAB
0
TABLE
2
LAYER
0
ENDTAB
0
ENDSEC
0
SECTION
2
ENTITIES
0
LINE
8
0
10
364.975
20
-211.025
11
369.8480938
21
-211.025
0
LINE
8
0
10
370.2837871
20
-211.025
11
385.025
21
-211.025
0
LINE
8
0
10
387.025
20
-209.025
11
387.025
21
-133.825
0
LINE
8
0
10
364.9750003
20
-210.8784445
11
364.975
21
-211.025
0
LINE
8
0
10
385.025
20
-131.825
11
368.025
21
-131.825
0
LINE
8
0
10
368.025
20
-131.825
11
368.025
21
-129.92
0
LINE
8
0
10
368.025
20
-129.92
11
351.025
21
-129.92
0
LINE
8
0
10
349.025
20
-127.92
11
349.025
21
-126.11
0
LINE
8
0
10
349.025
20
-126.11
11
332.025
21
-126.11
0
LINE
8
0
10
330.025
20
-124.11
11
330.025
21
-118.585
0
LINE
8
0
10
328.025
20
-116.585
11
313.025
21
-116.585
0
LINE
8
0
10
311.025
20
-114.585
11
311.025
21
-113.8225
0
LINE
8
0
10
309.025
20
-111.8225
11
290.975
21
-111.8225
0
LINE
8
0
10
288.975
20
-113.8225
11
288.975
21
-114.585
0
LINE
8
0
10
286.975
20
-116.585
11
271.975
21
-116.585
0
LINE
8
0
10
269.975
20
-118.585
11
269.975
21
-119.4425
0
LINE
8
0
10
250.975
20
-203.1420404
11
250.975
21
-121.4425
0
LINE
8
0
10
269.975
20
-119.4425
11
252.975
21
-119.4425
0
LINE
8
0
10
263.636354
20
-223.3992194
11
275.1999687
21
-220.3007582
0
LINE
8
0
10
243.9964219
20
-230.54757
11
263.636354
21
-223.3992194
0
LINE
8
0
10
249.6590402
20
-205.0214257
11
238.3342631
21
-209.1433074
0
LINE
8
0
10
237.138918
20
-211.7067329
11
243.9964219
21
-230.54757
0
LINE
8
0
10
370.2867009
20
-211.0415245
11
370.2837871
21
-211.025
0
LINE
8
0
10
275.1999687
20
-220.3007582
11
275.2255387
21
-220.445772
0
ARC
8
0
10
356.8905105
20
-560.7850621
40
350
50
447.806478
51
447.8783299
0
ARC
8
0
10
356.8905105
20
-560.7850621
40
350
50
448.6764333
51
463.4931135
0
ARC
8
0
10
385.025
20
-209.025
40
2
50
270
51
0
0
ARC
8
0
10
385.025
20
-133.825
40
2
50
0
51
90
0
ARC
8
0
10
351.025
20
-127.92
40
2
50
180
51
270
0
ARC
8
0
10
332.025
20
-124.11
40
2
50
180
51
270
0
ARC
8
0
10
328.025
20
-118.585
40
2
50
0
51
90
0
ARC
8
0
10
313.025
20
-114.585
40
2
50
180
51
270
0
ARC
8
0
10
309.025
20
-113.8225
40
2
50
0
51
90
0
ARC
8
0
10
290.975
20
-113.8225
40
2
50
90
51
180
0
ARC
8
0
10
286.975
20
-114.585
40
2
50
270
51
0
0
ARC
8
0
10
271.975
20
-118.585
40
2
50
90
51
180
0
ARC
8
0
10
252.975
20
-121.4425
40
2
50
90
51
180
0
ARC
8
0
10
248.975
20
-203.1420404
40
2
50
289.9999981
51
0
0
ARC
8
0
10
239.0183033
20
-211.0226926
40
2
50
109.9999981
51
199.9999981
0
ENDSEC
0
EOF