0
SECTION
2
HEADER
9
$INSUNITS
70
4
0
ENDSEC
0
SECTION
2
TABLES
0
TABLE
2
LTYPE
0
LTYPE
72
65
70
64
2
CONTINUOUS
3
______
73
0
40
0
0
ENDTAB
0
TABLE
2
LAYER
0
ENDTAB
0
ENDSEC
0
SECTION
2
ENTITIES
0
LINE
8
0
10
364.975
20
-213.525
11
369.8017179
21
-213.525
0
ARC
8
0
10
356.8905105
20
-560.7850621
40
347.5
50
87.806478
51
87.8707108
0
ARC
8
0
10
370.2867009
20
-211.0415245
40
2.5
50
267.8064774
51
276.5913028
0
LINE
8
0
10
370.5736668
20
-213.525
11
385.025
21
-213.525
0
ARC
8
0
10
385.025
20
-209.025
40
4.5
50
270
51
360
0
LINE
8
0
10
389.525
20
-209.025
11
389.525
21
-133.825
0
ARC
8
0
10
385.025
20
-133.825
40
4.5
50
0
51
90
0
LINE
8
0
10
385.025
20
-129.325
11
370.4531629
21
-129.325
0
ARC
8
0
10
368.025
20
-129.92
40
2.5
50
13.7685287
51
90
0
LINE
8
0
10
368.025
20
-127.42
11
351.525
21
-127.42
0
LINE
8
0
10
351.525
20
-127.42
11
351.525
21
-126.11
0
ARC
8
0
10
349.025
20
-126.11
40
2.5
50
0
51
90
0
LINE
8
0
10
349.025
20
-123.61
11
332.525
21
-123.61
0
LINE
8
0
10
332.525
20
-123.61
11
332.525
21
-118.585
0
ARC
8
0
10
328.025
20
-118.585
40
4.5
50
0
51
90
0
LINE
8
0
10
328.025
20
-114.085
11
313.525
21
-114.085
0
LINE
8
0
10
313.525
20
-114.085
11
313.525
21
-113.8225
0
ARC
8
0
10
309.025
20
-113.8225
40
4.5
50
0
51
90
0
LINE
8
0
10
309.025
20
-109.3225
11
290.975
21
-109.3225
0
ARC
8
0
10
290.975
20
-113.8225
40
4.5
50
90
51
180
0
LINE
8
0
10
286.475
20
-113.8225
11
286.475
21
-114.085
0
LINE
8
0
10
286.475
20
-114.085
11
271.975
21
-114.085
0
ARC
8
0
10
271.975
20
-118.585
40
4.5
50
90
51
158.5924171
0
LINE
8
0
10
267.7854662
20
-116.9425
11
252.975
21
-116.9425
0
ARC
8
0
10
252.975
20
-121.4425
40
4.5
50
90
51
180
0
LINE
8
0
10
248.475
20
-202.7919366
11
248.475
21
-121.4425
0
LINE
8
0
10
248.475
20
-202.7919366
11
237.4798772
21
-206.793834
0
ARC
8
0
10
239.0183033
20
-211.0226926
40
4.5
50
109.9999981
51
199.9999981
0
ARC
8
0
10
237.138918
20
-211.7067329
40
2.5
50
199.9756896
51
199.9999999
0
LINE
8
0
10
234.7896864
20
-212.5617833
11
241.6471903
21
-231.4026204
0
ARC
8
0
10
243.9964219
20
-230.54757
40
2.5
50
199.9999999
51
289.9999998
0
LINE
8
0
10
244.8514723
20
-232.8968016
11
264.3888343
21
-225.7857834
0
LINE
8
0
10
264.3888343
20
-225.7857834
11
275.0196082
21
-222.9372761
0
ARC
8
0
10
275.2255387
20
-220.445772
40
2.5
50
265.275067
51
283.4931132
0
ARC
8
0
10
356.8905105
20
-560.7850621
40
347.5
50
88.8144499
51
103.4931135
0
ARC
8
0
10
364.975
20
-211.025
40
2.5
50
249.0319459
51
270
0
LINE
8
0
10
364.975
20
-211.525
11
369.8388315
21
-211.525
0
ARC
8
0
10
356.8905105
20
-560.7850621
40
349.5
50
87.806478
51
87.8768127
0
ARC
8
0
10
370.2867009
20
-211.0415245
40
0.5
50
267.8064796
51
284.7713456
0
LINE
8
0
10
370.414182
20
-211.525
11
385.025
21
-211.525
0
ARC
8
0
10
385.025
20
-209.025
40
2.5
50
270
51
360
0
LINE
8
0
10
387.525
20
-209.025
11
387.525
21
-133.825
0
ARC
8
0
10
385.025
20
-133.825
40
2.5
50
0
51
90
0
LINE
8
0
10
385.025
20
-131.325
11
368.525
21
-131.325
0
LINE
8
0
10
368.525
20
-131.325
11
368.525
21
-129.92
0
ARC
8
0
10
368.025
20
-129.92
40
0.5
50
0
51
90
0
LINE
8
0
10
368.025
20
-129.42
11
351.025
21
-129.42
0
ARC
8
0
10
351.025
20
-127.92
40
1.5
50
180
51
270
0
LINE
8
0
10
349.525
20
-127.92
11
349.525
21
-126.11
0
ARC
8
0
10
349.025
20
-126.11
40
0.5
50
0
51
90
0
LINE
8
0
10
349.025
20
-125.61
11
332.025
21
-125.61
0
ARC
8
0
10
332.025
20
-124.11
40
1.5
50
180
51
270
0
LINE
8
0
10
330.525
20
-124.11
11
330.525
21
-118.585
0
ARC
8
0
10
328.025
20
-118.585
40
2.5
50
0
51
90
0
LINE
8
0
10
328.025
20
-116.085
11
313.025
21
-116.085
0
ARC
8
0
10
313.025
20
-114.585
40
1.5
50
180
51
270
0
LINE
8
0
10
311.525
20
-114.585
11
311.525
21
-113.8225
0
ARC
8
0
10
309.025
20
-113.8225
40
2.5
50
0
51
90
0
LINE
8
0
10
309.025
20
-111.3225
11
290.975
21
-111.3225
0
ARC
8
0
10
290.975
20
-113.8225
40
2.5
50
90
51
180
0
LINE
8
0
10
288.475
20
-113.8225
11
288.475
21
-114.585
0
ARC
8
0
10
286.975
20
-114.585
40
1.5
50
270
51
360
0
LINE
8
0
10
286.975
20
-116.085
11
271.975
21
-116.085
0
ARC
8
0
10
271.975
20
-118.585
40
2.5
50
90
51
180
0
LINE
8
0
10
269.475
20
-118.585
11
269.475
21
-118.9425
0
LINE
8
0
10
269.475
20
-118.9425
11
252.975
21
-118.9425
0
ARC
8
0
10
252.975
20
-121.4425
40
2.5
50
90
51
180
0
LINE
8
0
10
250.475
20
-203.1420404
11
250.475
21
-121.4425
0
ARC
8
0
10
248.975
20
-203.1420404
40
1.5
50
289.9999981
51
360
0
LINE
8
0
10
249.4880301
20
-204.5515794
11
238.1635502
21
-208.6733529
0
ARC
8
0
10
239.0183033
20
-211.0226926
40
2.5
50
109.9999981
51
199.9918942
0
LINE
8
0
10
236.6690717
20
-211.877743
11
243.5265756
21
-230.7185801
0
ARC
8
0
10
243.9964219
20
-230.54757
40
0.5
50
200.0000003
51
289.9999998
0
LINE
8
0
10
244.167432
20
-231.0174163
11
263.7868506
21
-223.876532
0
LINE
8
0
10
263.7868506
20
-223.876532
11
274.97524
21
-220.8786121
0
ARC
8
0
10
275.2255387
20
-220.445772
40
0.5
50
239.9604679
51
283.4931089
0
ARC
8
0
10
356.8905105
20
-560.7850621
40
349.5
50
88.7338214
51
103.4931135
0
ARC
8
0
10
364.975
20
-211.025
40
0.5
50
223.6935297
51
270
0
ENDSEC
0
EOF