0
SECTION
2
HEADER
9
$INSUNITS
70
4
0
ENDSEC
0
SECTION
2
TABLES
0
TABLE
2
LTYPE
0
LTYPE
72
65
70
64
2
CONTINUOUS
3
______
73
0
40
0
0
ENDTAB
0
TABLE
2
LAYER
0
ENDTAB
0
ENDSEC
0
SECTION
2
ENTITIES
0
LINE
8
0
10
57.975
20
-198.214782
11
57.975
21
-131.92
0
LINE
8
0
10
74.975
20
-129.92
11
59.975
21
-129.92
0
LINE
8
0
10
93.975
20
-126.11
11
76.975
21
-126.11
0
LINE
8
0
10
76.975
20
-126.11
11
76.975
21
-127.92
0
LINE
8
0
10
112.975
20
-116.585
11
97.975
21
-116.585
0
LINE
8
0
10
95.975
20
-118.585
11
95.975
21
-124.11
0
LINE
8
0
10
137.025
20
-114.585
11
137.025
21
-113.8225
0
LINE
8
0
10
135.025
20
-111.8225
11
116.975
21
-111.8225
0
LINE
8
0
10
114.975
20
-113.8225
11
114.975
21
-114.585
0
LINE
8
0
10
156.025
20
-119.4425
11
156.025
21
-118.585
0
LINE
8
0
10
154.025
20
-116.585
11
139.025
21
-116.585
0
LINE
8
0
10
175.025
20
-203.1420404
11
175.025
21
-121.4425
0
LINE
8
0
10
173.025
20
-119.4425
11
156.025
21
-119.4425
0
LINE
8
0
10
150.8000313
20
-220.3007582
11
162.363646
21
-223.3992194
0
LINE
8
0
10
162.363646
20
-223.3992194
11
182.0035781
21
-230.54757
0
LINE
8
0
10
182.0035781
20
-230.54757
11
188.861082
21
-211.7067329
0
LINE
8
0
10
187.6657369
20
-209.1433074
11
176.3409598
21
-205.0214257
0
LINE
8
0
10
150.7744613
20
-220.445772
11
150.8000313
21
-220.3007582
0
LINE
8
0
10
57.975
20
-198.214782
11
57.875
21
-198.7819101
0
ARC
8
0
10
69.1094895
20
-560.7850621
40
350
50
76.5068865
51
91.5032897
0
LINE
8
0
10
57.8750001
20
-208.9062133
11
57.875
21
-198.7819101
0
ARC
8
0
10
59.975
20
-131.92
40
2
50
90
51
180
0
ARC
8
0
10
74.975
20
-127.92
40
2
50
270
51
0
0
ARC
8
0
10
93.975
20
-124.11
40
2
50
270
51
0
0
ARC
8
0
10
97.975
20
-118.585
40
2
50
90
51
180
0
ARC
8
0
10
112.975
20
-114.585
40
2
50
270
51
0
0
ARC
8
0
10
116.975
20
-113.8225
40
2
50
90
51
180
0
ARC
8
0
10
135.025
20
-113.8225
40
2
50
0
51
90
0
ARC
8
0
10
139.025
20
-114.585
40
2
50
180
51
270
0
ARC
8
0
10
154.025
20
-118.585
40
2
50
0
51
90
0
ARC
8
0
10
173.025
20
-121.4425
40
2
50
0
51
90
0
ARC
8
0
10
177.025
20
-203.1420404
40
2
50
180
51
250.0000019
0
ARC
8
0
10
186.9816967
20
-211.0226926
40
2
50
340.0000019
51
70.0000019
0
ARC
8
0
10
59.8750002
20
-208.9062133
40
2
50
180
51
271.5032897
0
ENDSEC
0
EOF