0
SECTION
2
HEADER
9
$INSUNITS
70
4
0
ENDSEC
0
SECTION
2
TABLES
0
TABLE
2
LTYPE
0
LTYPE
72
65
70
64
2
CONTINUOUS
3
______
73
0
40
0
0
ENDTAB
0
TABLE
2
LAYER
0
ENDTAB
0
ENDSEC
0
SECTION
2
ENTITIES
0
LINE
8
0
10
57.975
20
-198.214782
11
57.975
21
-131.92
0
LINE
8
0
10
74.975
20
-129.92
11
59.975
21
-129.92
0
LINE
8
0
10
93.975
20
-126.11
11
76.975
21
-126.11
0
LINE
8
0
10
76.975
20
-126.11
11
76.975
21
-127.92
0
LINE
8
0
10
112.975
20
-116.585
11
97.975
21
-116.585
0
LINE
8
0
10
95.975
20
-118.585
11
95.975
21
-124.11
0
LINE
8
0
10
137.025
20
-114.585
11
137.025
21
-113.8225
0
LINE
8
0
10
135.025
20
-111.8225
11
116.975
21
-111.8225
0
LINE
8
0
10
114.975
20
-113.8225
11
114.975
21
-114.585
0
LINE
8
0
10
156.025
20
-119.4425
11
156.025
21
-118.585
0
LINE
8
0
10
154.025
20
-116.585
11
139.025
21
-116.585
0
LINE
8
0
10
175.025
20
-203.1420404
11
175.025
21
-121.4425
0
LINE
8
0
10
173.025
20
-119.4425
11
156.025
21
-119.4425
0
LINE
8
0
10
150.8000313
20
-220.3007582
11
162.363646
21
-223.3992194
0
LINE
8
0
10
162.363646
20
-223.3992194
11
182.0035781
21
-230.54757
0
LINE
8
0
10
182.0035781
20
-230.54757
11
188.861082
21
-211.7067329
0
LINE
8
0
10
187.6657369
20
-209.1433074
11
176.3409598
21
-205.0214257
0
LINE
8
0
10
364.975
20
-211.025
11
369.8480938
21
-211.025
0
LINE
8
0
10
370.2837871
20
-211.025
11
385.025
21
-211.025
0
LINE
8
0
10
387.025
20
-209.025
11
387.025
21
-133.825
0
LINE
8
0
10
364.9750003
20
-210.8784445
11
364.975
21
-211.025
0
LINE
8
0
10
385.025
20
-131.825
11
368.025
21
-131.825
0
LINE
8
0
10
368.025
20
-131.825
11
368.025
21
-129.92
0
LINE
8
0
10
368.025
20
-129.92
11
351.025
21
-129.92
0
LINE
8
0
10
349.025
20
-127.92
11
349.025
21
-126.11
0
LINE
8
0
10
349.025
20
-126.11
11
332.025
21
-126.11
0
LINE
8
0
10
330.025
20
-124.11
11
330.025
21
-118.585
0
LINE
8
0
10
328.025
20
-116.585
11
313.025
21
-116.585
0
LINE
8
0
10
311.025
20
-114.585
11
311.025
21
-113.8225
0
LINE
8
0
10
309.025
20
-111.8225
11
290.975
21
-111.8225
0
LINE
8
0
10
288.975
20
-113.8225
11
288.975
21
-114.585
0
LINE
8
0
10
286.975
20
-116.585
11
271.975
21
-116.585
0
LINE
8
0
10
269.975
20
-118.585
11
269.975
21
-119.4425
0
LINE
8
0
10
250.975
20
-203.1420404
11
250.975
21
-121.4425
0
LINE
8
0
10
269.975
20
-119.4425
11
252.975
21
-119.4425
0
LINE
8
0
10
263.636354
20
-223.3992194
11
275.1999687
21
-220.3007582
0
LINE
8
0
10
243.9964219
20
-230.54757
11
263.636354
21
-223.3992194
0
LINE
8
0
10
249.6590402
20
-205.0214257
11
238.3342631
21
-209.1433074
0
LINE
8
0
10
237.138918
20
-211.7067329
11
243.9964219
21
-230.54757
0
LINE
8
0
10
150.7744613
20
-220.445772
11
150.8000313
21
-220.3007582
0
LINE
8
0
10
57.975
20
-198.214782
11
57.875
21
-198.7819101
0
LINE
8
0
10
370.2867009
20
-211.0415245
11
370.2837871
21
-211.025
0
LINE
8
0
10
275.1999687
20
-220.3007582
11
275.2255387
21
-220.445772
0
ARC
8
0
10
356.8905105
20
-560.7850621
40
350
50
447.806478
51
447.8783299
0
ARC
8
0
10
356.8905105
20
-560.7850621
40
350
50
448.6764333
51
463.4931135
0
ARC
8
0
10
69.1094895
20
-560.7850621
40
350
50
76.5068865
51
91.5032897
0
LINE
8
0
10
57.8750001
20
-208.9062133
11
57.875
21
-198.7819101
0
ARC
8
0
10
385.025
20
-209.025
40
2
50
270
51
0
0
ARC
8
0
10
385.025
20
-133.825
40
2
50
0
51
90
0
ARC
8
0
10
351.025
20
-127.92
40
2
50
180
51
270
0
ARC
8
0
10
332.025
20
-124.11
40
2
50
180
51
270
0
ARC
8
0
10
328.025
20
-118.585
40
2
50
0
51
90
0
ARC
8
0
10
313.025
20
-114.585
40
2
50
180
51
270
0
ARC
8
0
10
309.025
20
-113.8225
40
2
50
0
51
90
0
ARC
8
0
10
290.975
20
-113.8225
40
2
50
90
51
180
0
ARC
8
0
10
286.975
20
-114.585
40
2
50
270
51
0
0
ARC
8
0
10
271.975
20
-118.585
40
2
50
90
51
180
0
ARC
8
0
10
252.975
20
-121.4425
40
2
50
90
51
180
0
ARC
8
0
10
248.975
20
-203.1420404
40
2
50
289.9999981
51
0
0
ARC
8
0
10
239.0183033
20
-211.0226926
40
2
50
109.9999981
51
199.9999981
0
ARC
8
0
10
59.975
20
-131.92
40
2
50
90
51
180
0
ARC
8
0
10
74.975
20
-127.92
40
2
50
270
51
0
0
ARC
8
0
10
93.975
20
-124.11
40
2
50
270
51
0
0
ARC
8
0
10
97.975
20
-118.585
40
2
50
90
51
180
0
ARC
8
0
10
112.975
20
-114.585
40
2
50
270
51
0
0
ARC
8
0
10
116.975
20
-113.8225
40
2
50
90
51
180
0
ARC
8
0
10
135.025
20
-113.8225
40
2
50
0
51
90
0
ARC
8
0
10
139.025
20
-114.585
40
2
50
180
51
270
0
ARC
8
0
10
154.025
20
-118.585
40
2
50
0
51
90
0
ARC
8
0
10
173.025
20
-121.4425
40
2
50
0
51
90
0
ARC
8
0
10
177.025
20
-203.1420404
40
2
50
180
51
250.0000019
0
ARC
8
0
10
186.9816967
20
-211.0226926
40
2
50
340.0000019
51
70.0000019
0
ARC
8
0
10
59.8750002
20
-208.9062133
40
2
50
180
51
271.5032897
0
LINE
8
0
10
62.5
20
-205.095
11
75.5
21
-205.095
0
LINE
8
0
10
76
20
-204.595
11
76
21
-191.595
0
LINE
8
0
10
75.5
20
-191.095
11
62.5
21
-191.095
0
LINE
8
0
10
62
20
-191.595
11
62
21
-204.595
0
ARC
8
0
10
75.5
20
-204.595
40
0.5
50
270
51
0
0
ARC
8
0
10
75.5
20
-191.595
40
0.5
50
0
51
90
0
ARC
8
0
10
62.5
20
-191.595
40
0.5
50
90
51
180
0
ARC
8
0
10
62.5
20
-204.595
40
0.5
50
180
51
270
0
LINE
8
0
10
62.5
20
-186.045
11
75.5
21
-186.045
0
LINE
8
0
10
76
20
-185.545
11
76
21
-172.545
0
LINE
8
0
10
75.5
20
-172.045
11
62.5
21
-172.045
0
LINE
8
0
10
62
20
-172.545
11
62
21
-185.545
0
ARC
8
0
10
75.5
20
-185.545
40
0.5
50
270
51
0
0
ARC
8
0
10
75.5
20
-172.545
40
0.5
50
0
51
90
0
ARC
8
0
10
62.5
20
-172.545
40
0.5
50
90
51
180
0
ARC
8
0
10
62.5
20
-185.545
40
0.5
50
180
51
270
0
LINE
8
0
10
62.5
20
-166.995
11
75.5
21
-166.995
0
LINE
8
0
10
76
20
-166.495
11
76
21
-153.495
0
LINE
8
0
10
75.5
20
-152.995
11
62.5
21
-152.995
0
LINE
8
0
10
62
20
-153.495
11
62
21
-166.495
0
ARC
8
0
10
75.5
20
-166.495
40
0.5
50
270
51
0
0
ARC
8
0
10
75.5
20
-153.495
40
0.5
50
0
51
90
0
ARC
8
0
10
62.5
20
-153.495
40
0.5
50
90
51
180
0
ARC
8
0
10
62.5
20
-166.495
40
0.5
50
180
51
270
0
LINE
8
0
10
62.5
20
-147.945
11
75.5
21
-147.945
0
LINE
8
0
10
76
20
-147.445
11
76
21
-134.445
0
LINE
8
0
10
75.5
20
-133.945
11
62.5
21
-133.945
0
LINE
8
0
10
62
20
-134.445
11
62
21
-147.445
0
ARC
8
0
10
75.5
20
-147.445
40
0.5
50
270
51
0
0
ARC
8
0
10
75.5
20
-134.445
40
0.5
50
0
51
90
0
ARC
8
0
10
62.5
20
-134.445
40
0.5
50
90
51
180
0
ARC
8
0
10
62.5
20
-147.445
40
0.5
50
180
51
270
0
LINE
8
0
10
81.5
20
-201.285
11
94.5
21
-201.285
0
LINE
8
0
10
95
20
-200.785
11
95
21
-187.785
0
LINE
8
0
10
94.5
20
-187.285
11
81.5
21
-187.285
0
LINE
8
0
10
81
20
-187.785
11
81
21
-200.785
0
ARC
8
0
10
94.5
20
-200.785
40
0.5
50
270
51
0
0
ARC
8
0
10
94.5
20
-187.785
40
0.5
50
0
51
90
0
ARC
8
0
10
81.5
20
-187.785
40
0.5
50
90
51
180
0
ARC
8
0
10
81.5
20
-200.785
40
0.5
50
180
51
270
0
LINE
8
0
10
81.5
20
-182.235
11
94.5
21
-182.235
0
LINE
8
0
10
95
20
-181.735
11
95
21
-168.735
0
LINE
8
0
10
94.5
20
-168.235
11
81.5
21
-168.235
0
LINE
8
0
10
81
20
-168.735
11
81
21
-181.735
0
ARC
8
0
10
94.5
20
-181.735
40
0.5
50
270
51
0
0
ARC
8
0
10
94.5
20
-168.735
40
0.5
50
0
51
90
0
ARC
8
0
10
81.5
20
-168.735
40
0.5
50
90
51
180
0
ARC
8
0
10
81.5
20
-181.735
40
0.5
50
180
51
270
0
LINE
8
0
10
81.5
20
-163.185
11
94.5
21
-163.185
0
LINE
8
0
10
95
20
-162.685
11
95
21
-149.685
0
LINE
8
0
10
94.5
20
-149.185
11
81.5
21
-149.185
0
LINE
8
0
10
81
20
-149.685
11
81
21
-162.685
0
ARC
8
0
10
94.5
20
-162.685
40
0.5
50
270
51
0
0
ARC
8
0
10
94.5
20
-149.685
40
0.5
50
0
51
90
0
ARC
8
0
10
81.5
20
-149.685
40
0.5
50
90
51
180
0
ARC
8
0
10
81.5
20
-162.685
40
0.5
50
180
51
270
0
LINE
8
0
10
81.5
20
-144.135
11
94.5
21
-144.135
0
LINE
8
0
10
95
20
-143.635
11
95
21
-130.635
0
LINE
8
0
10
94.5
20
-130.135
11
81.5
21
-130.135
0
LINE
8
0
10
81
20
-130.635
11
81
21
-143.635
0
ARC
8
0
10
94.5
20
-143.635
40
0.5
50
270
51
0
0
ARC
8
0
10
94.5
20
-130.635
40
0.5
50
0
51
90
0
ARC
8
0
10
81.5
20
-130.635
40
0.5
50
90
51
180
0
ARC
8
0
10
81.5
20
-143.635
40
0.5
50
180
51
270
0
LINE
8
0
10
100.5
20
-191.76
11
113.5
21
-191.76
0
LINE
8
0
10
114
20
-191.26
11
114
21
-178.26
0
LINE
8
0
10
113.5
20
-177.76
11
100.5
21
-177.76
0
LINE
8
0
10
100
20
-178.26
11
100
21
-191.26
0
ARC
8
0
10
113.5
20
-191.26
40
0.5
50
270
51
0
0
ARC
8
0
10
113.5
20
-178.26
40
0.5
50
0
51
90
0
ARC
8
0
10
100.5
20
-178.26
40
0.5
50
90
51
180
0
ARC
8
0
10
100.5
20
-191.26
40
0.5
50
180
51
270
0
LINE
8
0
10
100.5
20
-172.71
11
113.5
21
-172.71
0
LINE
8
0
10
114
20
-172.21
11
114
21
-159.21
0
LINE
8
0
10
113.5
20
-158.71
11
100.5
21
-158.71
0
LINE
8
0
10
100
20
-159.21
11
100
21
-172.21
0
ARC
8
0
10
113.5
20
-172.21
40
0.5
50
270
51
0
0
ARC
8
0
10
113.5
20
-159.21
40
0.5
50
0
51
90
0
ARC
8
0
10
100.5
20
-159.21
40
0.5
50
90
51
180
0
ARC
8
0
10
100.5
20
-172.21
40
0.5
50
180
51
270
0
LINE
8
0
10
100.5
20
-153.66
11
113.5
21
-153.66
0
LINE
8
0
10
114
20
-153.16
11
114
21
-140.16
0
LINE
8
0
10
113.5
20
-139.66
11
100.5
21
-139.66
0
LINE
8
0
10
100
20
-140.16
11
100
21
-153.16
0
ARC
8
0
10
113.5
20
-153.16
40
0.5
50
270
51
0
0
ARC
8
0
10
113.5
20
-140.16
40
0.5
50
0
51
90
0
ARC
8
0
10
100.5
20
-140.16
40
0.5
50
90
51
180
0
ARC
8
0
10
100.5
20
-153.16
40
0.5
50
180
51
270
0
LINE
8
0
10
100.5
20
-134.61
11
113.5
21
-134.61
0
LINE
8
0
10
114
20
-134.11
11
114
21
-121.11
0
LINE
8
0
10
113.5
20
-120.61
11
100.5
21
-120.61
0
LINE
8
0
10
100
20
-121.11
11
100
21
-134.11
0
ARC
8
0
10
113.5
20
-134.11
40
0.5
50
270
51
0
0
ARC
8
0
10
113.5
20
-121.11
40
0.5
50
0
51
90
0
ARC
8
0
10
100.5
20
-121.11
40
0.5
50
90
51
180
0
ARC
8
0
10
100.5
20
-134.11
40
0.5
50
180
51
270
0
LINE
8
0
10
138.5
20
-191.76
11
151.5
21
-191.76
0
LINE
8
0
10
152
20
-191.26
11
152
21
-178.26
0
LINE
8
0
10
151.5
20
-177.76
11
138.5
21
-177.76
0
LINE
8
0
10
138
20
-178.26
11
138
21
-191.26
0
ARC
8
0
10
151.5
20
-191.26
40
0.5
50
270
51
0
0
ARC
8
0
10
151.5
20
-178.26
40
0.5
50
0
51
90
0
ARC
8
0
10
138.5
20
-178.26
40
0.5
50
90
51
180
0
ARC
8
0
10
138.5
20
-191.26
40
0.5
50
180
51
270
0
LINE
8
0
10
138.5
20
-172.71
11
151.5
21
-172.71
0
LINE
8
0
10
152
20
-172.21
11
152
21
-159.21
0
LINE
8
0
10
151.5
20
-158.71
11
138.5
21
-158.71
0
LINE
8
0
10
138
20
-159.21
11
138
21
-172.21
0
ARC
8
0
10
151.5
20
-172.21
40
0.5
50
270
51
0
0
ARC
8
0
10
151.5
20
-159.21
40
0.5
50
0
51
90
0
ARC
8
0
10
138.5
20
-159.21
40
0.5
50
90
51
180
0
ARC
8
0
10
138.5
20
-172.21
40
0.5
50
180
51
270
0
LINE
8
0
10
138.5
20
-153.66
11
151.5
21
-153.66
0
LINE
8
0
10
152
20
-153.16
11
152
21
-140.16
0
LINE
8
0
10
151.5
20
-139.66
11
138.5
21
-139.66
0
LINE
8
0
10
138
20
-140.16
11
138
21
-153.16
0
ARC
8
0
10
151.5
20
-153.16
40
0.5
50
270
51
0
0
ARC
8
0
10
151.5
20
-140.16
40
0.5
50
0
51
90
0
ARC
8
0
10
138.5
20
-140.16
40
0.5
50
90
51
180
0
ARC
8
0
10
138.5
20
-153.16
40
0.5
50
180
51
270
0
LINE
8
0
10
138.5
20
-134.61
11
151.5
21
-134.61
0
LINE
8
0
10
152
20
-134.11
11
152
21
-121.11
0
LINE
8
0
10
151.5
20
-120.61
11
138.5
21
-120.61
0
LINE
8
0
10
138
20
-121.11
11
138
21
-134.11
0
ARC
8
0
10
151.5
20
-134.11
40
0.5
50
270
51
0
0
ARC
8
0
10
151.5
20
-121.11
40
0.5
50
0
51
90
0
ARC
8
0
10
138.5
20
-121.11
40
0.5
50
90
51
180
0
ARC
8
0
10
138.5
20
-134.11
40
0.5
50
180
51
270
0
LINE
8
0
10
157.5
20
-194.6175
11
170.5
21
-194.6175
0
LINE
8
0
10
171
20
-194.1175
11
171
21
-181.1175
0
LINE
8
0
10
170.5
20
-180.6175
11
157.5
21
-180.6175
0
LINE
8
0
10
157
20
-181.1175
11
157
21
-194.1175
0
ARC
8
0
10
170.5
20
-194.1175
40
0.5
50
270
51
0
0
ARC
8
0
10
170.5
20
-181.1175
40
0.5
50
0
51
90
0
ARC
8
0
10
157.5
20
-181.1175
40
0.5
50
90
51
180
0
ARC
8
0
10
157.5
20
-194.1175
40
0.5
50
180
51
270
0
LINE
8
0
10
157.5
20
-175.5675
11
170.5
21
-175.5675
0
LINE
8
0
10
171
20
-175.0675
11
171
21
-162.0675
0
LINE
8
0
10
170.5
20
-161.5675
11
157.5
21
-161.5675
0
LINE
8
0
10
157
20
-162.0675
11
157
21
-175.0675
0
ARC
8
0
10
170.5
20
-175.0675
40
0.5
50
270
51
0
0
ARC
8
0
10
170.5
20
-162.0675
40
0.5
50
0
51
90
0
ARC
8
0
10
157.5
20
-162.0675
40
0.5
50
90
51
180
0
ARC
8
0
10
157.5
20
-175.0675
40
0.5
50
180
51
270
0
LINE
8
0
10
157.5
20
-156.5175
11
170.5
21
-156.5175
0
LINE
8
0
10
171
20
-156.0175
11
171
21
-143.0175
0
LINE
8
0
10
170.5
20
-142.5175
11
157.5
21
-142.5175
0
LINE
8
0
10
157
20
-143.0175
11
157
21
-156.0175
0
ARC
8
0
10
170.5
20
-156.0175
40
0.5
50
270
51
0
0
ARC
8
0
10
170.5
20
-143.0175
40
0.5
50
0
51
90
0
ARC
8
0
10
157.5
20
-143.0175
40
0.5
50
90
51
180
0
ARC
8
0
10
157.5
20
-156.0175
40
0.5
50
180
51
270
0
LINE
8
0
10
157.5
20
-137.4675
11
170.5
21
-137.4675
0
LINE
8
0
10
171
20
-136.9675
11
171
21
-123.9675
0
LINE
8
0
10
170.5
20
-123.4675
11
157.5
21
-123.4675
0
LINE
8
0
10
157
20
-123.9675
11
157
21
-136.9675
0
ARC
8
0
10
170.5
20
-136.9675
40
0.5
50
270
51
0
0
ARC
8
0
10
170.5
20
-123.9675
40
0.5
50
0
51
90
0
ARC
8
0
10
157.5
20
-123.9675
40
0.5
50
90
51
180
0
ARC
8
0
10
157.5
20
-136.9675
40
0.5
50
180
51
270
0
LINE
8
0
10
127.8582124
20
-211.4799411
11
140.6607132
21
-213.7373674
0
LINE
8
0
10
141.2399411
20
-213.3317876
11
143.4973674
21
-200.5292868
0
LINE
8
0
10
143.0917876
20
-199.9500589
11
130.2892868
21
-197.6926326
0
LINE
8
0
10
129.7100589
20
-198.0982124
11
127.4526326
21
-210.9007132
0
ARC
8
0
10
140.7475372
20
-213.2449635
40
0.5
50
260
51
350
0
ARC
8
0
10
143.0049635
20
-200.4424628
40
0.5
50
350
51
80
0
ARC
8
0
10
130.2024628
20
-198.1850365
40
0.5
50
80
51
170
0
ARC
8
0
10
127.9450365
20
-210.9875372
40
0.5
50
170
51
260
0
LINE
8
0
10
147.5879912
20
-215.273108
11
160.145027
21
-218.6377556
0
LINE
8
0
10
160.7573994
20
-218.2842022
11
164.122047
21
-205.7271664
0
LINE
8
0
10
163.7684936
20
-205.114794
11
151.2114578
21
-201.7501464
0
LINE
8
0
10
150.5990854
20
-202.1036998
11
147.2344378
21
-214.6607356
0
ARC
8
0
10
160.2744365
20
-218.1547927
40
0.5
50
255
51
345
0
ARC
8
0
10
163.6390841
20
-205.5977569
40
0.5
50
345
51
75
0
ARC
8
0
10
151.0820483
20
-202.2331093
40
0.5
50
75
51
165
0
ARC
8
0
10
147.7174007
20
-214.7901451
40
0.5
50
165
51
255
0
LINE
8
0
10
166.912096
20
-220.7714042
11
179.1281
21
-225.2176661
0
LINE
8
0
10
179.7689564
20
-224.9188298
11
184.2152183
21
-212.7028258
0
LINE
8
0
10
183.916382
20
-212.0619694
11
171.700378
21
-207.6157075
0
LINE
8
0
10
171.0595216
20
-207.9145438
11
166.6132597
21
-220.1305478
0
ARC
8
0
10
179.2991101
20
-224.7478198
40
0.5
50
250
51
340
0
ARC
8
0
10
183.745372
20
-212.5318157
40
0.5
50
340
51
70
0
ARC
8
0
10
171.5293679
20
-208.0855538
40
0.5
50
70
51
160
0
ARC
8
0
10
167.083106
20
-220.3015579
40
0.5
50
160
51
250
0
LINE
8
0
10
369.5
20
-207
11
382.5
21
-207
0
LINE
8
0
10
383
20
-206.5
11
383
21
-193.5
0
LINE
8
0
10
382.5
20
-193
11
369.5
21
-193
0
LINE
8
0
10
369
20
-193.5
11
369
21
-206.5
0
ARC
8
0
10
382.5
20
-206.5
40
0.5
50
270
51
0
0
ARC
8
0
10
382.5
20
-193.5
40
0.5
50
0
51
90
0
ARC
8
0
10
369.5
20
-193.5
40
0.5
50
90
51
180
0
ARC
8
0
10
369.5
20
-206.5
40
0.5
50
180
51
270
0
LINE
8
0
10
369.5
20
-187.95
11
382.5
21
-187.95
0
LINE
8
0
10
383
20
-187.45
11
383
21
-174.45
0
LINE
8
0
10
382.5
20
-173.95
11
369.5
21
-173.95
0
LINE
8
0
10
369
20
-174.45
11
369
21
-187.45
0
ARC
8
0
10
382.5
20
-187.45
40
0.5
50
270
51
0
0
ARC
8
0
10
382.5
20
-174.45
40
0.5
50
0
51
90
0
ARC
8
0
10
369.5
20
-174.45
40
0.5
50
90
51
180
0
ARC
8
0
10
369.5
20
-187.45
40
0.5
50
180
51
270
0
LINE
8
0
10
369.5
20
-168.9
11
382.5
21
-168.9
0
LINE
8
0
10
383
20
-168.4
11
383
21
-155.4
0
LINE
8
0
10
382.5
20
-154.9
11
369.5
21
-154.9
0
LINE
8
0
10
369
20
-155.4
11
369
21
-168.4
0
ARC
8
0
10
382.5
20
-168.4
40
0.5
50
270
51
0
0
ARC
8
0
10
382.5
20
-155.4
40
0.5
50
0
51
90
0
ARC
8
0
10
369.5
20
-155.4
40
0.5
50
90
51
180
0
ARC
8
0
10
369.5
20
-168.4
40
0.5
50
180
51
270
0
LINE
8
0
10
369.5
20
-149.85
11
382.5
21
-149.85
0
LINE
8
0
10
383
20
-149.35
11
383
21
-136.35
0
LINE
8
0
10
382.5
20
-135.85
11
369.5
21
-135.85
0
LINE
8
0
10
369
20
-136.35
11
369
21
-149.35
0
ARC
8
0
10
382.5
20
-149.35
40
0.5
50
270
51
0
0
ARC
8
0
10
382.5
20
-136.35
40
0.5
50
0
51
90
0
ARC
8
0
10
369.5
20
-136.35
40
0.5
50
90
51
180
0
ARC
8
0
10
369.5
20
-149.35
40
0.5
50
180
51
270
0
LINE
8
0
10
350.5
20
-205.095
11
363.5
21
-205.095
0
LINE
8
0
10
364
20
-204.595
11
364
21
-191.595
0
LINE
8
0
10
363.5
20
-191.095
11
350.5
21
-191.095
0
LINE
8
0
10
350
20
-191.595
11
350
21
-204.595
0
ARC
8
0
10
363.5
20
-204.595
40
0.5
50
270
51
0
0
ARC
8
0
10
363.5
20
-191.595
40
0.5
50
0
51
90
0
ARC
8
0
10
350.5
20
-191.595
40
0.5
50
90
51
180
0
ARC
8
0
10
350.5
20
-204.595
40
0.5
50
180
51
270
0
LINE
8
0
10
350.5
20
-186.045
11
363.5
21
-186.045
0
LINE
8
0
10
364
20
-185.545
11
364
21
-172.545
0
LINE
8
0
10
363.5
20
-172.045
11
350.5
21
-172.045
0
LINE
8
0
10
350
20
-172.545
11
350
21
-185.545
0
ARC
8
0
10
363.5
20
-185.545
40
0.5
50
270
51
0
0
ARC
8
0
10
363.5
20
-172.545
40
0.5
50
0
51
90
0
ARC
8
0
10
350.5
20
-172.545
40
0.5
50
90
51
180
0
ARC
8
0
10
350.5
20
-185.545
40
0.5
50
180
51
270
0
LINE
8
0
10
350.5
20
-166.995
11
363.5
21
-166.995
0
LINE
8
0
10
364
20
-166.495
11
364
21
-153.495
0
LINE
8
0
10
363.5
20
-152.995
11
350.5
21
-152.995
0
LINE
8
0
10
350
20
-153.495
11
350
21
-166.495
0
ARC
8
0
10
363.5
20
-166.495
40
0.5
50
270
51
0
0
ARC
8
0
10
363.5
20
-153.495
40
0.5
50
0
51
90
0
ARC
8
0
10
350.5
20
-153.495
40
0.5
50
90
51
180
0
ARC
8
0
10
350.5
20
-166.495
40
0.5
50
180
51
270
0
LINE
8
0
10
350.5
20
-147.945
11
363.5
21
-147.945
0
LINE
8
0
10
364
20
-147.445
11
364
21
-134.445
0
LINE
8
0
10
363.5
20
-133.945
11
350.5
21
-133.945
0
LINE
8
0
10
350
20
-134.445
11
350
21
-147.445
0
ARC
8
0
10
363.5
20
-147.445
40
0.5
50
270
51
0
0
ARC
8
0
10
363.5
20
-134.445
40
0.5
50
0
51
90
0
ARC
8
0
10
350.5
20
-134.445
40
0.5
50
90
51
180
0
ARC
8
0
10
350.5
20
-147.445
40
0.5
50
180
51
270
0
LINE
8
0
10
331.5
20
-201.285
11
344.5
21
-201.285
0
LINE
8
0
10
345
20
-200.785
11
345
21
-187.785
0
LINE
8
0
10
344.5
20
-187.285
11
331.5
21
-187.285
0
LINE
8
0
10
331
20
-187.785
11
331
21
-200.785
0
ARC
8
0
10
344.5
20
-200.785
40
0.5
50
270
51
0
0
ARC
8
0
10
344.5
20
-187.785
40
0.5
50
0
51
90
0
ARC
8
0
10
331.5
20
-187.785
40
0.5
50
90
51
180
0
ARC
8
0
10
331.5
20
-200.785
40
0.5
50
180
51
270
0
LINE
8
0
10
331.5
20
-182.235
11
344.5
21
-182.235
0
LINE
8
0
10
345
20
-181.735
11
345
21
-168.735
0
LINE
8
0
10
344.5
20
-168.235
11
331.5
21
-168.235
0
LINE
8
0
10
331
20
-168.735
11
331
21
-181.735
0
ARC
8
0
10
344.5
20
-181.735
40
0.5
50
270
51
0
0
ARC
8
0
10
344.5
20
-168.735
40
0.5
50
0
51
90
0
ARC
8
0
10
331.5
20
-168.735
40
0.5
50
90
51
180
0
ARC
8
0
10
331.5
20
-181.735
40
0.5
50
180
51
270
0
LINE
8
0
10
331.5
20
-163.185
11
344.5
21
-163.185
0
LINE
8
0
10
345
20
-162.685
11
345
21
-149.685
0
LINE
8
0
10
344.5
20
-149.185
11
331.5
21
-149.185
0
LINE
8
0
10
331
20
-149.685
11
331
21
-162.685
0
ARC
8
0
10
344.5
20
-162.685
40
0.5
50
270
51
0
0
ARC
8
0
10
344.5
20
-149.685
40
0.5
50
0
51
90
0
ARC
8
0
10
331.5
20
-149.685
40
0.5
50
90
51
180
0
ARC
8
0
10
331.5
20
-162.685
40
0.5
50
180
51
270
0
LINE
8
0
10
331.5
20
-144.135
11
344.5
21
-144.135
0
LINE
8
0
10
345
20
-143.635
11
345
21
-130.635
0
LINE
8
0
10
344.5
20
-130.135
11
331.5
21
-130.135
0
LINE
8
0
10
331
20
-130.635
11
331
21
-143.635
0
ARC
8
0
10
344.5
20
-143.635
40
0.5
50
270
51
0
0
ARC
8
0
10
344.5
20
-130.635
40
0.5
50
0
51
90
0
ARC
8
0
10
331.5
20
-130.635
40
0.5
50
90
51
180
0
ARC
8
0
10
331.5
20
-143.635
40
0.5
50
180
51
270
0
LINE
8
0
10
312.5
20
-191.76
11
325.5
21
-191.76
0
LINE
8
0
10
326
20
-191.26
11
326
21
-178.26
0
LINE
8
0
10
325.5
20
-177.76
11
312.5
21
-177.76
0
LINE
8
0
10
312
20
-178.26
11
312
21
-191.26
0
ARC
8
0
10
325.5
20
-191.26
40
0.5
50
270
51
0
0
ARC
8
0
10
325.5
20
-178.26
40
0.5
50
0
51
90
0
ARC
8
0
10
312.5
20
-178.26
40
0.5
50
90
51
180
0
ARC
8
0
10
312.5
20
-191.26
40
0.5
50
180
51
270
0
LINE
8
0
10
312.5
20
-172.71
11
325.5
21
-172.71
0
LINE
8
0
10
326
20
-172.21
11
326
21
-159.21
0
LINE
8
0
10
325.5
20
-158.71
11
312.5
21
-158.71
0
LINE
8
0
10
312
20
-159.21
11
312
21
-172.21
0
ARC
8
0
10
325.5
20
-172.21
40
0.5
50
270
51
0
0
ARC
8
0
10
325.5
20
-159.21
40
0.5
50
0
51
90
0
ARC
8
0
10
312.5
20
-159.21
40
0.5
50
90
51
180
0
ARC
8
0
10
312.5
20
-172.21
40
0.5
50
180
51
270
0
LINE
8
0
10
312.5
20
-153.66
11
325.5
21
-153.66
0
LINE
8
0
10
326
20
-153.16
11
326
21
-140.16
0
LINE
8
0
10
325.5
20
-139.66
11
312.5
21
-139.66
0
LINE
8
0
10
312
20
-140.16
11
312
21
-153.16
0
ARC
8
0
10
325.5
20
-153.16
40
0.5
50
270
51
0
0
ARC
8
0
10
325.5
20
-140.16
40
0.5
50
0
51
90
0
ARC
8
0
10
312.5
20
-140.16
40
0.5
50
90
51
180
0
ARC
8
0
10
312.5
20
-153.16
40
0.5
50
180
51
270
0
LINE
8
0
10
312.5
20
-134.61
11
325.5
21
-134.61
0
LINE
8
0
10
326
20
-134.11
11
326
21
-121.11
0
LINE
8
0
10
325.5
20
-120.61
11
312.5
21
-120.61
0
LINE
8
0
10
312
20
-121.11
11
312
21
-134.11
0
ARC
8
0
10
325.5
20
-134.11
40
0.5
50
270
51
0
0
ARC
8
0
10
325.5
20
-121.11
40
0.5
50
0
51
90
0
ARC
8
0
10
312.5
20
-121.11
40
0.5
50
90
51
180
0
ARC
8
0
10
312.5
20
-134.11
40
0.5
50
180
51
270
0
LINE
8
0
10
274.5
20
-191.76
11
287.5
21
-191.76
0
LINE
8
0
10
288
20
-191.26
11
288
21
-178.26
0
LINE
8
0
10
287.5
20
-177.76
11
274.5
21
-177.76
0
LINE
8
0
10
274
20
-178.26
11
274
21
-191.26
0
ARC
8
0
10
287.5
20
-191.26
40
0.5
50
270
51
0
0
ARC
8
0
10
287.5
20
-178.26
40
0.5
50
0
51
90
0
ARC
8
0
10
274.5
20
-178.26
40
0.5
50
90
51
180
0
ARC
8
0
10
274.5
20
-191.26
40
0.5
50
180
51
270
0
LINE
8
0
10
274.5
20
-172.71
11
287.5
21
-172.71
0
LINE
8
0
10
288
20
-172.21
11
288
21
-159.21
0
LINE
8
0
10
287.5
20
-158.71
11
274.5
21
-158.71
0
LINE
8
0
10
274
20
-159.21
11
274
21
-172.21
0
ARC
8
0
10
287.5
20
-172.21
40
0.5
50
270
51
0
0
ARC
8
0
10
287.5
20
-159.21
40
0.5
50
0
51
90
0
ARC
8
0
10
274.5
20
-159.21
40
0.5
50
90
51
180
0
ARC
8
0
10
274.5
20
-172.21
40
0.5
50
180
51
270
0
LINE
8
0
10
274.5
20
-153.66
11
287.5
21
-153.66
0
LINE
8
0
10
288
20
-153.16
11
288
21
-140.16
0
LINE
8
0
10
287.5
20
-139.66
11
274.5
21
-139.66
0
LINE
8
0
10
274
20
-140.16
11
274
21
-153.16
0
ARC
8
0
10
287.5
20
-153.16
40
0.5
50
270
51
0
0
ARC
8
0
10
287.5
20
-140.16
40
0.5
50
0
51
90
0
ARC
8
0
10
274.5
20
-140.16
40
0.5
50
90
51
180
0
ARC
8
0
10
274.5
20
-153.16
40
0.5
50
180
51
270
0
LINE
8
0
10
274.5
20
-134.61
11
287.5
21
-134.61
0
LINE
8
0
10
288
20
-134.11
11
288
21
-121.11
0
LINE
8
0
10
287.5
20
-120.61
11
274.5
21
-120.61
0
LINE
8
0
10
274
20
-121.11
11
274
21
-134.11
0
ARC
8
0
10
287.5
20
-134.11
40
0.5
50
270
51
0
0
ARC
8
0
10
287.5
20
-121.11
40
0.5
50
0
51
90
0
ARC
8
0
10
274.5
20
-121.11
40
0.5
50
90
51
180
0
ARC
8
0
10
274.5
20
-134.11
40
0.5
50
180
51
270
0
LINE
8
0
10
255.5
20
-194.6175
11
268.5
21
-194.6175
0
LINE
8
0
10
269
20
-194.1175
11
269
21
-181.1175
0
LINE
8
0
10
268.5
20
-180.6175
11
255.5
21
-180.6175
0
LINE
8
0
10
255
20
-181.1175
11
255
21
-194.1175
0
ARC
8
0
10
268.5
20
-194.1175
40
0.5
50
270
51
0
0
ARC
8
0
10
268.5
20
-181.1175
40
0.5
50
0
51
90
0
ARC
8
0
10
255.5
20
-181.1175
40
0.5
50
90
51
180
0
ARC
8
0
10
255.5
20
-194.1175
40
0.5
50
180
51
270
0
LINE
8
0
10
255.5
20
-175.5675
11
268.5
21
-175.5675
0
LINE
8
0
10
269
20
-175.0675
11
269
21
-162.0675
0
LINE
8
0
10
268.5
20
-161.5675
11
255.5
21
-161.5675
0
LINE
8
0
10
255
20
-162.0675
11
255
21
-175.0675
0
ARC
8
0
10
268.5
20
-175.0675
40
0.5
50
270
51
0
0
ARC
8
0
10
268.5
20
-162.0675
40
0.5
50
0
51
90
0
ARC
8
0
10
255.5
20
-162.0675
40
0.5
50
90
51
180
0
ARC
8
0
10
255.5
20
-175.0675
40
0.5
50
180
51
270
0
LINE
8
0
10
255.5
20
-156.5175
11
268.5
21
-156.5175
0
LINE
8
0
10
269
20
-156.0175
11
269
21
-143.0175
0
LINE
8
0
10
268.5
20
-142.5175
11
255.5
21
-142.5175
0
LINE
8
0
10
255
20
-143.0175
11
255
21
-156.0175
0
ARC
8
0
10
268.5
20
-156.0175
40
0.5
50
270
51
0
0
ARC
8
0
10
268.5
20
-143.0175
40
0.5
50
0
51
90
0
ARC
8
0
10
255.5
20
-143.0175
40
0.5
50
90
51
180
0
ARC
8
0
10
255.5
20
-156.0175
40
0.5
50
180
51
270
0
LINE
8
0
10
255.5
20
-137.4675
11
268.5
21
-137.4675
0
LINE
8
0
10
269
20
-136.9675
11
269
21
-123.9675
0
LINE
8
0
10
268.5
20
-123.4675
11
255.5
21
-123.4675
0
LINE
8
0
10
255
20
-123.9675
11
255
21
-136.9675
0
ARC
8
0
10
268.5
20
-136.9675
40
0.5
50
270
51
0
0
ARC
8
0
10
268.5
20
-123.9675
40
0.5
50
0
51
90
0
ARC
8
0
10
255.5
20
-123.9675
40
0.5
50
90
51
180
0
ARC
8
0
10
255.5
20
-136.9675
40
0.5
50
180
51
270
0
LINE
8
0
10
285.3392868
20
-213.7373674
11
298.1417876
21
-211.4799411
0
LINE
8
0
10
298.5473674
20
-210.9007132
11
296.2899411
21
-198.0982124
0
LINE
8
0
10
295.7107132
20
-197.6926326
11
282.9082124
21
-199.9500589
0
LINE
8
0
10
282.5026326
20
-200.5292868
11
284.7600589
21
-213.3317876
0
ARC
8
0
10
298.0549635
20
-210.9875372
40
0.5
50
280
51
10
0
ARC
8
0
10
295.7975372
20
-198.1850365
40
0.5
50
10
51
100
0
ARC
8
0
10
282.9950365
20
-200.4424628
40
0.5
50
100
51
190
0
ARC
8
0
10
285.2524628
20
-213.2449635
40
0.5
50
190
51
280
0
LINE
8
0
10
265.854973
20
-218.6377556
11
278.4120088
21
-215.273108
0
LINE
8
0
10
278.7655622
20
-214.6607356
11
275.4009146
21
-202.1036998
0
LINE
8
0
10
274.7885422
20
-201.7501464
11
262.2315064
21
-205.114794
0
LINE
8
0
10
261.877953
20
-205.7271664
11
265.2426006
21
-218.2842022
0
ARC
8
0
10
278.2825993
20
-214.7901451
40
0.5
50
285
51
15
0
ARC
8
0
10
274.9179517
20
-202.2331093
40
0.5
50
15
51
105
0
ARC
8
0
10
262.3609159
20
-205.5977569
40
0.5
50
105
51
195
0
ARC
8
0
10
265.7255635
20
-218.1547927
40
0.5
50
195
51
285
0
LINE
8
0
10
246.8719
20
-225.2176661
11
259.087904
21
-220.7714042
0
LINE
8
0
10
259.3867403
20
-220.1305478
11
254.9404784
21
-207.9145438
0
LINE
8
0
10
254.299622
20
-207.6157075
11
242.083618
21
-212.0619694
0
LINE
8
0
10
241.7847817
20
-212.7028258
11
246.2310436
21
-224.9188298
0
ARC
8
0
10
258.916894
20
-220.3015579
40
0.5
50
290
51
20
0
ARC
8
0
10
254.4706321
20
-208.0855538
40
0.5
50
20
51
110
0
ARC
8
0
10
242.254628
20
-212.5318157
40
0.5
50
110
51
200
0
ARC
8
0
10
246.7008899
20
-224.7478198
40
0.5
50
200
51
290
0
LINE
8
0
10
133
20
-186.4975
11
133
21
-173.4975
0
LINE
8
0
10
132.5
20
-172.9975
11
119.5
21
-172.9975
0
LINE
8
0
10
119
20
-173.4975
11
119
21
-186.4975
0
LINE
8
0
10
119.5
20
-186.9975
11
132.5
21
-186.9975
0
ARC
8
0
10
132.5
20
-173.4975
40
0.5
50
0
51
90
0
ARC
8
0
10
119.5
20
-173.4975
40
0.5
50
90
51
180
0
ARC
8
0
10
119.5
20
-186.4975
40
0.5
50
180
51
270
0
ARC
8
0
10
132.5
20
-186.4975
40
0.5
50
270
51
0
0
LINE
8
0
10
133
20
-167.4475
11
133
21
-154.4475
0
LINE
8
0
10
132.5
20
-153.9475
11
119.5
21
-153.9475
0
LINE
8
0
10
119
20
-154.4475
11
119
21
-167.4475
0
LINE
8
0
10
119.5
20
-167.9475
11
132.5
21
-167.9475
0
ARC
8
0
10
132.5
20
-154.4475
40
0.5
50
0
51
90
0
ARC
8
0
10
119.5
20
-154.4475
40
0.5
50
90
51
180
0
ARC
8
0
10
119.5
20
-167.4475
40
0.5
50
180
51
270
0
ARC
8
0
10
132.5
20
-167.4475
40
0.5
50
270
51
0
0
LINE
8
0
10
133
20
-148.3975
11
133
21
-135.3975
0
LINE
8
0
10
132.5
20
-134.8975
11
119.5
21
-134.8975
0
LINE
8
0
10
119
20
-135.3975
11
119
21
-148.3975
0
LINE
8
0
10
119.5
20
-148.8975
11
132.5
21
-148.8975
0
ARC
8
0
10
132.5
20
-135.3975
40
0.5
50
0
51
90
0
ARC
8
0
10
119.5
20
-135.3975
40
0.5
50
90
51
180
0
ARC
8
0
10
119.5
20
-148.3975
40
0.5
50
180
51
270
0
ARC
8
0
10
132.5
20
-148.3975
40
0.5
50
270
51
0
0
LINE
8
0
10
133
20
-129.3475
11
133
21
-116.3475
0
LINE
8
0
10
132.5
20
-115.8475
11
119.5
21
-115.8475
0
LINE
8
0
10
119
20
-116.3475
11
119
21
-129.3475
0
LINE
8
0
10
119.5
20
-129.8475
11
132.5
21
-129.8475
0
ARC
8
0
10
132.5
20
-116.3475
40
0.5
50
0
51
90
0
ARC
8
0
10
119.5
20
-116.3475
40
0.5
50
90
51
180
0
ARC
8
0
10
119.5
20
-129.3475
40
0.5
50
180
51
270
0
ARC
8
0
10
132.5
20
-129.3475
40
0.5
50
270
51
0
0
LINE
8
0
10
293
20
-173.4975
11
293
21
-186.4975
0
LINE
8
0
10
293.5
20
-186.9975
11
306.5
21
-186.9975
0
LINE
8
0
10
307
20
-186.4975
11
307
21
-173.4975
0
LINE
8
0
10
306.5
20
-172.9975
11
293.5
21
-172.9975
0
ARC
8
0
10
293.5
20
-186.4975
40
0.5
50
180
51
270
0
ARC
8
0
10
306.5
20
-186.4975
40
0.5
50
270
51
0
0
ARC
8
0
10
306.5
20
-173.4975
40
0.5
50
0
51
90
0
ARC
8
0
10
293.5
20
-173.4975
40
0.5
50
90
51
180
0
LINE
8
0
10
293
20
-154.4475
11
293
21
-167.4475
0
LINE
8
0
10
293.5
20
-167.9475
11
306.5
21
-167.9475
0
LINE
8
0
10
307
20
-167.4475
11
307
21
-154.4475
0
LINE
8
0
10
306.5
20
-153.9475
11
293.5
21
-153.9475
0
ARC
8
0
10
293.5
20
-167.4475
40
0.5
50
180
51
270
0
ARC
8
0
10
306.5
20
-167.4475
40
0.5
50
270
51
0
0
ARC
8
0
10
306.5
20
-154.4475
40
0.5
50
0
51
90
0
ARC
8
0
10
293.5
20
-154.4475
40
0.5
50
90
51
180
0
LINE
8
0
10
293
20
-135.3975
11
293
21
-148.3975
0
LINE
8
0
10
293.5
20
-148.8975
11
306.5
21
-148.8975
0
LINE
8
0
10
307
20
-148.3975
11
307
21
-135.3975
0
LINE
8
0
10
306.5
20
-134.8975
11
293.5
21
-134.8975
0
ARC
8
0
10
293.5
20
-148.3975
40
0.5
50
180
51
270
0
ARC
8
0
10
306.5
20
-148.3975
40
0.5
50
270
51
0
0
ARC
8
0
10
306.5
20
-135.3975
40
0.5
50
0
51
90
0
ARC
8
0
10
293.5
20
-135.3975
40
0.5
50
90
51
180
0
LINE
8
0
10
293
20
-116.3475
11
293
21
-129.3475
0
LINE
8
0
10
293.5
20
-129.8475
11
306.5
21
-129.8475
0
LINE
8
0
10
307
20
-129.3475
11
307
21
-116.3475
0
LINE
8
0
10
306.5
20
-115.8475
11
293.5
21
-115.8475
0
ARC
8
0
10
293.5
20
-129.3475
40
0.5
50
180
51
270
0
ARC
8
0
10
306.5
20
-129.3475
40
0.5
50
270
51
0
0
ARC
8
0
10
306.5
20
-116.3475
40
0.5
50
0
51
90
0
ARC
8
0
10
293.5
20
-116.3475
40
0.5
50
90
51
180
0
CIRCLE
8
0
10
319
20
-175.235
40
1.5
0
CIRCLE
8
0
10
260.83943
20
-216.7391738
40
1.5
0
CIRCLE
8
0
10
281
20
-137.135
40
1.5
0
CIRCLE
8
0
10
281
20
-175.235
40
1.5
0
CIRCLE
8
0
10
376
20
-152.375
40
1.5
0
CIRCLE
8
0
10
376
20
-190.475
40
1.5
0
CIRCLE
8
0
10
107
20
-175.235
40
1.5
0
CIRCLE
8
0
10
165.16057
20
-216.7391738
40
1.5
0
CIRCLE
8
0
10
145
20
-137.135
40
1.5
0
CIRCLE
8
0
10
145
20
-175.235
40
1.5
0
CIRCLE
8
0
10
69
20
-150.47
40
1.5
0
CIRCLE
8
0
10
69
20
-188.57
40
1.5
0
ENDSEC
0
EOF