0
SECTION
2
HEADER
9
$INSUNITS
70
4
0
ENDSEC
0
SECTION
2
TABLES
0
TABLE
2
LTYPE
0
LTYPE
72
65
70
64
2
CONTINUOUS
3
______
73
0
40
0
0
ENDTAB
0
TABLE
2
LAYER
0
ENDTAB
0
ENDSEC
0
SECTION
2
ENTITIES
0
LINE
8
0
10
57.975
20
-198.214782
11
57.975
21
-131.92
0
LINE
8
0
10
74.975
20
-129.92
11
59.975
21
-129.92
0
LINE
8
0
10
93.975
20
-126.11
11
76.975
21
-126.11
0
LINE
8
0
10
76.975
20
-126.11
11
76.975
21
-127.92
0
LINE
8
0
10
112.975
20
-116.585
11
97.975
21
-116.585
0
LINE
8
0
10
95.975
20
-118.585
11
95.975
21
-124.11
0
LINE
8
0
10
137.025
20
-114.585
11
137.025
21
-113.8225
0
LINE
8
0
10
135.025
20
-111.8225
11
116.975
21
-111.8225
0
LINE
8
0
10
114.975
20
-113.8225
11
114.975
21
-114.585
0
LINE
8
0
10
156.025
20
-119.4425
11
156.025
21
-118.585
0
LINE
8
0
10
154.025
20
-116.585
11
139.025
21
-116.585
0
LINE
8
0
10
175.025
20
-203.1420404
11
175.025
21
-121.4425
0
LINE
8
0
10
173.025
20
-119.4425
11
156.025
21
-119.4425
0
LINE
8
0
10
150.8000313
20
-220.3007582
11
162.363646
21
-223.3992194
0
LINE
8
0
10
162.363646
20
-223.3992194
11
182.0035781
21
-230.54757
0
LINE
8
0
10
182.0035781
20
-230.54757
11
188.861082
21
-211.7067329
0
LINE
8
0
10
187.6657369
20
-209.1433074
11
176.3409598
21
-205.0214257
0
LINE
8
0
10
364.975
20
-211.025
11
369.8480938
21
-211.025
0
LINE
8
0
10
370.2837871
20
-211.025
11
385.025
21
-211.025
0
LINE
8
0
10
387.025
20
-209.025
11
387.025
21
-133.825
0
LINE
8
0
10
364.9750003
20
-210.8784445
11
364.975
21
-211.025
0
LINE
8
0
10
385.025
20
-131.825
11
368.025
21
-131.825
0
LINE
8
0
10
368.025
20
-131.825
11
368.025
21
-129.92
0
LINE
8
0
10
368.025
20
-129.92
11
351.025
21
-129.92
0
LINE
8
0
10
349.025
20
-127.92
11
349.025
21
-126.11
0
LINE
8
0
10
349.025
20
-126.11
11
332.025
21
-126.11
0
LINE
8
0
10
330.025
20
-124.11
11
330.025
21
-118.585
0
LINE
8
0
10
328.025
20
-116.585
11
313.025
21
-116.585
0
LINE
8
0
10
311.025
20
-114.585
11
311.025
21
-113.8225
0
LINE
8
0
10
309.025
20
-111.8225
11
290.975
21
-111.8225
0
LINE
8
0
10
288.975
20
-113.8225
11
288.975
21
-114.585
0
LINE
8
0
10
286.975
20
-116.585
11
271.975
21
-116.585
0
LINE
8
0
10
269.975
20
-118.585
11
269.975
21
-119.4425
0
LINE
8
0
10
250.975
20
-203.1420404
11
250.975
21
-121.4425
0
LINE
8
0
10
269.975
20
-119.4425
11
252.975
21
-119.4425
0
LINE
8
0
10
263.636354
20
-223.3992194
11
275.1999687
21
-220.3007582
0
LINE
8
0
10
243.9964219
20
-230.54757
11
263.636354
21
-223.3992194
0
LINE
8
0
10
249.6590402
20
-205.0214257
11
238.3342631
21
-209.1433074
0
LINE
8
0
10
237.138918
20
-211.7067329
11
243.9964219
21
-230.54757
0
LINE
8
0
10
150.7744613
20
-220.445772
11
150.8000313
21
-220.3007582
0
LINE
8
0
10
57.975
20
-198.214782
11
57.875
21
-198.7819101
0
LINE
8
0
10
370.2867009
20
-211.0415245
11
370.2837871
21
-211.025
0
LINE
8
0
10
275.1999687
20
-220.3007582
11
275.2255387
21
-220.445772
0
ARC
8
0
10
356.8905105
20
-560.7850621
40
350
50
447.806478
51
447.8783299
0
ARC
8
0
10
356.8905105
20
-560.7850621
40
350
50
448.6764333
51
463.4931135
0
ARC
8
0
10
69.1094895
20
-560.7850621
40
350
50
76.5068865
51
91.5032897
0
LINE
8
0
10
57.8750001
20
-208.9062133
11
57.875
21
-198.7819101
0
ARC
8
0
10
385.025
20
-209.025
40
2
50
270
51
0
0
ARC
8
0
10
385.025
20
-133.825
40
2
50
0
51
90
0
ARC
8
0
10
351.025
20
-127.92
40
2
50
180
51
270
0
ARC
8
0
10
332.025
20
-124.11
40
2
50
180
51
270
0
ARC
8
0
10
328.025
20
-118.585
40
2
50
0
51
90
0
ARC
8
0
10
313.025
20
-114.585
40
2
50
180
51
270
0
ARC
8
0
10
309.025
20
-113.8225
40
2
50
0
51
90
0
ARC
8
0
10
290.975
20
-113.8225
40
2
50
90
51
180
0
ARC
8
0
10
286.975
20
-114.585
40
2
50
270
51
0
0
ARC
8
0
10
271.975
20
-118.585
40
2
50
90
51
180
0
ARC
8
0
10
252.975
20
-121.4425
40
2
50
90
51
180
0
ARC
8
0
10
248.975
20
-203.1420404
40
2
50
289.9999981
51
0
0
ARC
8
0
10
239.0183033
20
-211.0226926
40
2
50
109.9999981
51
199.9999981
0
ARC
8
0
10
59.975
20
-131.92
40
2
50
90
51
180
0
ARC
8
0
10
74.975
20
-127.92
40
2
50
270
51
0
0
ARC
8
0
10
93.975
20
-124.11
40
2
50
270
51
0
0
ARC
8
0
10
97.975
20
-118.585
40
2
50
90
51
180
0
ARC
8
0
10
112.975
20
-114.585
40
2
50
270
51
0
0
ARC
8
0
10
116.975
20
-113.8225
40
2
50
90
51
180
0
ARC
8
0
10
135.025
20
-113.8225
40
2
50
0
51
90
0
ARC
8
0
10
139.025
20
-114.585
40
2
50
180
51
270
0
ARC
8
0
10
154.025
20
-118.585
40
2
50
0
51
90
0
ARC
8
0
10
173.025
20
-121.4425
40
2
50
0
51
90
0
ARC
8
0
10
177.025
20
-203.1420404
40
2
50
180
51
250.0000019
0
ARC
8
0
10
186.9816967
20
-211.0226926
40
2
50
340.0000019
51
70.0000019
0
ARC
8
0
10
59.8750002
20
-208.9062133
40
2
50
180
51
271.5032897
0
LINE
8
0
10
60
20
-207.095
11
78
21
-207.095
0
LINE
8
0
10
78
20
-207.095
11
78
21
-189.095
0
LINE
8
0
10
78
20
-189.095
11
60
21
-189.095
0
LINE
8
0
10
60
20
-189.095
11
60
21
-207.095
0
LINE
8
0
10
60
20
-188.045
11
78
21
-188.045
0
LINE
8
0
10
78
20
-188.045
11
78
21
-170.045
0
LINE
8
0
10
78
20
-170.045
11
60
21
-170.045
0
LINE
8
0
10
60
20
-170.045
11
60
21
-188.045
0
LINE
8
0
10
60
20
-168.995
11
78
21
-168.995
0
LINE
8
0
10
78
20
-168.995
11
78
21
-150.995
0
LINE
8
0
10
78
20
-150.995
11
60
21
-150.995
0
LINE
8
0
10
60
20
-150.995
11
60
21
-168.995
0
LINE
8
0
10
60
20
-149.945
11
78
21
-149.945
0
LINE
8
0
10
78
20
-149.945
11
78
21
-131.945
0
LINE
8
0
10
78
20
-131.945
11
60
21
-131.945
0
LINE
8
0
10
60
20
-131.945
11
60
21
-149.945
0
LINE
8
0
10
79
20
-203.285
11
97
21
-203.285
0
LINE
8
0
10
97
20
-203.285
11
97
21
-185.285
0
LINE
8
0
10
97
20
-185.285
11
79
21
-185.285
0
LINE
8
0
10
79
20
-185.285
11
79
21
-203.285
0
LINE
8
0
10
79
20
-184.235
11
97
21
-184.235
0
LINE
8
0
10
97
20
-184.235
11
97
21
-166.235
0
LINE
8
0
10
97
20
-166.235
11
79
21
-166.235
0
LINE
8
0
10
79
20
-166.235
11
79
21
-184.235
0
LINE
8
0
10
79
20
-165.185
11
97
21
-165.185
0
LINE
8
0
10
97
20
-165.185
11
97
21
-147.185
0
LINE
8
0
10
97
20
-147.185
11
79
21
-147.185
0
LINE
8
0
10
79
20
-147.185
11
79
21
-165.185
0
LINE
8
0
10
79
20
-146.135
11
97
21
-146.135
0
LINE
8
0
10
97
20
-146.135
11
97
21
-128.135
0
LINE
8
0
10
97
20
-128.135
11
79
21
-128.135
0
LINE
8
0
10
79
20
-128.135
11
79
21
-146.135
0
LINE
8
0
10
98
20
-193.76
11
116
21
-193.76
0
LINE
8
0
10
116
20
-193.76
11
116
21
-175.76
0
LINE
8
0
10
116
20
-175.76
11
98
21
-175.76
0
LINE
8
0
10
98
20
-175.76
11
98
21
-193.76
0
LINE
8
0
10
98
20
-174.71
11
116
21
-174.71
0
LINE
8
0
10
116
20
-174.71
11
116
21
-156.71
0
LINE
8
0
10
116
20
-156.71
11
98
21
-156.71
0
LINE
8
0
10
98
20
-156.71
11
98
21
-174.71
0
LINE
8
0
10
98
20
-155.66
11
116
21
-155.66
0
LINE
8
0
10
116
20
-155.66
11
116
21
-137.66
0
LINE
8
0
10
116
20
-137.66
11
98
21
-137.66
0
LINE
8
0
10
98
20
-137.66
11
98
21
-155.66
0
LINE
8
0
10
98
20
-136.61
11
116
21
-136.61
0
LINE
8
0
10
116
20
-136.61
11
116
21
-118.61
0
LINE
8
0
10
116
20
-118.61
11
98
21
-118.61
0
LINE
8
0
10
98
20
-118.61
11
98
21
-136.61
0
LINE
8
0
10
117
20
-188.9975
11
135
21
-188.9975
0
LINE
8
0
10
135
20
-188.9975
11
135
21
-170.9975
0
LINE
8
0
10
135
20
-170.9975
11
117
21
-170.9975
0
LINE
8
0
10
117
20
-170.9975
11
117
21
-188.9975
0
LINE
8
0
10
117
20
-169.9475
11
135
21
-169.9475
0
LINE
8
0
10
135
20
-169.9475
11
135
21
-151.9475
0
LINE
8
0
10
135
20
-151.9475
11
117
21
-151.9475
0
LINE
8
0
10
117
20
-151.9475
11
117
21
-169.9475
0
LINE
8
0
10
117
20
-150.8975
11
135
21
-150.8975
0
LINE
8
0
10
135
20
-150.8975
11
135
21
-132.8975
0
LINE
8
0
10
135
20
-132.8975
11
117
21
-132.8975
0
LINE
8
0
10
117
20
-132.8975
11
117
21
-150.8975
0
LINE
8
0
10
117
20
-131.8475
11
135
21
-131.8475
0
LINE
8
0
10
135
20
-131.8475
11
135
21
-113.8475
0
LINE
8
0
10
135
20
-113.8475
11
117
21
-113.8475
0
LINE
8
0
10
117
20
-113.8475
11
117
21
-131.8475
0
LINE
8
0
10
136
20
-193.76
11
154
21
-193.76
0
LINE
8
0
10
154
20
-193.76
11
154
21
-175.76
0
LINE
8
0
10
154
20
-175.76
11
136
21
-175.76
0
LINE
8
0
10
136
20
-175.76
11
136
21
-193.76
0
LINE
8
0
10
136
20
-174.71
11
154
21
-174.71
0
LINE
8
0
10
154
20
-174.71
11
154
21
-156.71
0
LINE
8
0
10
154
20
-156.71
11
136
21
-156.71
0
LINE
8
0
10
136
20
-156.71
11
136
21
-174.71
0
LINE
8
0
10
136
20
-155.66
11
154
21
-155.66
0
LINE
8
0
10
154
20
-155.66
11
154
21
-137.66
0
LINE
8
0
10
154
20
-137.66
11
136
21
-137.66
0
LINE
8
0
10
136
20
-137.66
11
136
21
-155.66
0
LINE
8
0
10
136
20
-136.61
11
154
21
-136.61
0
LINE
8
0
10
154
20
-136.61
11
154
21
-118.61
0
LINE
8
0
10
154
20
-118.61
11
136
21
-118.61
0
LINE
8
0
10
136
20
-118.61
11
136
21
-136.61
0
LINE
8
0
10
155
20
-196.6175
11
173
21
-196.6175
0
LINE
8
0
10
173
20
-196.6175
11
173
21
-178.6175
0
LINE
8
0
10
173
20
-178.6175
11
155
21
-178.6175
0
LINE
8
0
10
155
20
-178.6175
11
155
21
-196.6175
0
LINE
8
0
10
155
20
-177.5675
11
173
21
-177.5675
0
LINE
8
0
10
173
20
-177.5675
11
173
21
-159.5675
0
LINE
8
0
10
173
20
-159.5675
11
155
21
-159.5675
0
LINE
8
0
10
155
20
-159.5675
11
155
21
-177.5675
0
LINE
8
0
10
155
20
-158.5175
11
173
21
-158.5175
0
LINE
8
0
10
173
20
-158.5175
11
173
21
-140.5175
0
LINE
8
0
10
173
20
-140.5175
11
155
21
-140.5175
0
LINE
8
0
10
155
20
-140.5175
11
155
21
-158.5175
0
LINE
8
0
10
155
20
-139.4675
11
173
21
-139.4675
0
LINE
8
0
10
173
20
-139.4675
11
173
21
-121.4675
0
LINE
8
0
10
173
20
-121.4675
11
155
21
-121.4675
0
LINE
8
0
10
155
20
-121.4675
11
155
21
-139.4675
0
LINE
8
0
10
125.0488966
20
-213.0154362
11
142.7754362
21
-216.1411034
0
LINE
8
0
10
142.7754362
20
-216.1411034
11
145.9011034
21
-198.4145638
0
LINE
8
0
10
145.9011034
20
-198.4145638
11
128.1745638
21
-195.2888966
0
LINE
8
0
10
128.1745638
20
-195.2888966
11
125.0488966
21
-213.0154362
0
LINE
8
0
10
144.6555386
20
-216.557912
11
162.0422034
21
-221.2166548
0
LINE
8
0
10
162.0422034
20
-221.2166548
11
166.7009462
21
-203.82999
0
LINE
8
0
10
166.7009462
20
-203.82999
11
149.3142814
21
-199.1712472
0
LINE
8
0
10
149.3142814
20
-199.1712472
11
144.6555386
21
-216.557912
0
LINE
8
0
10
163.8788241
20
-221.7957391
11
180.7932913
21
-227.9521017
0
LINE
8
0
10
180.7932913
20
-227.9521017
11
186.9496539
21
-211.0376345
0
LINE
8
0
10
186.9496539
20
-211.0376345
11
170.0351867
21
-204.8812719
0
LINE
8
0
10
170.0351867
20
-204.8812719
11
163.8788241
21
-221.7957391
0
LINE
8
0
10
367
20
-209
11
385
21
-209
0
LINE
8
0
10
385
20
-209
11
385
21
-191
0
LINE
8
0
10
385
20
-191
11
367
21
-191
0
LINE
8
0
10
367
20
-191
11
367
21
-209
0
LINE
8
0
10
367
20
-189.95
11
385
21
-189.95
0
LINE
8
0
10
385
20
-189.95
11
385
21
-171.95
0
LINE
8
0
10
385
20
-171.95
11
367
21
-171.95
0
LINE
8
0
10
367
20
-171.95
11
367
21
-189.95
0
LINE
8
0
10
367
20
-170.9
11
385
21
-170.9
0
LINE
8
0
10
385
20
-170.9
11
385
21
-152.9
0
LINE
8
0
10
385
20
-152.9
11
367
21
-152.9
0
LINE
8
0
10
367
20
-152.9
11
367
21
-170.9
0
LINE
8
0
10
367
20
-151.85
11
385
21
-151.85
0
LINE
8
0
10
385
20
-151.85
11
385
21
-133.85
0
LINE
8
0
10
385
20
-133.85
11
367
21
-133.85
0
LINE
8
0
10
367
20
-133.85
11
367
21
-151.85
0
LINE
8
0
10
348
20
-207.095
11
366
21
-207.095
0
LINE
8
0
10
366
20
-207.095
11
366
21
-189.095
0
LINE
8
0
10
366
20
-189.095
11
348
21
-189.095
0
LINE
8
0
10
348
20
-189.095
11
348
21
-207.095
0
LINE
8
0
10
348
20
-188.045
11
366
21
-188.045
0
LINE
8
0
10
366
20
-188.045
11
366
21
-170.045
0
LINE
8
0
10
366
20
-170.045
11
348
21
-170.045
0
LINE
8
0
10
348
20
-170.045
11
348
21
-188.045
0
LINE
8
0
10
348
20
-168.995
11
366
21
-168.995
0
LINE
8
0
10
366
20
-168.995
11
366
21
-150.995
0
LINE
8
0
10
366
20
-150.995
11
348
21
-150.995
0
LINE
8
0
10
348
20
-150.995
11
348
21
-168.995
0
LINE
8
0
10
348
20
-149.945
11
366
21
-149.945
0
LINE
8
0
10
366
20
-149.945
11
366
21
-131.945
0
LINE
8
0
10
366
20
-131.945
11
348
21
-131.945
0
LINE
8
0
10
348
20
-131.945
11
348
21
-149.945
0
LINE
8
0
10
329
20
-203.285
11
347
21
-203.285
0
LINE
8
0
10
347
20
-203.285
11
347
21
-185.285
0
LINE
8
0
10
347
20
-185.285
11
329
21
-185.285
0
LINE
8
0
10
329
20
-185.285
11
329
21
-203.285
0
LINE
8
0
10
329
20
-184.235
11
347
21
-184.235
0
LINE
8
0
10
347
20
-184.235
11
347
21
-166.235
0
LINE
8
0
10
347
20
-166.235
11
329
21
-166.235
0
LINE
8
0
10
329
20
-166.235
11
329
21
-184.235
0
LINE
8
0
10
329
20
-165.185
11
347
21
-165.185
0
LINE
8
0
10
347
20
-165.185
11
347
21
-147.185
0
LINE
8
0
10
347
20
-147.185
11
329
21
-147.185
0
LINE
8
0
10
329
20
-147.185
11
329
21
-165.185
0
LINE
8
0
10
329
20
-146.135
11
347
21
-146.135
0
LINE
8
0
10
347
20
-146.135
11
347
21
-128.135
0
LINE
8
0
10
347
20
-128.135
11
329
21
-128.135
0
LINE
8
0
10
329
20
-128.135
11
329
21
-146.135
0
LINE
8
0
10
310
20
-193.76
11
328
21
-193.76
0
LINE
8
0
10
328
20
-193.76
11
328
21
-175.76
0
LINE
8
0
10
328
20
-175.76
11
310
21
-175.76
0
LINE
8
0
10
310
20
-175.76
11
310
21
-193.76
0
LINE
8
0
10
310
20
-174.71
11
328
21
-174.71
0
LINE
8
0
10
328
20
-174.71
11
328
21
-156.71
0
LINE
8
0
10
328
20
-156.71
11
310
21
-156.71
0
LINE
8
0
10
310
20
-156.71
11
310
21
-174.71
0
LINE
8
0
10
310
20
-155.66
11
328
21
-155.66
0
LINE
8
0
10
328
20
-155.66
11
328
21
-137.66
0
LINE
8
0
10
328
20
-137.66
11
310
21
-137.66
0
LINE
8
0
10
310
20
-137.66
11
310
21
-155.66
0
LINE
8
0
10
310
20
-136.61
11
328
21
-136.61
0
LINE
8
0
10
328
20
-136.61
11
328
21
-118.61
0
LINE
8
0
10
328
20
-118.61
11
310
21
-118.61
0
LINE
8
0
10
310
20
-118.61
11
310
21
-136.61
0
LINE
8
0
10
291
20
-188.9975
11
309
21
-188.9975
0
LINE
8
0
10
309
20
-188.9975
11
309
21
-170.9975
0
LINE
8
0
10
309
20
-170.9975
11
291
21
-170.9975
0
LINE
8
0
10
291
20
-170.9975
11
291
21
-188.9975
0
LINE
8
0
10
291
20
-169.9475
11
309
21
-169.9475
0
LINE
8
0
10
309
20
-169.9475
11
309
21
-151.9475
0
LINE
8
0
10
309
20
-151.9475
11
291
21
-151.9475
0
LINE
8
0
10
291
20
-151.9475
11
291
21
-169.9475
0
LINE
8
0
10
291
20
-150.8975
11
309
21
-150.8975
0
LINE
8
0
10
309
20
-150.8975
11
309
21
-132.8975
0
LINE
8
0
10
309
20
-132.8975
11
291
21
-132.8975
0
LINE
8
0
10
291
20
-132.8975
11
291
21
-150.8975
0
LINE
8
0
10
291
20
-131.8475
11
309
21
-131.8475
0
LINE
8
0
10
309
20
-131.8475
11
309
21
-113.8475
0
LINE
8
0
10
309
20
-113.8475
11
291
21
-113.8475
0
LINE
8
0
10
291
20
-113.8475
11
291
21
-131.8475
0
LINE
8
0
10
272
20
-193.76
11
290
21
-193.76
0
LINE
8
0
10
290
20
-193.76
11
290
21
-175.76
0
LINE
8
0
10
290
20
-175.76
11
272
21
-175.76
0
LINE
8
0
10
272
20
-175.76
11
272
21
-193.76
0
LINE
8
0
10
272
20
-174.71
11
290
21
-174.71
0
LINE
8
0
10
290
20
-174.71
11
290
21
-156.71
0
LINE
8
0
10
290
20
-156.71
11
272
21
-156.71
0
LINE
8
0
10
272
20
-156.71
11
272
21
-174.71
0
LINE
8
0
10
272
20
-155.66
11
290
21
-155.66
0
LINE
8
0
10
290
20
-155.66
11
290
21
-137.66
0
LINE
8
0
10
290
20
-137.66
11
272
21
-137.66
0
LINE
8
0
10
272
20
-137.66
11
272
21
-155.66
0
LINE
8
0
10
272
20
-136.61
11
290
21
-136.61
0
LINE
8
0
10
290
20
-136.61
11
290
21
-118.61
0
LINE
8
0
10
290
20
-118.61
11
272
21
-118.61
0
LINE
8
0
10
272
20
-118.61
11
272
21
-136.61
0
LINE
8
0
10
253
20
-196.6175
11
271
21
-196.6175
0
LINE
8
0
10
271
20
-196.6175
11
271
21
-178.6175
0
LINE
8
0
10
271
20
-178.6175
11
253
21
-178.6175
0
LINE
8
0
10
253
20
-178.6175
11
253
21
-196.6175
0
LINE
8
0
10
253
20
-177.5675
11
271
21
-177.5675
0
LINE
8
0
10
271
20
-177.5675
11
271
21
-159.5675
0
LINE
8
0
10
271
20
-159.5675
11
253
21
-159.5675
0
LINE
8
0
10
253
20
-159.5675
11
253
21
-177.5675
0
LINE
8
0
10
253
20
-158.5175
11
271
21
-158.5175
0
LINE
8
0
10
271
20
-158.5175
11
271
21
-140.5175
0
LINE
8
0
10
271
20
-140.5175
11
253
21
-140.5175
0
LINE
8
0
10
253
20
-140.5175
11
253
21
-158.5175
0
LINE
8
0
10
253
20
-139.4675
11
271
21
-139.4675
0
LINE
8
0
10
271
20
-139.4675
11
271
21
-121.4675
0
LINE
8
0
10
271
20
-121.4675
11
253
21
-121.4675
0
LINE
8
0
10
253
20
-121.4675
11
253
21
-139.4675
0
LINE
8
0
10
283.2245638
20
-216.1411034
11
300.9511034
21
-213.0154362
0
LINE
8
0
10
300.9511034
20
-213.0154362
11
297.8254362
21
-195.2888966
0
LINE
8
0
10
297.8254362
20
-195.2888966
11
280.0988966
21
-198.4145638
0
LINE
8
0
10
280.0988966
20
-198.4145638
11
283.2245638
21
-216.1411034
0
LINE
8
0
10
263.9577966
20
-221.2166548
11
281.3444614
21
-216.557912
0
LINE
8
0
10
281.3444614
20
-216.557912
11
276.6857186
21
-199.1712472
0
LINE
8
0
10
276.6857186
20
-199.1712472
11
259.2990538
21
-203.82999
0
LINE
8
0
10
259.2990538
20
-203.82999
11
263.9577966
21
-221.2166548
0
LINE
8
0
10
245.2067087
20
-227.9521017
11
262.1211759
21
-221.7957391
0
LINE
8
0
10
262.1211759
20
-221.7957391
11
255.9648133
21
-204.8812719
0
LINE
8
0
10
255.9648133
20
-204.8812719
11
239.0503461
21
-211.0376345
0
LINE
8
0
10
239.0503461
20
-211.0376345
11
245.2067087
21
-227.9521017
0
ENDSEC
0
EOF